SplineFontDB: 1.0
FontName: Loma
FullName: Loma
FamilyName: Loma
Weight: Book
Copyright: Copyright (c) NECTEC, 2003. All rights reserved.\nModified under GNU General Public License by TLWG.
Version: 0.9.8: 2007-04-17
ItalicAngle: 0
UnderlinePosition: -170
UnderlineWidth: 20
Ascent: 1638
Descent: 410
NeedsXUIDChange: 1
FSType: 0
OS2Version: 0
OS2_WeightWidthSlopeOnly: 0
OS2_UseTypoMetrics: 0
CreationTime: 1153662374
ModificationTime: 1176794000
PfmFamily: 33
TTFWeight: 400
TTFWidth: 5
LineGap: 0
VLineGap: 0
Panose: 2 11 5 4 2 2 2 2 2 4
OS2TypoAscent: 0
OS2TypoAOffset: 1
OS2TypoDescent: 0
OS2TypoDOffset: 1
OS2TypoLinegap: 0
OS2WinAscent: 0
OS2WinAOffset: 1
OS2WinDescent: 0
OS2WinDOffset: 1
HheadAscent: 0
HheadAOffset: 1
HheadDescent: 0
HheadDOffset: 1
OS2Vendor: 'PfEd'
ScriptLang: 3
 1 latn 1 dflt 
 1 thai 4 KUY  PAL  THA  dflt 
 1 thai 1 PAL  
ContextSub: glyph 0 2 ' RQD' 0 0 0 1
 String: 15 uni0E0D uni0E10
 BString: 0 
 FString: 0 
 1
  SeqLookup: 0 'ndsc'
EndFPST
ChainSub: class 0 1 'ccmp' 7 7 1 5
  Class: 414 uni0E01 uni0E02 uni0E03 uni0E04 uni0E05 uni0E06 uni0E07 uni0E08 uni0E09 uni0E0A uni0E0B uni0E0C uni0E0D uni0E0E uni0E0F uni0E10 uni0E11 uni0E12 uni0E13 uni0E14 uni0E15 uni0E16 uni0E17 uni0E18 uni0E19 uni0E1A uni0E1B uni0E1C uni0E1D uni0E1E uni0E1F uni0E20 uni0E21 uni0E22 uni0E23 uni0E24 uni0E25 uni0E26 uni0E27 uni0E28 uni0E29 uni0E2A uni0E2B uni0E2C uni0E2D uni0E2E uni0E10.descless uni0E0D.descless dottedcircle
  Class: 7 uni0E33
  Class: 39 uni0E48 uni0E49 uni0E4A uni0E4B uni0E4C
  Class: 23 uni0E38 uni0E39 uni0E3A
  Class: 39 uni0E31 uni0E34 uni0E35 uni0E36 uni0E37
  Class: 7 uni0E4D

StartChar: .notdef
Encoding: 0 -1 0
Width: 1536
Flags: W
HStem: 0 32<288 1280> 1248 32<256 1248>
VStem: 256 32<0 1248> 1248 32<32 1280>
Fore
256 0 m 1
 256 1280 l 1
 1280 1280 l 1
 1280 0 l 1
 256 0 l 1
288 32 m 1
 1248 32 l 1
 1248 1248 l 1
 288 1248 l 1
 288 32 l 1
EndSplineSet
EndChar
StartChar: uni0E4D.high
Encoding: 271 63262 2
Width: 0
VWidth: 2561
Flags: HW
TeX: 0 0 0 0
HStem: 1726 72<-269 -251> 1954 73<-269 -251>
VStem: -412 69<1875 1887> -183 70<1875 1887>
AnchorPoint: "AboveMark" -262 1740 mark 0
Fore
-262 2027 m 0
 -180 2027 -113 1961 -113 1875 c 0
 -113 1795 -180 1726 -262 1726 c 0
 -341 1726 -412 1789 -412 1875 c 0
 -412 1957 -343 2027 -262 2027 c 0
-263 1798 m 0
 -224 1798 -183 1834 -183 1875 c 0
 -183 1921 -220 1954 -263 1954 c 0
 -312 1954 -343 1917 -343 1875 c 0
 -343 1834 -305 1798 -263 1798 c 0
EndSplineSet
EndChar
StartChar: exclam
Encoding: 3 33 5
Width: 569
Flags: W
HStem: 0 21G<206 370> 1430 20G<198 378>
VStem: 206 164<0 194>
Fore
198 999 m 1
 198 1450 l 1
 378 1450 l 1
 378 999 l 1
 335 365 l 1
 242 365 l 1
 198 999 l 1
206 194 m 1
 370 194 l 1
 370 0 l 1
 206 0 l 1
 206 194 l 1
EndSplineSet
EndChar
StartChar: quotedbl
Encoding: 4 34 6
Width: 727
Flags: W
HStem: 1430 20G<106 286 439 619>
VStem: 106 180<1216 1450> 439 180<1216 1450>
Fore
156 947 m 1
 106 1217 l 1
 106 1450 l 1
 286 1450 l 1
 286 1217 l 1
 241 947 l 1
 156 947 l 1
487 947 m 1
 439 1217 l 1
 439 1450 l 1
 619 1450 l 1
 619 1217 l 1
 572 947 l 1
 487 947 l 1
EndSplineSet
EndChar
StartChar: numbersign
Encoding: 5 35 7
Width: 1139
Flags: W
HStem: -10 21G<87 267 546 725> 385 180<21 174 384 632 842 1113> 895 180<21 278 488 737 947 1113> 895 575<395 737 854 1113>
Fore
87 -10 m 1xd0
 174 385 l 1
 21 385 l 1
 21 565 l 1
 204 565 l 1
 278 895 l 1
 21 895 l 1
 21 1075 l 1
 308 1075 l 1xe0
 395 1470 l 1
 575 1470 l 1xd0
 488 1075 l 1
 767 1075 l 1xe0
 854 1470 l 1
 1034 1470 l 1xd0
 947 1075 l 1
 1113 1075 l 1
 1113 895 l 1xe0
 917 895 l 1
 842 565 l 1
 1113 565 l 1
 1113 385 l 1
 812 385 l 1
 725 -10 l 1
 546 -10 l 1
 632 385 l 1
 354 385 l 1
 267 -10 l 1
 87 -10 l 1xd0
384 565 m 1
 662 565 l 1
 737 895 l 1xe0
 458 895 l 1xd0
 384 565 l 1
EndSplineSet
EndChar
StartChar: dollar
Encoding: 6 36 8
Width: 1139
Flags: W
VStem: 106 180<1029 1052> 491 143<-118 -15 123 629 810 1269 1408 1488> 858 184<365 411>
Fore
491 -17 m 1
 418 -8 352 11 292 40 c 0
 236 67 187 110 146 169 c 0
 140 178 l 0
 104 233 83 296 76 367 c 1
 76 417 l 1
 255 417 l 1
 268 330 293 265 329 221 c 1
 342 207 353 195 363 185 c 0
 401 147 444 126 491 123 c 1
 491 651 l 1
 484 652 478 654 472 655 c 0
 425 665 362 690 284 731 c 1
 227 760 183 800 152 851 c 0
 121 903 106 963 106 1031 c 0
 106 1148 151 1243 241 1318 c 0
 245 1321 249 1323 252 1326 c 0
 312 1371 392 1399 491 1409 c 1
 491 1488 l 1
 634 1488 l 1
 634 1409 l 1
 648 1408 l 2
 732 1399 804 1370 864 1323 c 0
 877 1313 890 1302 902 1290 c 0
 959 1232 994 1167 1005 1094 c 1
 1008 1050 l 1
 833 1050 l 1
 826 1103 800 1153 755 1200 c 2
 745 1211 l 1
 714 1242 677 1261 634 1269 c 1
 634 790 l 1
 635 789 l 1
 730 762 l 2
 759 754 782 747 797 741 c 0
 879 708 940 662 981 604 c 0
 1022 545 1042 476 1042 397 c 0
 1042 281 1003 185 924 108 c 0
 916 100 908 93 899 86 c 0
 826 25 738 -9 634 -15 c 1
 634 -118 l 1
 491 -118 l 1
 491 -17 l 1
491 1271 m 1
 477 1269 464 1266 452 1263 c 0
 416 1252 381 1229 347 1192 c 1
 306 1150 286 1101 286 1044 c 0
 286 987 303 940 337 902 c 0
 340 899 342 896 345 893 c 0
 381 855 430 827 491 810 c 1
 491 1271 l 1
641 124 m 2
 658 127 682 136 714 151 c 0
 743 165 769 184 790 207 c 0
 811 230 827 257 840 287 c 0
 852 318 858 351 858 386 c 0
 858 446 842 494 809 531 c 1
 774 572 716 605 634 629 c 1
 634 123 l 1
 641 124 l 2
EndSplineSet
EndChar
StartChar: percent
Encoding: 7 37 9
Width: 1821
Flags: W
HStem: -53 123<1366 1399> 598 123<1366 1397> 717 123<422 440> 1366 125<422 440>
VStem: 119 157<1082 1132> 590 155<1082 1132> 1067 158<314 364> 1538 158<298 364>
Fore
119 1114 m 0xbf
 119 1219 145 1308 197 1380 c 0
 250 1454 326 1491 426 1491 c 0
 521 1491 598 1458 655 1392 c 0
 715 1323 745 1227 745 1104 c 1
 744 986 713 890 654 817 c 1
 597 750 521 717 428 717 c 0
 337 717 264 750 208 815 c 0
 149 884 119 984 119 1114 c 0xbf
432 1366 m 0
 385 1366 347 1347 320 1308 c 0
 291 1266 276 1195 276 1096 c 0
 276 1001 291 935 322 897 c 0
 352 859 389 840 432 840 c 0
 477 840 515 859 545 898 c 128
 575 937 590 1007 590 1110 c 0
 590 1204 575 1270 545 1308 c 0
 515 1347 477 1366 432 1366 c 0
1217 1491 m 1
 1397 1491 l 1
 638 -10 l 1
 458 -10 l 1
 1217 1491 l 1
1067 344 m 0
 1067 449 1093 538 1145 610 c 0
 1198 684 1275 721 1376 721 c 0xdf
 1471 721 1547 688 1604 622 c 0
 1665 552 1696 456 1696 334 c 0
 1696 213 1665 117 1604 47 c 0
 1545 -20 1469 -53 1376 -53 c 0
 1283 -53 1209 -20 1155 46 c 0
 1096 117 1067 217 1067 344 c 0
1380 598 m 0
 1332 598 1295 579 1268 540 c 0
 1239 497 1225 426 1225 326 c 0
 1225 233 1240 167 1270 128 c 0
 1300 89 1337 70 1380 70 c 0
 1427 70 1465 89 1494 128 c 0
 1523 167 1538 237 1538 340 c 0
 1538 434 1523 500 1493 540 c 128
 1463 578 1425 598 1380 598 c 0
EndSplineSet
EndChar
StartChar: ampersand
Encoding: 8 38 10
Width: 1366
Flags: W
HStem: -25 158<528 569> 1343 148<606 641>
VStem: 88 195<396 430> 272 185<1163 1184> 793 184<1161 1184>
Fore
973 172 m 1xd8
 856 41 716 -25 553 -25 c 0
 403 -25 284 26 195 127 c 1
 124 210 88 302 88 403 c 0xe8
 88 586 204 733 436 842 c 1
 403 880 377 914 356 944 c 0
 335 974 318 1002 306 1027 c 0
 293 1052 284 1076 280 1098 c 128
 274 1119 272 1141 272 1163 c 0
 272 1252 306 1328 375 1393 c 0
 444 1458 532 1491 637 1491 c 0
 735 1491 816 1460 880 1399 c 0
 945 1338 977 1264 977 1178 c 0
 977 1039 885 920 700 821 c 1
 963 485 l 1
 993 542 1016 611 1032 690 c 1
 1221 649 l 1
 1188 522 1144 417 1090 334 c 1
 1157 247 1233 172 1319 109 c 1
 1198 -35 l 1
 1126 13 1051 82 973 172 c 1xd8
606 938 m 1
 684 982 735 1022 758 1057 c 0
 781 1092 793 1131 793 1174 c 0
 793 1223 777 1263 746 1295 c 0
 714 1327 674 1343 627 1343 c 0
 579 1343 539 1327 506 1296 c 0
 473 1265 457 1227 457 1182 c 0xd8
 457 1135 480 1085 526 1030 c 1
 606 938 l 1
530 725 m 1
 433 666 368 612 334 562 c 0
 300 512 283 463 283 416 c 0xe8
 283 355 306 292 352 229 c 1
 400 165 468 133 555 133 c 0
 581 133 609 137 638 146 c 0
 667 155 696 168 723 184 c 0
 750 201 776 220 800 242 c 0
 824 263 844 288 860 315 c 1
 530 725 l 1
EndSplineSet
EndChar
StartChar: quotesingle
Encoding: 9 39 11
Width: 391
Flags: W
HStem: 1446 20G<90 295>
VStem: 90 205<1220 1466>
Fore
136 947 m 1
 90 1221 l 1
 90 1466 l 1
 295 1466 l 1
 295 1221 l 1
 247 947 l 1
 136 947 l 1
EndSplineSet
EndChar
StartChar: parenleft
Encoding: 10 40 12
Width: 682
Flags: W
VStem: 124 185<480 578>
Fore
479 -431 m 1
 344 -260 245 -71 184 135 c 0
 144 268 124 400 124 531 c 0
 124 773 181 999 295 1209 c 0
 341 1294 402 1388 479 1491 c 1
 608 1491 l 1
 515 1332 452 1211 418 1130 c 0
 354 978 318 809 311 622 c 0
 310 592 309 561 309 530 c 0
 309 209 409 -111 608 -431 c 1
 479 -431 l 1
EndSplineSet
EndChar
StartChar: parenright
Encoding: 11 41 13
Width: 682
Flags: W
VStem: 423 185<480 578>
Fore
253 -431 m 1
 124 -431 l 1
 323 -111 423 209 423 530 c 0
 423 742 391 931 326 1097 c 0
 290 1190 226 1316 133 1475 c 0
 129 1482 129 1482 124 1491 c 1
 253 1491 l 1
 380 1321 470 1165 523 1022 c 0
 580 871 608 707 608 531 c 0
 608 283 539 36 401 -209 c 0
 356 -288 307 -362 253 -431 c 1
EndSplineSet
EndChar
StartChar: asterisk
Encoding: 12 42 14
Width: 797
Flags: W
Fore
64 1197 m 1
 110 1339 l 1
 216 1302 293 1269 341 1242 c 1
 328 1363 322 1446 321 1491 c 1
 466 1491 l 1
 464 1425 456 1342 443 1243 c 1
 512 1278 590 1310 679 1339 c 1
 725 1197 l 1
 640 1169 557 1150 476 1141 c 1
 517 1106 574 1043 648 952 c 1
 528 867 l 1
 489 920 444 991 391 1082 c 1
 342 988 298 916 261 867 c 1
 143 952 l 1
 220 1047 276 1110 309 1141 c 1
 223 1158 141 1176 64 1197 c 1
EndSplineSet
EndChar
StartChar: plus
Encoding: 13 43 15
Width: 1196
Flags: W
HStem: 639 168<114 513 683 1082>
VStem: 513 170<237 639 807 1206>
Fore
513 237 m 1
 513 639 l 1
 114 639 l 1
 114 807 l 1
 513 807 l 1
 513 1206 l 1
 683 1206 l 1
 683 807 l 1
 1082 807 l 1
 1082 639 l 1
 683 639 l 1
 683 237 l 1
 513 237 l 1
EndSplineSet
EndChar
StartChar: comma
Encoding: 14 44 16
Width: 569
Flags: W
HStem: -20 20G<182 284>
VStem: 182 205<-1 205>
Fore
182 0 m 1
 182 205 l 1
 387 205 l 1
 387 0 l 2
 387 -75 374 -136 347 -182 c 0
 320 -229 278 -265 220 -290 c 1
 170 -213 l 1
 208 -196 236 -172 254 -140 c 0
 272 -107 282 -61 284 0 c 1
 182 0 l 1
EndSplineSet
EndChar
StartChar: hyphen
Encoding: 15 45 17
Width: 682
Flags: W
HStem: 440 181<65 618>
Fore
65 440 m 1
 65 621 l 1
 618 621 l 1
 618 440 l 1
 65 440 l 1
EndSplineSet
EndChar
StartChar: period
Encoding: 16 46 18
Width: 569
Flags: W
HStem: 0 205<186 391>
VStem: 186 205<0 205>
Fore
186 0 m 1
 186 205 l 1
 391 205 l 1
 391 0 l 1
 186 0 l 1
EndSplineSet
EndChar
StartChar: slash
Encoding: 17 47 19
Width: 595
Flags: W
HStem: -10 21G<-81 102> 1450 20G<506 688>
Fore
-81 -10 m 1
 506 1470 l 1
 688 1470 l 1
 102 -10 l 1
 -81 -10 l 1
EndSplineSet
EndChar
StartChar: zero
Encoding: 18 48 20
Width: 1139
Flags: W
HStem: 1309 150<549 583>
VStem: 86 184<723 791> 856 184<723 775>
Fore
86 723 m 0
 86 890 102 1026 135 1133 c 0
 202 1350 345 1459 563 1459 c 0
 881 1459 1040 1214 1040 723 c 0
 1040 540 1020 394 979 285 c 0
 908 96 770 -2 563 -10 c 1
 499 -10 442 0 391 19 c 0
 188 95 86 330 86 723 c 0
270 723 m 0
 270 662 272 607 277 557 c 0
 301 279 396 140 563 140 c 0
 758 141 856 335 856 723 c 0
 856 1114 758 1309 561 1309 c 0
 486 1309 425 1283 380 1231 c 0
 307 1145 270 976 270 723 c 0
EndSplineSet
EndChar
StartChar: one
Encoding: 19 49 21
Width: 1139
Flags: W
HStem: 0 21G<583 763> 1452 20G<583 763>
VStem: 583 180<0 1472>
Fore
763 0 m 1
 583 0 l 1
 583 1135 l 1
 540 1069 474 1013 385 966 c 0
 331 937 277 918 223 907 c 1
 223 1104 l 1
 328 1153 417 1221 490 1306 c 0
 538 1363 569 1419 583 1472 c 1
 763 1472 l 1
 763 0 l 1
EndSplineSet
KernsSLIFO: 21 -152 0 0
EndChar
StartChar: two
Encoding: 20 50 22
Width: 1139
Flags: W
HStem: 0 173<312 1031> 1333 149<541 596>
VStem: 96 185<1039 1064.12> 844 185<1049 1089>
Fore
1031 173 m 1
 1031 0 l 1
 62 0 l 1
 74 145 163 295 330 450 c 0
 361 478 396 509 437 542 c 0
 558 641 640 714 685 759 c 0
 782 858 834 955 843 1049 c 0
 844 1059 844 1069 844 1079 c 0
 844 1161 813 1226 752 1274 c 0
 702 1313 641 1333 568 1333 c 0
 459 1333 379 1294 329 1217 c 0
 298 1169 282 1110 281 1039 c 1
 96 1039 l 1
 96 1168 139 1274 224 1356 c 0
 312 1440 428 1482 572 1482 c 0
 713 1482 825 1442 910 1363 c 0
 989 1289 1029 1193 1029 1075 c 0
 1029 945 977 822 873 705 c 0
 829 656 755 588 650 501 c 2
 596 455 l 1
 430 317 l 1
 386 278 347 230 312 173 c 1
 1031 173 l 1
EndSplineSet
EndChar
StartChar: three
Encoding: 21 51 23
Width: 1139
Flags: W
HStem: -10 166<533 578> 1070 21G<104 284> 1317 165<533 576>
VStem: 789 185<1093 1123> 855 191<421 471>
Fore
86 427 m 1xe8
 266 427 l 1
 269 383 l 1
 281 312 317 255 377 211 c 0
 428 174 486 156 553 156 c 0
 648 156 725 187 782 248 c 0
 831 301 855 366 855 445 c 0xe8
 855 547 818 622 744 669 c 0
 698 698 642 713 576 713 c 0
 533 713 488 707 441 694 c 1
 441 852 l 1
 495 850 l 1
 582 853 654 880 711 932 c 0
 763 979 789 1037 789 1105 c 0
 789 1188 755 1248 688 1285 c 0
 649 1306 603 1317 549 1317 c 0
 407 1317 320 1244 289 1099 c 1
 284 1070 l 1
 104 1070 l 1
 104 1170 139 1259 210 1337 c 0
 283 1417 374 1464 485 1478 c 0
 505 1481 525 1482 545 1482 c 0
 662 1482 761 1448 842 1380 c 0
 923 1312 967 1226 973 1123 c 0
 974 1116 974 1108 974 1101 c 0xf0
 974 1002 936 919 861 852 c 0
 834 829 805 809 772 794 c 1
 919 760 1007 677 1036 546 c 0
 1043 516 1046 484 1046 449 c 0
 1046 325 1004 220 920 135 c 1
 881 100 l 1
 790 27 681 -10 552 -10 c 0
 429 -10 324 29 236 106 c 0
 153 178 105 267 90 372 c 0
 87 391 86 409 86 427 c 1xe8
EndSplineSet
EndChar
StartChar: four
Encoding: 22 52 24
Width: 1139
Flags: W
HStem: 0 21G<662 842> 347 175<251 662 842 1040> 1452 20G<662 842>
VStem: 662 180<0 347 522 1472>
Fore
662 0 m 1
 662 347 l 1
 26 347 l 1
 26 522 l 1
 662 1472 l 1
 842 1472 l 1
 842 522 l 1
 1040 522 l 1
 1040 347 l 1
 842 347 l 1
 842 0 l 1
 662 0 l 1
662 522 m 1
 662 1117 l 1
 251 522 l 1
 662 522 l 1
EndSplineSet
EndChar
StartChar: five
Encoding: 23 53 25
Width: 1139
Flags: W
HStem: -10 164<556 582> 817 170<553 591> 1292 180<259 988>
VStem: 866 191<485 519>
Fore
85 415 m 1
 274 415 l 1
 294 284 354 202 454 169 c 0
 485 159 519 154 556 154 c 0
 658 154 738 191 795 265 c 0
 842 326 866 403 866 496 c 0
 866 619 825 708 744 764 c 0
 693 799 629 817 553 817 c 0
 454 817 372 773 306 686 c 1
 117 708 l 1
 259 1472 l 1
 988 1472 l 1
 988 1292 l 1
 423 1292 l 1
 344 920 l 1
 397 964 480 986 591 987 c 0
 601 987 l 0
 727 987 832 946 917 864 c 0
 1003 781 1049 673 1056 542 c 0
 1057 532 1057 522 1057 512 c 0
 1057 370 1015 251 932 155 c 0
 848 57 738 3 603 -8 c 0
 588 -9 572 -10 556 -10 c 0
 395 -10 272 43 187 148 c 0
 130 219 96 308 85 415 c 1
EndSplineSet
EndChar
StartChar: six
Encoding: 24 54 26
Width: 1139
Flags: W
HStem: -10 165<572 605> 807 170<556 603> 1305 177<572 622>
VStem: 77 194<701 842> 861 184<453 503>
Fore
1019 1103 m 1
 840 1103 l 1
 814 1220 748 1286 641 1302 c 0
 626 1304 609 1305 592 1305 c 0
 383 1305 276 1151 271 842 c 1
 332 918 415 962 522 973 c 0
 545 976 569 977 594 977 c 0
 709 977 808 937 893 858 c 0
 976 779 1026 679 1041 559 c 0
 1044 536 1045 514 1045 491 c 0
 1045 354 1006 240 929 147 c 0
 850 51 746 -1 618 -9 c 0
 607 -10 597 -10 586 -10 c 0
 363 -10 213 97 135 312 c 0
 96 418 77 548 77 701 c 0
 77 1078 171 1320 360 1425 c 0
 429 1463 510 1482 603 1482 c 0
 719 1482 817 1446 897 1374 c 0
 972 1307 1012 1225 1018 1128 c 0
 1019 1120 1019 1112 1019 1103 c 1
306 490 m 0
 306 381 336 296 395 233 c 0
 444 181 506 155 583 155 c 0
 676 155 749 191 800 263 c 0
 841 321 861 393 861 480 c 0
 861 593 828 679 762 739 c 0
 713 784 651 807 576 807 c 0
 480 807 407 769 358 692 c 0
 323 637 306 570 306 490 c 0
EndSplineSet
EndChar
StartChar: seven
Encoding: 25 55 27
Width: 1139
Flags: W
HStem: 0 21G<293 511> 1292 180<97 795>
VStem: 293 218<0 45.99>
Fore
97 1292 m 1
 97 1472 l 1
 1046 1472 l 1
 1046 1292 l 1
 895 1111 772 911 675 692 c 0
 566 446 511 215 511 0 c 1
 293 0 l 1
 294 235 359 494 486 776 c 0
 577 979 680 1151 795 1292 c 1
 97 1292 l 1
EndSplineSet
EndChar
StartChar: eight
Encoding: 26 56 28
Width: 1139
Flags: W
HStem: -10 157<546 596> 699 181<546 580> 1326 156<546 580>
VStem: 83 185<421 455> 142 184<1093 1110> 804 185<1077 1112> 865 184<432 459.272>
Fore
362 805 m 1xf2
 215 859 142 959 142 1104 c 0
 142 1218 183 1310 264 1381 c 0
 342 1448 442 1482 563 1482 c 0
 689 1482 792 1445 872 1372 c 0
 950 1301 989 1210 989 1099 c 0xec
 989 967 926 873 799 816 c 2
 773 805 l 1
 911 760 997 677 1032 556 c 0
 1043 519 1049 478 1049 434 c 1
 1045 368 l 1
 1030 233 968 132 859 65 c 0
 778 15 681 -10 566 -10 c 0
 425 -10 309 31 220 113 c 0
 130 195 84 302 83 434 c 0
 83 437 83 437 83 439 c 0
 83 588 140 696 255 762 c 0
 287 781 323 795 362 805 c 1xf2
326 1110 m 1
 326 1026 357 963 419 921 c 0
 460 894 509 880 567 880 c 0
 648 880 710 907 755 960 c 0
 788 999 804 1045 804 1100 c 0
 804 1176 775 1236 718 1279 c 0
 675 1310 624 1326 565 1326 c 0
 486 1326 424 1301 378 1250 c 1
 357 1222 l 1
 340 1189 l 1
 330 1151 l 1
 326 1110 l 1
268 438 m 0xf2
 268 347 300 273 365 218 c 0
 420 171 488 147 568 147 c 0
 666 147 743 179 799 242 c 0
 843 293 865 356 865 432 c 0
 865 535 824 610 742 657 c 0
 693 685 633 699 562 699 c 0
 453 699 373 666 320 601 c 0
 285 558 268 503 268 438 c 0xf2
EndSplineSet
EndChar
StartChar: nine
Encoding: 27 57 29
Width: 1139
Flags: W
HStem: -10 177<538 584> 495 170<555 594> 1317 165<553 594>
VStem: 113 184<965 1015> 887 194<630 771>
Fore
139 369 m 1
 318 369 l 1
 344 252 410 186 517 170 c 0
 532 168 549 167 566 167 c 0
 775 167 882 321 887 630 c 1
 826 554 743 510 636 499 c 0
 613 496 589 495 564 495 c 0
 449 495 350 535 265 614 c 0
 182 693 132 793 117 913 c 0
 114 936 113 958 113 981 c 0
 113 1118 152 1232 229 1325 c 0
 308 1421 412 1473 540 1481 c 0
 551 1482 561 1482 572 1482 c 0
 795 1482 945 1375 1023 1160 c 0
 1062 1054 1081 924 1081 771 c 0
 1081 394 987 152 798 47 c 0
 729 9 648 -10 555 -10 c 0
 439 -10 341 26 261 98 c 0
 186 165 146 247 140 344 c 0
 139 352 139 360 139 369 c 1
852 982 m 0
 852 1091 822 1176 763 1239 c 0
 714 1291 652 1317 575 1317 c 0
 482 1317 409 1281 358 1209 c 1
 335 1170 l 1
 310 1119 297 1060 297 992 c 0
 297 879 330 793 396 733 c 0
 445 688 507 665 582 665 c 0
 678 665 751 703 800 780 c 0
 835 835 852 902 852 982 c 0
EndSplineSet
EndChar
StartChar: colon
Encoding: 28 58 30
Width: 569
Flags: W
HStem: 0 205<185 390> 857 205<185 390>
VStem: 185 205<0 205 857 1062>
Fore
185 857 m 1
 185 1062 l 1
 390 1062 l 1
 390 857 l 1
 185 857 l 1
185 0 m 1
 185 205 l 1
 390 205 l 1
 390 0 l 1
 185 0 l 1
EndSplineSet
EndChar
StartChar: semicolon
Encoding: 29 59 31
Width: 569
Flags: W
HStem: -20 20G<182 284> 857 205<182 387>
VStem: 182 205<-1 205 857 1062>
Fore
182 857 m 1
 182 1062 l 1
 387 1062 l 1
 387 857 l 1
 182 857 l 1
182 0 m 1
 182 205 l 1
 387 205 l 1
 387 0 l 2
 387 -120 351 -206 278 -257 c 1
 261 -270 242 -281 220 -290 c 1
 170 -213 l 1
 225 -189 259 -147 273 -87 c 0
 279 -63 283 -34 284 0 c 1
 182 0 l 1
EndSplineSet
EndChar
StartChar: less
Encoding: 30 60 32
Width: 1196
Flags: W
Fore
112 641 m 1
 112 809 l 1
 1083 1219 l 1
 1083 1040 l 1
 313 724 l 1
 1083 405 l 1
 1083 226 l 1
 112 641 l 1
EndSplineSet
EndChar
StartChar: equal
Encoding: 31 61 33
Width: 1196
Flags: W
HStem: 417 168<114 1082> 862 168<114 1082>
Fore
1082 862 m 1
 114 862 l 1
 114 1030 l 1
 1082 1030 l 1
 1082 862 l 1
1082 417 m 1
 114 417 l 1
 114 585 l 1
 1082 585 l 1
 1082 417 l 1
EndSplineSet
EndChar
StartChar: greater
Encoding: 32 62 34
Width: 1196
Flags: W
Fore
1083 641 m 1
 112 226 l 1
 112 405 l 1
 881 724 l 1
 112 1040 l 1
 112 1219 l 1
 1083 809 l 1
 1083 641 l 1
EndSplineSet
EndChar
StartChar: question
Encoding: 33 63 35
Width: 1139
Flags: W
HStem: 0 205<461 666> 1341 163<553 591>
VStem: 461 205<0 205> 853 182<1088 1110.19>
Fore
472 361 m 1
 474 436 l 1
 482 547 520 641 589 719 c 0
 606 738 643 773 700 826 c 0
 759 879 800 928 823 972 c 0
 842 1009 852 1048 853 1088 c 0
 853 1127 844 1164 825 1199 c 0
 792 1263 738 1306 665 1328 c 0
 634 1337 602 1341 568 1341 c 0
 428 1340 336 1268 292 1123 c 0
 285 1099 279 1073 275 1046 c 1
 90 1046 l 1
 97 1175 142 1282 223 1367 c 0
 311 1458 425 1504 565 1504 c 0
 696 1504 806 1467 896 1392 c 0
 979 1323 1025 1239 1035 1138 c 1
 1036 1084 l 1
 1033 1027 1018 971 991 914 c 0
 972 875 934 830 878 780 c 0
 819 729 782 694 766 676 c 0
 693 597 653 502 646 389 c 0
 645 380 645 370 645 361 c 1
 472 361 l 1
461 0 m 1
 461 205 l 1
 666 205 l 1
 666 0 l 1
 461 0 l 1
EndSplineSet
EndChar
StartChar: at
Encoding: 34 64 36
Width: 2079
Flags: W
HStem: -431 157<1070 1168> -3 164<854 891> 925 159<1006 1040> 1338 155<1054 1135>
VStem: 111 158<448 514> 502 181<432 487> 1799 157<688 754>
Fore
1161 121 m 1
 1090 38 987 -3 854 -3 c 0
 747 -3 661 44 595 138 c 0
 533 225 502 333 502 461 c 0
 502 570 526 671 574 764 c 0
 629 873 702 957 792 1015 c 0
 862 1061 935 1084 1011 1084 c 0
 1153 1084 1254 1035 1313 938 c 1
 1347 1079 l 1
 1526 1079 l 1
 1380 379 l 1
 1367 315 1358 265 1352 229 c 1
 1353 212 l 1
 1356 202 1362 192 1372 182 c 0
 1386 169 1403 163 1422 163 c 0
 1492 163 1563 206 1634 291 c 0
 1703 374 1752 471 1780 580 c 0
 1793 628 1799 673 1799 716 c 0
 1799 885 1742 1025 1627 1138 c 0
 1522 1242 1386 1306 1220 1329 c 0
 1179 1335 1136 1338 1093 1338 c 0
 882 1338 704 1276 557 1152 c 0
 525 1125 495 1095 468 1063 c 0
 350 924 284 754 271 553 c 0
 270 531 269 508 269 485 c 0
 269 220 358 22 535 -110 c 0
 682 -219 877 -274 1120 -274 c 0
 1346 -274 1532 -224 1677 -125 c 0
 1737 -84 1786 -36 1824 19 c 1
 2005 19 l 1
 1941 -113 1835 -219 1686 -300 c 0
 1525 -387 1337 -431 1123 -431 c 0
 831 -431 596 -361 418 -222 c 0
 240 -83 139 112 116 361 c 0
 113 396 111 432 111 469 c 0
 111 705 171 911 291 1087 c 0
 406 1256 562 1373 758 1439 c 0
 865 1475 979 1493 1102 1493 c 0
 1311 1493 1491 1439 1642 1332 c 0
 1785 1231 1879 1098 1926 933 c 0
 1946 863 1956 790 1956 713 c 0
 1956 575 1918 440 1843 307 c 0
 1772 181 1683 88 1577 28 c 0
 1504 -13 1430 -33 1354 -33 c 0
 1308 -33 1271 -26 1242 -12 c 0
 1214 2 1193 22 1180 48 c 0
 1170 67 1164 91 1161 121 c 1
891 161 m 0
 985 161 1066 207 1133 299 c 0
 1194 382 1229 480 1240 593 c 0
 1242 612 1243 630 1243 649 c 0
 1243 768 1209 850 1140 894 c 0
 1107 915 1069 925 1024 925 c 0
 912 925 823 862 756 737 c 0
 743 713 732 687 722 660 c 0
 717 648 713 636 709 623 c 0
 692 567 683 510 683 453 c 0
 683 350 708 272 758 218 c 0
 794 180 838 161 891 161 c 0
EndSplineSet
EndChar
StartChar: A
Encoding: 35 65 37
Width: 1366
Flags: W
HStem: 0 21G<-2 203 1149 1368> 471 182<435 948> 1430 20G<559 768>
Fore
559 1450 m 1
 768 1450 l 1
 1368 0 l 1
 1149 0 l 1
 948 471 l 1
 392 471 l 1
 203 0 l 1
 -2 0 l 1
 559 1450 l 1
903 653 m 1
 659 1237 l 1
 435 653 l 1
 903 653 l 1
EndSplineSet
KernsSLIFO: 93 -37 0 0 91 -37 0 0 90 -37 0 0 61 -152 0 0 59 -76 0 0 58 -152 0 0 56 -152 0 0
EndChar
StartChar: B
Encoding: 36 66 38
Width: 1366
Flags: W
HStem: 0 173<344 757> 669 173<344 711> 1277 173<164 702>
VStem: 164 180<0 669 0 1277> 995 191<1054 1081> 1056 201<421 433>
Fore
164 0 m 1xf4
 164 1450 l 1
 700 1450 l 2
 812 1450 902 1435 970 1406 c 0
 1045 1373 1102 1320 1142 1249 c 0
 1171 1196 1186 1140 1186 1079 c 0
 1186 1019 1169 961 1135 906 c 0
 1101 851 1050 806 981 772 c 1
 1070 746 1138 702 1186 639 c 0xf8
 1233 576 1257 504 1257 421 c 0
 1257 326 1229 240 1172 164 c 0
 1152 137 1130 115 1106 97 c 0
 1063 65 1010 41 946 24 c 0
 881 8 802 0 709 0 c 2
 164 0 l 1xf4
344 842 m 1
 661 842 l 2
 747 842 809 848 846 859 c 0
 945 888 995 954 995 1056 c 0
 995 1136 967 1195 910 1233 c 0
 895 1243 878 1251 860 1256 c 0
 817 1270 742 1277 637 1277 c 2
 344 1277 l 1
 344 842 l 1
344 173 m 1
 709 173 l 2
 798 173 861 180 898 193 c 0
 916 199 934 208 953 220 c 0
 1012 257 1045 312 1054 386 c 0
 1055 397 1056 409 1056 421 c 0xf4
 1056 510 1022 576 953 619 c 0
 936 630 918 638 898 644 c 0
 848 661 776 669 683 669 c 2
 344 669 l 1
 344 173 l 1
EndSplineSet
EndChar
StartChar: C
Encoding: 37 67 39
Width: 1479
Flags: W
HStem: -10 180<757 823> 1297 180<757 823>
VStem: 102 197<709 775>
Fore
1210 480 m 1
 1398 480 l 1
 1349 287 1253 150 1110 68 c 0
 1019 16 912 -10 791 -10 c 0
 633 -10 505 22 406 86 c 0
 307 151 231 244 180 366 c 0
 128 488 102 614 102 745 c 0
 102 888 131 1016 190 1130 c 0
 248 1243 331 1329 438 1388 c 0
 546 1447 665 1477 794 1477 c 0
 941 1477 1064 1440 1164 1365 c 0
 1264 1290 1334 1185 1373 1050 c 1
 1185 1050 l 1
 1148 1171 1065 1247 934 1280 c 0
 890 1291 842 1297 790 1297 c 0
 677 1297 583 1270 508 1216 c 0
 369 1117 299 960 299 746 c 0
 299 635 321 531 364 434 c 0
 421 309 512 228 637 191 c 0
 684 177 735 170 788 170 c 0
 914 170 1017 204 1098 272 c 0
 1165 328 1202 397 1210 480 c 1
EndSplineSet
EndChar
StartChar: D
Encoding: 38 68 40
Width: 1479
Flags: W
HStem: 0 173<350 713> 1277 173<168 713>
VStem: 168 182<0 1277> 1183 197<686 769>
Fore
168 0 m 1
 168 1450 l 1
 673 1450 l 2
 972 1450 1175 1362 1281 1186 c 0
 1347 1077 1380 926 1380 733 c 0
 1380 318 1217 80 891 17 c 0
 832 6 767 0 697 0 c 2
 168 0 l 1
350 173 m 1
 675 173 l 2
 998 173 1167 344 1182 686 c 0
 1183 702 1183 719 1183 736 c 0
 1183 1069 1037 1248 746 1274 c 0
 721 1276 696 1277 670 1277 c 2
 350 1277 l 1
 350 173 l 1
EndSplineSet
EndChar
StartChar: E
Encoding: 39 69 41
Width: 1366
Flags: W
HStem: 0 179<341 1222> 646 180<341 1021> 1268 182<162 1222>
VStem: 162 179<0 646 0 1268>
Fore
162 0 m 1
 162 1450 l 1
 1222 1450 l 1
 1222 1268 l 1
 341 1268 l 1
 341 826 l 1
 1021 826 l 1
 1021 646 l 1
 341 646 l 1
 341 179 l 1
 1222 179 l 1
 1222 0 l 1
 162 0 l 1
EndSplineSet
EndChar
StartChar: F
Encoding: 40 70 42
Width: 1251
Flags: W
HStem: 0 21G<168 347> 641 179<347 1009> 1271 179<168 1157>
VStem: 168 179<0 641 0 1271>
Fore
168 0 m 1
 168 1450 l 1
 1157 1450 l 1
 1157 1271 l 1
 347 1271 l 1
 347 820 l 1
 1009 820 l 1
 1009 641 l 1
 347 641 l 1
 347 0 l 1
 168 0 l 1
EndSplineSet
KernsSLIFO: 37 -113 0 0 18 -227 0 0 16 -227 0 0
EndChar
StartChar: G
Encoding: 41 71 43
Width: 1479
Flags: W
HStem: -10 180<757 816> 504 180<905 1212> 1297 180<757 823>
VStem: 102 197<709 775> 905 499<504 684>
Fore
1404 684 m 1
 1404 666 1404 666 1404 650 c 0
 1403 497 1389 387 1362 320 c 0
 1345 276 1311 224 1260 164 c 0
 1257 161 1255 159 1253 156 c 0
 1154 45 1000 -10 791 -10 c 0
 633 -10 505 22 406 86 c 0
 307 151 231 244 180 366 c 0
 128 488 102 614 102 745 c 0
 102 888 131 1016 190 1130 c 0
 248 1243 331 1329 438 1388 c 0
 546 1447 665 1477 794 1477 c 0
 941 1477 1064 1440 1164 1365 c 0
 1264 1290 1334 1185 1373 1050 c 1
 1185 1050 l 1
 1174 1087 1158 1119 1138 1148 c 0
 1068 1247 952 1297 790 1297 c 0
 677 1297 583 1270 508 1216 c 0
 369 1117 299 960 299 746 c 0
 299 635 321 531 364 434 c 0
 382 394 404 358 430 327 c 0
 516 222 635 170 788 170 c 0
 797 170 807 170 816 171 c 0
 939 176 1037 214 1112 284 c 1
 1126 299 l 2
 1173 350 1201 405 1210 465 c 1
 1212 504 l 1
 905 504 l 1
 905 684 l 1
 1404 684 l 1
EndSplineSet
EndChar
StartChar: H
Encoding: 42 72 44
Width: 1479
Flags: W
HStem: 668 180<344 1134> 1430 20G<164 344 1134 1314>
VStem: 164 180<0 668 0 1450> 1134 180<0 1450>
Fore
164 0 m 1
 164 1450 l 1
 344 1450 l 1
 344 848 l 1
 1134 848 l 1
 1134 1450 l 1
 1314 1450 l 1
 1314 0 l 1
 1134 0 l 1
 1134 668 l 1
 344 668 l 1
 344 0 l 1
 164 0 l 1
EndSplineSet
EndChar
StartChar: I
Encoding: 43 73 45
Width: 650
Flags: W
HStem: 0 160<25 625> 1290 160<25 235 25 625>
VStem: 235 180<160 1290>
Fore
625 160 m 1
 625 0 l 1
 25 0 l 1
 25 160 l 1
 235 160 l 1
 235 1290 l 1
 25 1290 l 1
 25 1450 l 1
 625 1450 l 1
 625 1290 l 1
 415 1290 l 1
 415 160 l 1
 625 160 l 1
EndSplineSet
EndChar
StartChar: J
Encoding: 44 74 46
Width: 1024
Flags: W
HStem: -10 180<447 463> 1280 170<408 685>
VStem: 685 180<406 1280>
Fore
865 1450 m 1
 865 456 l 2
 865 331 847 237 811 172 c 0
 803 157 794 143 783 129 c 0
 720 47 630 1 513 -8 c 1
 463 -10 l 1
 338 -10 242 24 173 92 c 0
 164 100 156 109 148 118 c 0
 99 176 71 264 66 381 c 0
 65 402 64 427 64 455 c 1
 244 455 l 1
 247 378 l 1
 252 323 266 279 291 246 c 0
 329 195 386 170 462 170 c 0
 520 170 566 183 600 209 c 0
 615 220 630 235 645 252 c 0
 670 281 684 333 685 408 c 0
 685 421 685 421 685 471 c 2
 685 1280 l 1
 408 1280 l 1
 408 1450 l 1
 865 1450 l 1
EndSplineSet
EndChar
StartChar: K
Encoding: 45 75 47
Width: 1366
Flags: W
HStem: 0 21G<150 330 1113 1346> 1430 20G<150 330 1072 1316>
VStem: 150 180<0 539 0 1450>
Fore
150 0 m 1
 150 1450 l 1
 330 1450 l 1
 330 785 l 1
 1072 1450 l 1
 1316 1450 l 1
 610 806 l 1
 1346 0 l 1
 1113 0 l 1
 479 670 l 1
 330 539 l 1
 330 0 l 1
 150 0 l 1
EndSplineSet
EndChar
StartChar: L
Encoding: 46 76 48
Width: 1139
Flags: W
HStem: 0 170<329 1060> 1430 20G<150 330>
VStem: 150 180<0 1450>
Fore
150 0 m 1
 150 1450 l 1
 330 1450 l 1
 330 170 l 1
 1060 170 l 1
 1060 0 l 1
 150 0 l 1
EndSplineSet
KernsSLIFO: 93 -76 0 0 61 -152 0 0 59 -152 0 0 58 -152 0 0 56 -152 0 0
EndChar
StartChar: M
Encoding: 47 77 49
Width: 1706
Flags: W
HStem: 0 21G<152 332 706 996 1370 1550> 1430 20G<152 332 1370 1550>
VStem: 152 180<0 964> 1370 180<0 1450>
Fore
152 0 m 1
 152 1450 l 1
 332 1450 l 1
 851 133 l 1
 1370 1450 l 1
 1550 1450 l 1
 1550 0 l 1
 1370 0 l 1
 1370 964 l 1
 996 0 l 1
 706 0 l 1
 332 964 l 1
 332 0 l 1
 152 0 l 1
EndSplineSet
EndChar
StartChar: N
Encoding: 48 78 50
Width: 1479
Flags: W
HStem: 0 21G<156 336 1131 1311> 1430 20G<156 336 1131 1311>
VStem: 156 180<0 1136> 1131 180<315 1450>
Fore
156 0 m 1
 156 1450 l 1
 336 1450 l 1
 1131 315 l 1
 1131 1450 l 1
 1311 1450 l 1
 1311 0 l 1
 1131 0 l 1
 336 1136 l 1
 336 0 l 1
 156 0 l 1
EndSplineSet
EndChar
StartChar: O
Encoding: 49 79 51
Width: 1593
Flags: W
HStem: -10 180<775 825> 1298 180<775 825>
VStem: 104 200<677 759> 1296 200<693 775>
Fore
104 714 m 0
 104 949 165 1135 288 1271 c 1
 415 1407 586 1476 801 1478 c 1
 1000 1478 1162 1416 1287 1293 c 0
 1406 1176 1474 1020 1492 825 c 0
 1495 794 1496 763 1496 731 c 0
 1496 524 1440 354 1329 221 c 0
 1222 93 1080 18 901 -4 c 0
 868 -8 835 -10 800 -10 c 0
 610 -10 452 48 326 165 c 0
 211 272 140 410 114 580 c 0
 107 624 104 669 104 714 c 0
304 711 m 0
 304 528 356 388 460 291 c 0
 546 210 659 170 799 170 c 0
 978 170 1110 233 1197 358 c 0
 1263 453 1296 578 1296 732 c 0
 1296 927 1244 1074 1139 1175 c 0
 1054 1257 941 1298 802 1298 c 0
 579 1298 430 1206 355 1021 c 0
 321 936 304 832 304 711 c 0
EndSplineSet
EndChar
StartChar: P
Encoding: 50 80 52
Width: 1366
Flags: W
HStem: 0 21G<158 338> 580 173<338 767> 1277 173<158 767>
VStem: 158 180<0 580 0 1277> 1077 200<1007 1041>
Fore
158 0 m 1
 158 1450 l 1
 711 1450 l 2
 846 1450 944 1440 1005 1421 c 0
 1044 1409 1080 1391 1115 1368 c 0
 1181 1322 1228 1255 1255 1168 c 0
 1270 1123 1277 1075 1277 1026 c 0
 1277 901 1237 796 1158 710 c 0
 1079 623 935 580 728 580 c 2
 338 580 l 1
 338 0 l 1
 158 0 l 1
338 753 m 1
 731 753 l 2
 856 753 945 776 998 823 c 0
 1051 870 1077 935 1077 1020 c 0
 1077 1107 1048 1174 990 1222 c 1
 959 1243 l 1
 943 1252 926 1259 908 1264 c 0
 875 1273 815 1277 727 1277 c 2
 338 1277 l 1
 338 753 l 1
EndSplineSet
KernsSLIFO: 37 -152 0 0 18 -264 0 0 16 -264 0 0
EndChar
StartChar: Q
Encoding: 51 81 53
Width: 1659
Flags: W
HStem: -10 177<775 820> 297 178<893 921> 1298 180<775 824>
VStem: 104 200<671 755> 1296 200<705 771>
Fore
1194 354 m 1
 1252 426 1285 532 1294 673 c 0
 1295 692 1296 712 1296 732 c 0
 1296 927 1244 1074 1139 1175 c 0
 1054 1257 941 1298 802 1298 c 0
 579 1298 430 1206 355 1021 c 0
 321 936 304 832 304 711 c 0
 304 527 356 387 460 290 c 0
 485 267 513 247 543 230 c 1
 565 314 617 379 699 424 c 0
 736 445 777 460 822 468 c 0
 846 473 870 475 895 475 c 0
 986 474 1068 449 1141 399 c 0
 1162 385 1179 370 1194 354 c 1
1317 204 m 1
 1334 185 1358 176 1390 175 c 0
 1404 175 1419 177 1435 181 c 0
 1474 190 1506 206 1533 228 c 1
 1659 90 l 1
 1585 21 1498 -14 1399 -14 c 0
 1344 -14 1292 -3 1244 20 c 0
 1207 38 1178 61 1156 88 c 1
 1077 36 993 5 904 -5 c 1
 820 -10 l 2
 800 -10 l 0
 610 -10 452 48 326 165 c 0
 211 272 140 410 114 580 c 0
 107 624 104 669 104 714 c 0
 104 949 165 1135 288 1271 c 1
 415 1407 586 1476 801 1478 c 1
 1000 1478 1162 1416 1287 1293 c 0
 1406 1176 1474 1020 1492 825 c 0
 1495 794 1496 763 1496 731 c 0
 1496 526 1457 371 1378 266 c 0
 1359 242 1339 221 1317 204 c 1
1050 226 m 1
 1010 273 963 297 908 297 c 0
 897 297 887 296 876 294 c 0
 807 281 761 243 740 181 c 0
 739 178 739 176 738 174 c 1
 755 169 776 167 803 167 c 0
 880 168 947 179 1006 202 c 0
 1024 209 1039 217 1050 226 c 1
EndSplineSet
EndChar
StartChar: R
Encoding: 52 82 54
Width: 1400
Flags: W
HStem: 0 21G<158 338 1107 1387> 580 173<338 698> 1277 173<158 767>
VStem: 158 180<0 580 0 1277> 1077 200<1007 1041>
Fore
698 580 m 1
 338 580 l 1
 338 0 l 1
 158 0 l 1
 158 1450 l 1
 711 1450 l 2
 846 1450 944 1440 1005 1421 c 0
 1044 1409 1080 1391 1115 1368 c 0
 1181 1322 1228 1255 1255 1168 c 0
 1270 1123 1277 1075 1277 1026 c 0
 1277 901 1237 796 1158 710 c 0
 1107 654 1029 616 924 596 c 1
 1387 0 l 1
 1107 0 l 1
 698 580 l 1
338 753 m 1
 731 753 l 2
 856 753 945 776 998 823 c 0
 1051 870 1077 935 1077 1020 c 0
 1077 1107 1048 1174 990 1222 c 1
 959 1243 l 1
 943 1252 926 1259 908 1264 c 0
 875 1273 815 1277 727 1277 c 2
 338 1277 l 1
 338 753 l 1
EndSplineSet
KernsSLIFO: 61 -37 0 0 59 -37 0 0 58 -37 0 0 56 -37 0 0
EndChar
StartChar: S
Encoding: 53 83 55
Width: 1366
Flags: W
HStem: -10 174<670 733> 1300 171<635 701>
VStem: 148 187<1061 1095> 1072 187<405 431>
Fore
92 502 m 1
 275 502 l 1
 294 346 373 243 512 194 c 0
 569 174 634 164 708 164 c 0
 829 164 923 191 991 245 c 0
 1045 289 1072 345 1072 413 c 0
 1072 496 1030 555 946 592 c 0
 921 603 891 613 855 622 c 1
 639 666 l 1
 486 703 377 742 310 781 c 0
 209 841 155 928 149 1041 c 0
 148 1050 148 1058 148 1067 c 0
 148 1193 200 1293 303 1367 c 0
 398 1436 519 1471 664 1471 c 0
 825 1471 957 1428 1060 1342 c 0
 1080 1325 1098 1307 1115 1287 c 1
 1146 1245 l 1
 1179 1195 1200 1139 1209 1078 c 1
 1215 1019 l 1
 1029 1019 l 1
 1018 1115 974 1189 898 1240 c 0
 837 1280 762 1300 672 1300 c 0
 531 1300 433 1267 378 1202 c 0
 349 1168 335 1127 335 1080 c 0
 335 1009 370 956 439 923 c 0
 474 906 541 887 641 865 c 0
 659 861 673 858 684 856 c 0
 843 820 951 791 1009 768 c 0
 1116 727 1187 671 1224 598 c 0
 1247 551 1259 495 1259 429 c 0
 1259 302 1209 198 1109 117 c 0
 1016 40 898 -2 755 -9 c 0
 742 -10 730 -10 717 -10 c 0
 477 -10 304 55 198 186 c 0
 131 269 95 374 92 502 c 1
EndSplineSet
EndChar
StartChar: T
Encoding: 54 84 56
Width: 1251
Flags: W
HStem: 0 21G<538 718> 1280 170<48 538 48 1210>
VStem: 538 180<0 1280>
Fore
538 0 m 1
 538 1280 l 1
 48 1280 l 1
 48 1450 l 1
 1210 1450 l 1
 1210 1280 l 1
 718 1280 l 1
 718 0 l 1
 538 0 l 1
EndSplineSet
KernsSLIFO: 93 -113 0 0 91 -113 0 0 89 -76 0 0 87 -227 0 0 86 -76 0 0 83 -227 0 0 77 -76 0 0 73 -227 0 0 71 -227 0 0 69 -227 0 0 51 -37 0 0 37 -152 0 0 31 -227 0 0 30 -227 0 0 18 -227 0 0 17 -113 0 0 16 -227 0 0
EndChar
StartChar: U
Encoding: 55 85 57
Width: 1479
Flags: W
HStem: -10 180<704 770> 1430 20G<161 341 1134 1314>
VStem: 161 180<533 1450> 1134 180<533 1450>
Fore
1134 1450 m 1
 1314 1450 l 1
 1314 567 l 2
 1314 182 1123 -10 741 -10 c 0
 391 -10 199 147 166 460 c 0
 163 494 161 530 161 567 c 2
 161 1450 l 1
 341 1450 l 1
 341 568 l 2
 341 349 432 221 614 182 c 0
 651 174 692 170 737 170 c 0
 918 170 1036 226 1091 338 c 0
 1120 395 1134 472 1134 568 c 2
 1134 1450 l 1
EndSplineSet
EndChar
StartChar: V
Encoding: 56 86 58
Width: 1366
Flags: W
HStem: 0 21G<577 776> 1430 20G<9 219 1152 1350>
Fore
577 0 m 1
 9 1450 l 1
 219 1450 l 1
 677 279 l 1
 1152 1450 l 1
 1350 1450 l 1
 776 0 l 1
 577 0 l 1
EndSplineSet
KernsSLIFO: 93 -76 0 0 89 -76 0 0 86 -76 0 0 83 -113 0 0 77 -37 0 0 73 -113 0 0 69 -152 0 0 37 -152 0 0 31 -76 0 0 30 -76 0 0 18 -188 0 0 17 -113 0 0 16 -188 0 0
EndChar
StartChar: W
Encoding: 57 87 59
Width: 1933
Flags: W
HStem: 0 21G<414 612 1310 1508> 1430 20G<25 224 834 1088 1698 1897>
Fore
414 0 m 1
 25 1450 l 1
 224 1450 l 1
 513 390 l 1
 834 1450 l 1
 1088 1450 l 1
 1409 390 l 1
 1698 1450 l 1
 1897 1450 l 1
 1508 0 l 1
 1310 0 l 1
 961 1170 l 1
 612 0 l 1
 414 0 l 1
EndSplineSet
KernsSLIFO: 93 -18 0 0 89 -37 0 0 86 -37 0 0 83 -37 0 0 73 -37 0 0 69 -76 0 0 37 -76 0 0 31 -37 0 0 30 -37 0 0 18 -113 0 0 17 -37 0 0 16 -113 0 0
EndChar
StartChar: X
Encoding: 58 88 60
Width: 1366
Flags: W
HStem: 0 21G<9 239 1123 1353> 1430 20G<76 306 1083 1313>
Fore
9 0 m 1
 564 756 l 1
 76 1450 l 1
 306 1450 l 1
 681 902 l 1
 1083 1450 l 1
 1313 1450 l 1
 798 756 l 1
 1353 0 l 1
 1123 0 l 1
 681 613 l 1
 239 0 l 1
 9 0 l 1
EndSplineSet
EndChar
StartChar: Y
Encoding: 59 89 61
Width: 1366
Flags: W
HStem: 0 21G<571 765> 1431 20G<6 236 1120 1350>
VStem: 571 194<0 621>
Fore
571 0 m 1
 571 621 l 1
 6 1451 l 1
 236 1451 l 1
 680 855 l 1
 1120 1451 l 1
 1350 1451 l 1
 765 621 l 1
 765 0 l 1
 571 0 l 1
EndSplineSet
KernsSLIFO: 90 -113 0 0 89 -113 0 0 85 -188 0 0 84 -152 0 0 83 -188 0 0 77 -76 0 0 73 -188 0 0 69 -152 0 0 37 -152 0 0 31 -133 0 0 30 -113 0 0 18 -264 0 0 17 -188 0 0 16 -264 0 0
EndChar
StartChar: Z
Encoding: 60 90 62
Width: 1251
Flags: W
HStem: 0 180<325 1200> 1270 180<45 945>
Fore
41 0 m 1
 41 187 l 1
 945 1270 l 1
 45 1270 l 1
 45 1450 l 1
 1213 1450 l 1
 1213 1270 l 1
 325 180 l 1
 1200 180 l 1
 1200 0 l 1
 41 0 l 1
EndSplineSet
EndChar
StartChar: bracketleft
Encoding: 61 91 63
Width: 569
Flags: W
HStem: -407 149<319 536> 1317 149<139 536>
VStem: 139 180<-407 1317>
Fore
139 -407 m 1
 139 1466 l 1
 536 1466 l 1
 536 1317 l 1
 319 1317 l 1
 319 -258 l 1
 536 -258 l 1
 536 -407 l 1
 139 -407 l 1
EndSplineSet
EndChar
StartChar: backslash
Encoding: 62 92 64
Width: 569
Flags: W
Fore
425 -25 m 1
 0 1491 l 1
 145 1491 l 1
 569 -25 l 1
 425 -25 l 1
EndSplineSet
EndChar
StartChar: bracketright
Encoding: 63 93 65
Width: 569
Flags: W
HStem: -407 149<39 436> 1317 149<39 256>
VStem: 256 180<-258 1466>
Fore
436 -407 m 1
 39 -407 l 1
 39 -258 l 1
 256 -258 l 1
 256 1317 l 1
 39 1317 l 1
 39 1466 l 1
 436 1466 l 1
 436 -407 l 1
EndSplineSet
EndChar
StartChar: asciicircum
Encoding: 64 94 66
Width: 961
Flags: W
Fore
239 690 m 1
 54 690 l 1
 407 1491 l 1
 552 1491 l 1
 907 690 l 1
 726 690 l 1
 479 1287 l 1
 239 690 l 1
EndSplineSet
EndChar
StartChar: underscore
Encoding: 65 95 67
Width: 1139
Flags: W
HStem: -407 130<-31 1162>
Fore
-31 -407 m 1
 -31 -277 l 1
 1162 -277 l 1
 1162 -407 l 1
 -31 -407 l 1
EndSplineSet
EndChar
StartChar: grave
Encoding: 66 96 68
Width: 682
Flags: W
HStem: 1194 280<89 465>
Fore
465 1194 m 1
 320 1194 l 1
 89 1474 l 1
 330 1474 l 1
 465 1194 l 1
EndSplineSet
EndChar
StartChar: a
Encoding: 67 97 69
Width: 1139
Flags: W
HStem: -24 141<437 480> 937 149<553 586>
VStem: 74 192<278 297> 813 182<427 533 674 745>
Fore
828 131 m 1
 761 74 697 34 636 11 c 0
 574 -12 508 -24 437 -24 c 0
 320 -24 231 5 168 62 c 0
 105 119 74 191 74 280 c 0
 74 332 86 379 110 422 c 0
 133 465 164 500 202 526 c 0
 241 552 284 572 332 585 c 0
 367 594 421 603 492 612 c 0
 637 629 744 650 813 674 c 1
 814 699 814 714 814 721 c 0
 814 794 797 846 763 876 c 0
 717 917 649 937 558 937 c 0
 473 937 411 922 370 892 c 0
 330 863 300 810 281 735 c 1
 105 759 l 1
 121 834 147 895 184 942 c 0
 221 988 274 1023 343 1048 c 0
 412 1073 493 1086 584 1086 c 0
 675 1086 748 1075 805 1054 c 0
 862 1033 903 1006 930 974 c 0
 957 941 975 900 986 851 c 0
 992 820 995 765 995 685 c 2
 995 445 l 2
 995 278 999 172 1006 128 c 0
 1014 83 1029 41 1052 0 c 1
 864 0 l 1
 845 37 833 81 828 131 c 1
813 533 m 1
 748 506 650 484 519 465 c 0
 445 454 393 442 362 429 c 0
 331 416 308 396 291 370 c 0
 274 345 266 316 266 285 c 0
 266 237 284 197 320 165 c 0
 357 133 410 117 480 117 c 0
 549 117 611 132 665 162 c 0
 719 193 759 234 784 287 c 0
 803 328 813 388 813 467 c 2
 813 533 l 1
EndSplineSet
EndChar
StartChar: b
Encoding: 68 98 70
Width: 1139
Flags: W
HStem: -10 159<565 605> 921 165<579 615> 1446 20G<134 314>
VStem: 134 178<0 567 0 1466> 883 172<517 567>
Fore
301 0 m 1
 134 0 l 1
 134 1466 l 1
 314 1466 l 1
 314 943 l 1
 390 1038 487 1086 605 1086 c 0
 747 1086 859 1032 942 924 c 0
 1017 825 1055 699 1055 547 c 0
 1055 372 1010 233 921 131 c 0
 839 37 731 -10 596 -10 c 0
 490 -10 403 21 334 84 c 0
 322 95 311 106 301 119 c 1
 301 0 l 1
312 539 m 0
 312 385 350 274 427 206 c 0
 470 168 522 149 581 149 c 0
 686 150 765 193 820 278 c 0
 862 345 883 429 883 532 c 0
 883 681 845 790 768 857 c 0
 720 900 660 921 589 921 c 0
 517 921 455 889 402 824 c 0
 342 750 312 655 312 539 c 0
EndSplineSet
EndChar
StartChar: c
Encoding: 69 99 71
Width: 1024
Flags: W
HStem: -10 170<543 577> 916 170<543 593>
VStem: 80 185<501 567>
Fore
828 403 m 1
 1005 403 l 1
 1000 244 941 129 829 58 c 0
 757 13 668 -10 563 -10 c 0
 437 -10 330 31 241 113 c 0
 143 205 90 329 81 485 c 0
 80 499 80 513 80 527 c 0
 80 714 129 858 228 958 c 0
 313 1043 425 1086 564 1086 c 0
 729 1086 850 1036 925 936 c 0
 969 878 995 806 1002 719 c 0
 1003 712 1003 704 1003 696 c 1
 828 696 l 1
 821 765 789 821 732 864 c 0
 685 899 632 916 571 916 c 0
 381 916 279 805 266 583 c 1
 265 532 l 1
 265 385 306 280 388 216 c 0
 435 179 493 160 561 160 c 0
 690 161 773 207 810 300 c 0
 821 330 827 364 828 403 c 1
EndSplineSet
EndChar
StartChar: d
Encoding: 70 100 72
Width: 1139
Flags: W
HStem: -10 154<518 551> 917 169<517 551> 1446 20G<812 991>
VStem: 70 185<511 567> 824 167<0 1466>
Fore
824 0 m 1
 824 122 l 1
 764 34 665 -10 527 -10 c 0
 390 -10 280 41 196 142 c 0
 116 238 74 361 70 511 c 0
 70 521 70 521 70 530 c 0
 70 697 110 831 191 933 c 0
 272 1035 381 1086 519 1086 c 0
 648 1086 744 1046 807 965 c 2
 812 958 l 1
 812 1466 l 1
 991 1466 l 1
 991 0 l 1
 824 0 l 1
255 530 m 0
 255 378 294 269 372 203 c 0
 419 164 476 144 544 144 c 0
 603 144 659 171 710 224 c 0
 777 293 812 384 817 496 c 0
 817 505 817 505 817 515 c 0
 817 656 783 764 716 838 c 0
 669 891 611 917 544 917 c 0
 423 917 340 861 293 750 c 0
 268 690 255 617 255 530 c 0
EndSplineSet
EndChar
StartChar: e
Encoding: 71 101 73
Width: 1139
Flags: W
HStem: -10 162<554 604> 485 164<271 1053> 914 172<554 604>
VStem: 75 192<483 522>
Fore
862 333 m 1
 1048 333 l 1
 1025 214 963 123 863 62 c 0
 797 21 720 -2 631 -8 c 0
 614 -9 598 -10 581 -10 c 0
 394 -10 256 52 169 177 c 0
 106 266 75 381 75 522 c 0
 75 705 124 848 222 949 c 0
 309 1040 426 1086 571 1086 c 0
 738 1086 864 1026 949 906 c 0
 1018 808 1053 679 1054 520 c 0
 1054 508 1054 496 1053 485 c 1
 267 485 l 1
 271 312 338 206 467 167 c 0
 502 157 540 152 582 152 c 0
 722 152 813 205 854 311 c 0
 862 333 l 1
271 649 m 1
 862 649 l 1
 849 790 784 875 665 904 c 0
 637 911 606 914 573 914 c 0
 490 914 420 889 362 839 c 0
 307 790 276 727 271 649 c 1
EndSplineSet
EndChar
StartChar: f
Encoding: 72 102 74
Width: 569
Flags: W
HStem: 0 21G<178 357> 785 140<19 178 357 536> 1343 172<487 516>
VStem: 178 179<0 785 925 1185>
Fore
178 0 m 1
 178 785 l 1
 19 785 l 1
 19 925 l 1
 178 925 l 1
 178 1175 l 2
 178 1318 226 1418 322 1474 c 0
 369 1501 424 1515 487 1515 c 0
 538 1515 589 1506 640 1488 c 1
 640 1316 l 1
 585 1334 539 1343 501 1343 c 0
 478 1344 458 1341 441 1334 c 0
 385 1312 357 1254 357 1160 c 2
 357 925 l 1
 536 925 l 1
 536 785 l 1
 357 785 l 1
 357 0 l 1
 178 0 l 1
EndSplineSet
KernsSLIFO: 74 -37 0 0
EndChar
StartChar: g
Encoding: 73 103 75
Width: 1139
Flags: W
HStem: -435 167<521 552.727> 0 175<513 547> 917 169<513 563>
VStem: 66 185<508 574> 819 183<92 144>
Fore
102 -74 m 1
 277 -74 l 1
 280 -115 l 1
 293 -186 341 -233 423 -256 c 0
 453 -264 486 -268 521 -268 c 0
 642 -268 724 -227 768 -146 c 0
 802 -84 819 9 819 134 c 0
 819 136 819 136 819 139 c 1
 740 46 642 0 525 0 c 0
 379 0 264 54 180 163 c 0
 104 261 66 386 66 537 c 0
 66 695 105 824 184 925 c 0
 267 1032 381 1086 526 1086 c 0
 667 1086 770 1049 836 974 c 1
 836 1062 l 1
 1002 1062 l 1
 1002 144 l 2
 1002 -65 967 -214 898 -301 c 0
 855 -355 795 -392 717 -413 c 0
 664 -428 599 -435 522 -435 c 1
 454 -431 l 1
 329 -418 234 -370 171 -287 c 0
 126 -228 103 -157 102 -74 c 1
251 550 m 0
 251 333 325 210 473 181 c 0
 494 177 517 175 542 175 c 0
 729 175 822 298 822 544 c 0
 822 711 776 823 683 880 c 0
 643 905 595 917 539 917 c 0
 428 917 347 869 298 774 c 0
 267 714 251 639 251 550 c 0
EndSplineSet
EndChar
StartChar: h
Encoding: 74 104 76
Width: 1139
Flags: W
HStem: 0 21G<135 315 820 1000> 882 213<582 616> 1446 20G<135 315>
VStem: 135 180<0 561 0 1466> 820 180<0 673>
Fore
135 0 m 1
 135 1466 l 1
 315 1466 l 1
 315 970 l 1
 358 1026 420 1064 501 1083 c 0
 533 1091 566 1095 600 1095 c 0
 751 1095 862 1042 931 935 c 0
 977 864 1000 777 1000 673 c 2
 1000 0 l 1
 820 0 l 1
 820 624 l 2
 820 796 745 882 596 882 c 0
 459 882 371 817 334 687 c 0
 321 642 315 591 315 532 c 2
 315 0 l 1
 135 0 l 1
EndSplineSet
EndChar
StartChar: i
Encoding: 75 105 77
Width: 455
Flags: W
HStem: 0 21G<136 316> 1042 20G<136 316> 1446 20G<136 316>
VStem: 136 180<0 1062 1259 1466>
Fore
136 1259 m 1
 136 1466 l 1
 316 1466 l 1
 316 1259 l 1
 136 1259 l 1
136 0 m 1
 136 1062 l 1
 316 1062 l 1
 316 0 l 1
 136 0 l 1
EndSplineSet
EndChar
StartChar: j
Encoding: 76 106 78
Width: 455
Flags: W
HStem: -428 161<-7 39> 1042 20G<134 314> 1446 20G<134 314>
VStem: 134 180<-93 1061 1257 1466>
Fore
134 1257 m 1
 134 1466 l 1
 314 1466 l 1
 314 1257 l 1
 134 1257 l 1
-94 -412 m 1
 -94 -259 l 1
 -59 -264 -30 -267 -7 -267 c 0
 52 -267 92 -247 111 -206 c 0
 126 -174 134 -123 134 -54 c 2
 134 1062 l 1
 314 1062 l 1
 314 -58 l 2
 314 -246 263 -362 160 -406 c 0
 125 -421 85 -428 39 -428 c 0
 -1 -428 -45 -423 -94 -412 c 1
EndSplineSet
EndChar
StartChar: k
Encoding: 77 107 79
Width: 1024
Flags: W
HStem: 0 21G<136 316 794 1016> 1042 20G<742 975> 1446 20G<136 316>
VStem: 136 180<0 421 0 1466>
Fore
136 0 m 1
 136 1466 l 1
 316 1466 l 1
 316 630 l 1
 742 1062 l 1
 975 1062 l 1
 569 668 l 1
 1016 0 l 1
 794 0 l 1
 443 543 l 1
 316 421 l 1
 316 0 l 1
 136 0 l 1
EndSplineSet
EndChar
StartChar: l
Encoding: 78 108 80
Width: 455
Flags: W
HStem: 0 21G<131 311> 1446 20G<131 311>
VStem: 131 180<0 1466>
Fore
131 0 m 1
 131 1466 l 1
 311 1466 l 1
 311 0 l 1
 131 0 l 1
EndSplineSet
EndChar
StartChar: m
Encoding: 79 109 81
Width: 1706
Flags: W
HStem: 0 21G<135 315 766 946 1395 1574> 930 156<578 618 1206 1246>
VStem: 135 161<0 1062> 135 180<0 593> 766 180<0 641> 1395 179<0 729>
Fore
135 0 m 1xec
 135 1062 l 1
 296 1062 l 1
 296 913 l 1xec
 329 965 374 1007 429 1038 c 0
 484 1070 547 1086 618 1086 c 0
 697 1086 761 1070 812 1037 c 0
 862 1004 897 959 918 900 c 1
 1002 1024 1111 1086 1246 1086 c 0
 1351 1086 1432 1057 1489 998 c 0
 1546 940 1574 850 1574 729 c 2
 1574 0 l 1
 1395 0 l 1
 1395 669 l 2
 1395 741 1389 793 1378 824 c 0
 1366 856 1345 882 1314 901 c 0
 1283 920 1247 930 1206 930 c 0
 1131 930 1069 905 1020 856 c 0
 971 806 946 726 946 617 c 2
 946 0 l 1
 766 0 l 1
 766 690 l 2
 766 770 751 830 722 870 c 0
 693 910 645 930 578 930 c 0
 527 930 481 917 438 890 c 0
 395 863 363 824 344 773 c 0
 325 722 315 648 315 551 c 2
 315 0 l 1xdc
 135 0 l 1xec
EndSplineSet
EndChar
StartChar: n
Encoding: 80 110 82
Width: 1139
Flags: W
HStem: 0 21G<135 315 820 1000> 882 213<582 616>
VStem: 135 180<0 561 0 1064> 820 180<0 673>
Fore
135 0 m 1
 135 1064 l 1
 315 1064 l 1
 315 970 l 1
 358 1026 420 1064 501 1083 c 0
 533 1091 566 1095 600 1095 c 0
 751 1095 862 1042 931 935 c 0
 977 864 1000 777 1000 673 c 2
 1000 0 l 1
 820 0 l 1
 820 624 l 2
 820 796 745 882 596 882 c 0
 459 882 371 817 334 687 c 0
 321 642 315 591 315 532 c 2
 315 0 l 1
 135 0 l 1
EndSplineSet
EndChar
StartChar: o
Encoding: 81 111 83
Width: 1139
Flags: W
HStem: -11 158<566 581> 928 158<566 581>
VStem: 68 185<531 566> 878 185<500 566>
Fore
68 531 m 0
 68 721 121 865 226 964 c 0
 313 1045 426 1086 566 1086 c 0
 722 1086 845 1035 935 932 c 0
 1020 835 1063 706 1063 546 c 0
 1063 305 988 141 839 54 c 0
 764 11 673 -11 566 -11 c 0
 387 -11 253 50 166 171 c 0
 101 263 68 383 68 531 c 0
253 531 m 0
 253 357 305 241 408 184 c 0
 453 159 505 147 566 147 c 0
 703 147 795 208 844 329 c 0
 867 386 878 456 878 537 c 0
 878 686 838 794 758 862 c 0
 707 906 643 928 566 928 c 0
 443 928 354 875 301 770 c 0
 269 706 253 626 253 531 c 0
EndSplineSet
EndChar
StartChar: p
Encoding: 82 112 84
Width: 1139
Flags: W
HStem: -10 165<567 603> 927 159<553 593>
VStem: 122 167<-390 1076> 122 180<-390 133 -390 571> 871 172<505 571>
Fore
289 957 m 1xe8
 299 970 310 981 322 992 c 0
 391 1055 478 1086 584 1086 c 0
 719 1086 827 1039 909 945 c 0
 998 843 1043 704 1043 529 c 0
 1043 377 1005 251 930 152 c 0
 847 44 735 -10 593 -10 c 0
 475 -10 378 38 302 133 c 1
 302 -390 l 1xd8
 122 -390 l 1
 122 1076 l 1
 289 1076 l 1
 289 957 l 1xe8
300 537 m 0
 300 421 330 326 390 252 c 0
 443 187 505 155 577 155 c 0
 648 155 708 176 756 219 c 0
 833 286 871 395 871 544 c 0
 871 561 870 578 869 595 c 0
 864 655 852 708 831 755 c 1
 808 798 l 1
 753 883 674 926 569 927 c 0
 510 927 458 908 415 870 c 0
 338 802 300 691 300 537 c 0
EndSplineSet
EndChar
StartChar: q
Encoding: 83 113 85
Width: 1139
Flags: W
HStem: -10 165<534 563> 927 159<536 568>
VStem: 87 172<505 571> 828 180<-390 1076>
Fore
841 1076 m 1
 1008 1076 l 1
 1008 -390 l 1
 828 -390 l 1
 828 133 l 1
 752 38 655 -10 537 -10 c 0
 395 -10 283 44 200 152 c 0
 125 251 87 377 87 529 c 0
 87 704 132 843 221 945 c 0
 303 1039 411 1086 546 1086 c 0
 652 1086 739 1055 808 992 c 0
 820 981 831 970 841 957 c 1
 841 1076 l 1
830 537 m 0
 830 691 792 802 715 870 c 0
 672 908 620 927 561 927 c 0
 456 926 377 883 322 798 c 1
 299 755 l 1
 278 708 266 655 261 595 c 0
 260 578 259 561 259 544 c 0
 259 395 297 286 374 219 c 0
 422 176 482 155 553 155 c 0
 625 155 687 187 740 252 c 0
 800 326 830 421 830 537 c 0
EndSplineSet
EndChar
StartChar: r
Encoding: 84 114 86
Width: 682
Flags: W
HStem: 0 21G<133 313> 900 177<516 535>
VStem: 133 162<0 1062> 133 180<0 593>
Fore
133 0 m 1xe0
 133 1062 l 1
 295 1062 l 1
 295 947 l 1xe0
 318 992 359 1027 416 1052 c 0
 423 1055 432 1058 441 1062 c 0
 467 1072 498 1077 533 1077 c 0
 598 1077 657 1061 710 1028 c 1
 648 861 l 1
 604 887 561 900 518 900 c 0
 495 900 474 896 454 889 c 0
 439 883 424 875 410 864 c 0
 345 815 313 713 313 556 c 2
 313 0 l 1xd0
 133 0 l 1xe0
EndSplineSet
KernsSLIFO: 18 -113 0 0 16 -113 0 0
EndChar
StartChar: s
Encoding: 85 115 87
Width: 1024
Flags: W
HStem: -11 162<482 544> 925 161<478 497>
VStem: 760 185<304 325>
Fore
63 358 m 1
 241 358 l 1
 257 243 323 176 438 157 c 0
 462 153 488 151 516 151 c 0
 601 151 667 172 715 214 c 0
 745 241 760 271 760 306 c 0
 759 364 724 406 655 431 c 0
 627 442 583 452 523 463 c 0
 400 486 319 505 279 520 c 0
 214 544 165 583 132 638 c 0
 106 681 93 728 93 780 c 0
 93 884 138 964 229 1021 c 0
 300 1064 385 1086 484 1086 c 0
 650 1086 768 1040 839 949 c 0
 876 902 897 846 904 779 c 0
 905 774 905 769 905 764 c 1
 729 764 l 1
 714 863 649 916 533 924 c 1
 497 925 l 2
 406 925 341 902 304 856 c 1
 289 833 l 1
 281 807 l 1
 279 778 l 1
 280 765 284 751 289 738 c 0
 301 709 332 687 381 673 c 0
 402 667 448 657 517 644 c 0
 644 620 732 597 782 575 c 0
 868 538 920 479 937 400 c 0
 942 377 945 352 945 325 c 0
 945 220 900 136 811 73 c 0
 732 17 634 -11 517 -11 c 0
 346 -11 221 39 142 138 c 0
 95 197 69 271 63 358 c 1
EndSplineSet
EndChar
StartChar: t
Encoding: 86 116 88
Width: 569
Flags: W
HStem: -13 166<411 449> 922 140<18 168 347 497>
VStem: 168 179<258 922 1062 1433>
Fore
528 161 m 1
 554 2 l 1
 506 -8 458 -13 411 -13 c 0
 345 -13 297 -3 266 17 c 0
 225 44 197 82 184 130 c 0
 173 170 168 230 168 311 c 2
 168 922 l 1
 18 922 l 1
 18 1062 l 1
 168 1062 l 1
 168 1433 l 1
 347 1433 l 1
 347 1062 l 1
 497 1062 l 1
 497 922 l 1
 347 922 l 1
 347 301 l 2
 347 245 351 209 359 194 c 0
 365 184 375 175 388 167 c 0
 403 158 423 153 449 153 c 0
 466 153 492 156 528 161 c 1
EndSplineSet
EndChar
StartChar: u
Encoding: 87 117 89
Width: 1139
Flags: W
HStem: -10 211<537 548> 1065 20G<104 284 789 969>
VStem: 104 180<412 1085> 789 180<0 1085>
Fore
969 1085 m 1
 969 0 l 1
 789 0 l 1
 789 64 l 1
 746 17 666 -7 548 -10 c 0
 542 -10 542 -10 537 -10 c 2
 467 -7 l 1
 323 8 220 71 159 181 c 0
 122 246 104 323 104 412 c 2
 104 1085 l 1
 284 1085 l 1
 284 461 l 2
 284 350 323 273 401 231 c 0
 438 211 483 201 534 201 c 0
 704 201 789 286 789 456 c 2
 789 1085 l 1
 969 1085 l 1
EndSplineSet
EndChar
StartChar: v
Encoding: 88 118 90
Width: 1024
Flags: W
HStem: 0 21G<429 599> 1042 20G<26 216 810 1000>
Fore
429 0 m 1
 26 1062 l 1
 216 1062 l 1
 520 269 l 1
 810 1062 l 1
 1000 1062 l 1
 599 0 l 1
 429 0 l 1
EndSplineSet
KernsSLIFO: 18 -152 0 0 16 -152 0 0
EndChar
StartChar: w
Encoding: 89 119 91
Width: 1479
Flags: W
HStem: 0 21G<331 519 975 1163> 1042 20G<6 192 648 832 1288 1463>
Fore
331 0 m 1
 6 1062 l 1
 192 1062 l 1
 424 246 l 1
 648 1062 l 1
 832 1062 l 1
 1069 246 l 1
 1288 1062 l 1
 1463 1062 l 1
 1163 0 l 1
 975 0 l 1
 901 265 l 1
 798 623 744 807 740 817 c 1
 519 0 l 1
 331 0 l 1
EndSplineSet
KernsSLIFO: 18 -113 0 0 16 -113 0 0
EndChar
StartChar: x
Encoding: 90 120 92
Width: 1024
Flags: W
HStem: 0 21G<15 233 788 1009> 1042 20G<44 269 766 981>
Fore
15 0 m 1
 396 552 l 1
 44 1062 l 1
 269 1062 l 1
 499 694 l 1
 766 1062 l 1
 981 1062 l 1
 607 562 l 1
 1009 0 l 1
 788 0 l 1
 505 419 l 1
 233 0 l 1
 15 0 l 1
EndSplineSet
EndChar
StartChar: y
Encoding: 91 121 93
Width: 1024
Flags: W
HStem: -422 168<185 239> 1042 20G<33 227 826 1006>
Fore
127 -409 m 1
 107 -240 l 1
 141 -249 177 -254 214 -254 c 0
 261 -254 299 -246 327 -231 c 0
 367 -209 395 -181 410 -146 c 0
 425 -112 433 -64 436 -2 c 1
 33 1062 l 1
 227 1062 l 1
 525 201 l 1
 826 1062 l 1
 1006 1062 l 1
 602 -1 l 1
 587 -145 556 -245 511 -302 c 0
 488 -331 458 -355 420 -375 c 0
 367 -402 307 -418 239 -422 c 1
 185 -421 l 1
 164 -419 144 -415 127 -409 c 1
EndSplineSet
KernsSLIFO: 18 -152 0 0 16 -152 0 0
EndChar
StartChar: z
Encoding: 92 122 94
Width: 1024
Flags: W
HStem: 0 155<262 980> 916 146<60 716>
Fore
40 0 m 1
 40 155 l 1
 716 916 l 1
 60 916 l 1
 60 1062 l 1
 948 1062 l 1
 948 916 l 1
 262 155 l 1
 980 155 l 1
 980 0 l 1
 40 0 l 1
EndSplineSet
EndChar
StartChar: braceleft
Encoding: 93 123 95
Width: 684
Flags: W
HStem: -431 157<578 636> 449 163<57 76.1128> 1334 157<578 636>
VStem: 264 169<-53.9744 98 944.996 1074>
Fore
57 612 m 1
 108 613 150 627 182 654 c 0
 215 680 236 716 247 762 c 0
 258 808 263 887 264 998 c 0
 265 1109 267 1183 270 1218 c 0
 276 1274 287 1319 304 1353 c 0
 320 1387 340 1414 364 1434 c 0
 388 1455 419 1470 456 1481 c 0
 481 1488 523 1491 580 1491 c 2
 636 1491 l 1
 636 1334 l 1
 605 1334 l 2
 536 1334 490 1321 467 1296 c 0
 444 1271 433 1216 433 1129 c 0
 433 954 429 844 422 798 c 0
 410 727 390 672 360 633 c 128
 332 594 286 560 224 530 c 1
 297 499 351 453 384 390 c 0
 417 327 433 223 433 80 c 0
 433 -50 434 -127 437 -152 c 0
 442 -197 456 -229 478 -247 c 0
 499 -265 542 -274 605 -274 c 2
 636 -274 l 1
 636 -431 l 1
 580 -431 l 2
 515 -431 467 -426 438 -415 c 0
 395 -400 360 -375 332 -340 c 0
 304 -306 286 -263 278 -210 c 0
 269 -157 265 -71 264 49 c 0
 263 169 258 252 247 298 c 0
 236 344 215 380 182 407 c 0
 150 434 108 448 57 449 c 1
 57 612 l 1
EndSplineSet
EndChar
StartChar: bar
Encoding: 94 124 96
Width: 532
Flags: W
VStem: 188 157<-431 1491>
Fore
188 -431 m 1
 188 1491 l 1
 345 1491 l 1
 345 -431 l 1
 188 -431 l 1
EndSplineSet
EndChar
StartChar: braceright
Encoding: 95 125 97
Width: 684
Flags: W
VStem: 250 169<-68 66 922.842 1074>
Fore
626 612 m 1
 626 449 l 1
 575 448 533 434 500 407 c 0
 468 380 447 344 436 298 c 0
 425 253 420 174 419 63 c 0
 418 -48 416 -122 413 -157 c 0
 407 -214 396 -259 380 -292 c 0
 363 -326 343 -353 319 -374 c 0
 295 -394 264 -409 227 -420 c 0
 202 -427 160 -431 103 -431 c 2
 47 -431 l 1
 47 -274 l 1
 78 -274 l 2
 147 -274 193 -261 216 -236 c 0
 239 -211 250 -155 250 -68 c 0
 250 99 253 204 259 249 c 0
 270 323 291 382 323 426 c 0
 355 471 400 505 459 530 c 1
 382 567 328 615 297 676 c 0
 266 736 250 838 250 981 c 0
 250 1111 248 1189 245 1214 c 0
 240 1259 227 1290 206 1308 c 0
 184 1325 141 1334 78 1334 c 2
 47 1334 l 1
 47 1491 l 1
 103 1491 l 2
 168 1491 216 1486 245 1475 c 0
 288 1460 323 1436 351 1401 c 0
 379 1366 397 1323 406 1270 c 0
 414 1217 418 1131 419 1011 c 0
 420 891 425 808 436 762 c 0
 447 717 468 681 500 654 c 0
 533 627 575 613 626 612 c 1
EndSplineSet
EndChar
StartChar: asciitilde
Encoding: 96 126 98
Width: 1196
Flags: W
Fore
87 557 m 1
 87 762 l 1
 158 842 250 882 365 882 c 0
 405 882 447 876 491 864 c 0
 535 853 598 830 679 795 c 0
 725 776 759 763 782 757 c 0
 805 751 829 748 852 748 c 0
 895 748 940 761 986 787 c 0
 1033 813 1074 846 1110 885 c 1
 1110 673 l 1
 1067 633 1024 604 980 586 c 0
 937 568 888 559 833 559 c 0
 793 559 755 564 718 573 c 0
 682 582 625 605 546 640 c 0
 467 675 401 693 348 693 c 0
 305 693 265 684 228 666 c 0
 190 647 143 611 87 557 c 1
EndSplineSet
EndChar
StartChar: exclamdown
Encoding: 98 161 100
Width: 680
Flags: W
HStem: 0 21G<228 452> 1059 20G<256 422>
VStem: 238 204<1278 1489>
Fore
442 1278 m 1
 238 1278 l 1
 238 1489 l 1
 442 1489 l 1
 442 1278 l 1
452 0 m 1
 228 0 l 1
 256 1079 l 1
 422 1079 l 1
 452 0 l 1
EndSplineSet
EndChar
StartChar: cent
Encoding: 99 162 101
Width: 1118
Flags: W
HStem: 1455 20G<557 671>
VStem: 114 193<557 600> 557 114<-361 1 146 977 1115 1475>
Fore
557 2 m 1
 414 19 304 75 228 171 c 128
 152 267 114 396 114 557 c 0
 114 716 153 844 232 943 c 128
 311 1042 419 1099 557 1115 c 1
 557 1475 l 1
 671 1475 l 1
 671 1116 l 1
 729 1114 785 1105 838 1090 c 128
 892 1074 938 1056 975 1037 c 1
 975 837 l 1
 965 837 l 1
 924 871 880 901 833 926 c 128
 786 951 732 968 671 977 c 1
 671 141 l 1
 704 144 736 152 770 164 c 128
 802 176 830 189 853 202 c 0
 877 216 898 230 917 244 c 128
 936 257 952 270 965 281 c 1
 975 281 l 1
 975 83 l 1
 932 63 886 45 840 30 c 128
 792 14 736 4 671 1 c 1
 671 -361 l 1
 557 -361 l 1
 557 2 l 1
557 146 m 1
 557 971 l 1
 480 957 419 915 374 846 c 128
 329 776 307 680 307 557 c 0
 307 432 330 335 376 268 c 128
 421 200 482 159 557 146 c 1
EndSplineSet
EndChar
StartChar: sterling
Encoding: 100 163 102
Width: 1118
Flags: W
HStem: 0 171<261 1031> 613 138<130 291 483 847> 1351 167<706 746>
VStem: 89 172<0 182> 130 353<613 613 613 1052> 291 192<613 613 751 1089>
Fore
1031 0 m 1xf4
 89 0 l 1
 89 207 l 1
 163 229 215 272 246 335 c 128
 276 398 291 491 291 613 c 1xf4
 130 613 l 1
 130 751 l 1xe8
 291 751 l 1
 291 1071 l 2xe4
 291 1205 330 1313 407 1395 c 128
 484 1477 585 1518 708 1518 c 0
 773 1518 828 1513 874 1502 c 128
 920 1492 962 1481 1001 1470 c 1
 1001 1264 l 1
 991 1264 l 1
 952 1291 909 1313 862 1328 c 128
 815 1343 770 1351 727 1351 c 0
 645 1351 584 1325 544 1274 c 128
 503 1223 483 1149 483 1052 c 2
 483 751 l 1
 847 751 l 1
 847 613 l 1
 483 613 l 1xe8
 483 552 l 2
 483 474 464 403 424 340 c 128
 386 276 331 223 261 182 c 1
 261 171 l 1
 1031 171 l 1
 1031 0 l 1xf4
EndSplineSet
EndChar
StartChar: currency
Encoding: 101 164 103
Width: 1118
Flags: W
HStem: 326 138<560 578> 858 138<560 578>
VStem: 225 143<661 677> 752 144<661 677>
Fore
1057 272 m 1
 951 166 l 1
 737 378 l 1
 707 360 679 347 653 338 c 128
 627 330 596 326 560 326 c 0
 529 326 498 331 468 341 c 128
 436 351 409 364 385 379 c 1
 170 164 l 1
 65 273 l 1
 277 486 l 1
 260 513 248 542 238 572 c 128
 230 604 225 633 225 661 c 0
 225 690 230 720 238 750 c 128
 248 779 261 808 278 835 c 1
 65 1051 l 1
 172 1157 l 1
 386 944 l 1
 411 960 438 973 469 982 c 128
 500 991 530 996 560 996 c 0
 595 996 627 991 658 980 c 128
 688 970 714 958 736 945 c 1
 948 1157 l 1
 1057 1052 l 1
 843 836 l 1
 861 807 874 780 883 753 c 128
 892 726 896 696 896 661 c 0
 896 631 891 600 882 570 c 128
 872 538 859 511 843 486 c 1
 1057 272 l 1
752 661 m 0
 752 714 733 760 696 800 c 128
 658 838 613 858 560 858 c 0
 509 858 464 839 426 800 c 128
 387 762 368 716 368 661 c 0
 368 608 387 562 424 522 c 128
 462 484 507 464 560 464 c 0
 611 464 656 483 694 522 c 128
 733 560 752 606 752 661 c 0
EndSplineSet
EndChar
StartChar: yen
Encoding: 102 165 104
Width: 1118
Flags: W
HStem: 0 21G<465 653> 440 138<125 465 651 993>
VStem: 465 188<0 440 578 678>
Fore
1059 1489 m 1
 651 678 l 1
 651 578 l 1
 993 578 l 1
 993 440 l 1
 653 440 l 1
 653 0 l 1
 465 0 l 1
 465 440 l 1
 125 440 l 1
 125 578 l 1
 467 578 l 1
 467 657 l 1
 56 1489 l 1
 266 1489 l 1
 560 850 l 1
 858 1489 l 1
 1059 1489 l 1
EndSplineSet
EndChar
StartChar: brokenbar
Encoding: 103 166 105
Width: 783
Flags: W
VStem: 308 167<-392 406 758 1556>
Fore
475 758 m 1
 308 758 l 1
 308 1556 l 1
 475 1556 l 1
 475 758 l 1
475 -392 m 1
 308 -392 l 1
 308 406 l 1
 475 406 l 1
 475 -392 l 1
EndSplineSet
EndChar
StartChar: section
Encoding: 104 167 106
Width: 1118
Flags: W
HStem: -385 165<470 522> 1355 164<592 632>
VStem: 119 189<533 579> 148 192<1147 1176> 776 193<-36 -10> 810 188<555 601>
Fore
759 401 m 0xe4
 775 424 788 447 796 468 c 128
 806 490 810 519 810 555 c 0
 810 588 805 616 796 640 c 128
 786 664 773 684 756 699 c 0
 740 714 721 727 700 738 c 128
 679 748 654 757 626 766 c 0
 593 776 593 776 549 788 c 128
 520 797 487 807 450 819 c 1
 437 811 423 801 408 789 c 128
 394 777 378 760 361 738 c 0
 348 721 336 697 324 668 c 128
 314 639 308 609 308 579 c 0
 308 525 321 482 346 450 c 128
 371 418 420 391 492 369 c 0
 526 359 526 359 570 346 c 128
 613 332 613 332 667 315 c 1
 680 323 694 334 711 348 c 128
 728 362 744 380 759 401 c 0xe4
182 -133 m 1
 199 -142 221 -151 246 -162 c 128
 272 -173 297 -182 321 -190 c 0
 352 -200 381 -208 408 -212 c 128
 435 -218 468 -220 509 -220 c 0
 585 -220 648 -204 700 -174 c 128
 750 -142 776 -97 776 -36 c 0
 776 0 770 29 758 52 c 128
 745 74 725 94 698 111 c 0
 670 128 636 142 594 154 c 128
 533 171 533 171 460 192 c 0
 401 209 352 226 314 243 c 128
 274 260 239 283 208 312 c 0
 178 339 156 371 141 407 c 128
 126 443 119 485 119 533 c 0xe8
 119 596 135 655 168 712 c 128
 201 768 251 817 318 858 c 1
 318 865 l 1
 257 898 214 939 188 986 c 128
 161 1033 148 1087 148 1147 c 0
 148 1259 191 1349 276 1417 c 128
 361 1485 479 1519 628 1519 c 0
 685 1519 737 1515 785 1506 c 128
 833 1497 887 1483 946 1462 c 1
 946 1268 l 1
 936 1268 l 1
 876 1298 820 1320 768 1334 c 128
 717 1348 663 1355 607 1355 c 0
 532 1355 469 1340 418 1310 c 128
 366 1279 340 1235 340 1176 c 0
 340 1138 347 1107 360 1083 c 128
 374 1059 394 1039 420 1024 c 0
 446 1008 479 994 520 981 c 128
 560 968 606 955 657 942 c 0
 780 909 867 866 920 814 c 128
 972 761 998 690 998 601 c 0xd4
 998 529 980 466 944 412 c 128
 907 358 859 313 799 277 c 1
 799 270 l 1
 857 239 900 201 928 154 c 128
 955 107 969 53 969 -10 c 0xc8
 969 -59 958 -108 938 -155 c 128
 916 -202 887 -242 848 -274 c 0
 807 -309 757 -337 700 -356 c 128
 642 -375 572 -385 490 -385 c 0
 437 -385 385 -380 333 -371 c 128
 281 -362 227 -347 172 -327 c 1
 172 -133 l 1
 182 -133 l 1
EndSplineSet
EndChar
StartChar: dieresis
Encoding: 105 168 107
Width: 1118
Flags: W
HStem: 1304 195<253 454 666 867>
Fore
867 1304 m 1
 666 1304 l 1
 666 1499 l 1
 867 1499 l 1
 867 1304 l 1
454 1304 m 1
 253 1304 l 1
 253 1499 l 1
 454 1499 l 1
 454 1304 l 1
EndSplineSet
EndChar
StartChar: copyright
Encoding: 106 169 108
Width: 1902
Flags: W
HStem: -210 110<917 988> 180 147<965 999> 996 147<965 999> 1409 110<917 988>
VStem: 86 117<655 687> 531 185<660 687> 1701 115<655 687>
Fore
1816 655 m 0
 1816 416 1732 212 1562 44 c 128
 1394 -126 1190 -210 951 -210 c 128
 712 -210 508 -126 340 44 c 128
 170 212 86 416 86 655 c 128
 86 894 170 1097 340 1266 c 128
 508 1435 712 1519 951 1519 c 128
 1190 1519 1394 1435 1562 1266 c 128
 1732 1097 1816 894 1816 655 c 0
1701 655 m 0
 1701 864 1628 1042 1482 1188 c 128
 1335 1336 1159 1409 952 1409 c 128
 745 1409 569 1336 422 1188 c 128
 276 1042 203 864 203 655 c 128
 203 446 276 268 422 121 c 128
 569 -26 745 -100 952 -100 c 128
 1159 -100 1335 -26 1482 121 c 128
 1628 268 1701 446 1701 655 c 0
1274 255 m 1
 1229 235 1185 218 1140 202 c 128
 1095 188 1043 180 982 180 c 0
 843 180 733 221 652 304 c 128
 571 386 531 505 531 660 c 0
 531 813 573 932 656 1016 c 128
 739 1101 848 1143 982 1143 c 0
 1037 1143 1090 1136 1141 1121 c 128
 1192 1106 1236 1089 1274 1070 c 1
 1274 889 l 1
 1258 889 l 1
 1229 914 1190 938 1139 962 c 128
 1088 984 1037 996 986 996 c 0
 904 996 838 969 790 914 c 128
 740 859 716 775 716 660 c 0
 716 552 739 470 786 412 c 128
 833 356 899 327 986 327 c 0
 1042 327 1095 339 1145 364 c 128
 1195 388 1233 411 1258 434 c 1
 1274 434 l 1
 1274 255 l 1
EndSplineSet
EndChar
StartChar: ordfeminine
Encoding: 107 170 109
Width: 1010
Flags: W
HStem: 541 155<404 461> 1365 154<449 516>
VStem: 114 172<828 862> 708 166<566 1214>
Fore
874 566 m 1
 708 566 l 1
 708 657 l 1
 689 642 689 642 657 618 c 128
 636 603 615 590 594 581 c 0
 567 568 540 558 514 552 c 128
 487 544 451 541 404 541 c 0
 321 541 252 569 197 624 c 128
 142 680 114 752 114 839 c 0
 114 908 128 965 157 1008 c 128
 186 1052 227 1087 280 1112 c 0
 330 1136 393 1153 469 1163 c 128
 545 1173 625 1180 708 1184 c 1
 708 1203 l 2
 708 1238 702 1266 692 1287 c 128
 680 1308 664 1325 643 1337 c 0
 624 1348 600 1356 571 1360 c 128
 542 1363 513 1365 482 1365 c 0
 430 1365 377 1357 324 1342 c 128
 270 1326 230 1313 204 1304 c 1
 189 1304 l 1
 189 1474 l 1
 218 1483 262 1492 320 1503 c 128
 379 1514 433 1519 483 1519 c 0
 611 1519 708 1494 774 1442 c 128
 841 1392 874 1309 874 1194 c 2
 874 566 l 1
708 802 m 1
 708 1045 l 1
 665 1042 614 1038 557 1033 c 128
 500 1028 454 1020 420 1010 c 0
 380 999 348 980 323 954 c 128
 298 929 286 894 286 849 c 0
 286 799 301 761 330 735 c 128
 359 709 403 696 461 696 c 0
 512 696 557 707 598 729 c 128
 638 751 675 775 708 802 c 1
EndSplineSet
EndChar
StartChar: guillemotleft
Encoding: 108 171 110
Width: 1174
Flags: W
Fore
1043 191 m 1
 555 610 l 1
 555 695 l 1
 1043 1113 l 1
 1043 925 l 1
 726 652 l 1
 1043 379 l 1
 1043 191 l 1
613 162 m 1
 103 608 l 1
 103 697 l 1
 613 1142 l 1
 613 946 l 1
 282 652 l 1
 613 358 l 1
 613 162 l 1
EndSplineSet
EndChar
StartChar: logicalnot
Encoding: 109 172 111
Width: 1490
Flags: W
HStem: 602 160<157 1152>
VStem: 1152 171<57 762>
Fore
1323 57 m 1
 1152 57 l 1
 1152 602 l 1
 157 602 l 1
 157 762 l 1
 1323 762 l 1
 1323 57 l 1
EndSplineSet
EndChar
StartChar: registered
Encoding: 111 174 113
Width: 1902
Flags: W
HStem: -210 110<911 983> 1005 125<650 967> 1409 110<911 983>
VStem: 86 117<655 696> 650 165<215 570 215 1005> 1120 182<861 881> 1701 115<655 696>
Fore
1816 655 m 0
 1816 416 1732 212 1562 44 c 128
 1394 -126 1190 -210 951 -210 c 128
 712 -210 508 -126 340 44 c 128
 170 212 86 416 86 655 c 128
 86 894 170 1097 340 1266 c 128
 508 1435 712 1519 951 1519 c 128
 1190 1519 1394 1435 1562 1266 c 128
 1732 1097 1816 894 1816 655 c 0
1701 655 m 0
 1701 864 1628 1042 1482 1188 c 128
 1335 1336 1159 1409 952 1409 c 128
 745 1409 569 1336 422 1188 c 128
 276 1042 203 864 203 655 c 128
 203 446 276 268 422 121 c 128
 569 -26 745 -100 952 -100 c 128
 1159 -100 1335 -26 1482 121 c 128
 1628 268 1701 446 1701 655 c 0
1448 215 m 1
 1221 215 l 1
 938 570 l 1
 815 570 l 1
 815 215 l 1
 650 215 l 1
 650 1130 l 1
 929 1130 l 2
 992 1130 1041 1128 1078 1123 c 128
 1114 1118 1151 1105 1188 1084 c 0
 1228 1061 1257 1034 1275 1002 c 128
 1293 970 1302 929 1302 879 c 0
 1302 812 1284 758 1246 715 c 128
 1210 672 1161 639 1102 615 c 1
 1448 215 l 1
1120 868 m 0
 1120 893 1116 914 1108 932 c 128
 1100 950 1086 965 1066 978 c 0
 1049 989 1031 996 1010 1000 c 128
 989 1003 963 1005 930 1005 c 2
 815 1005 l 1
 815 696 l 1
 913 696 l 2
 945 696 975 699 1003 706 c 128
 1031 712 1054 723 1071 738 c 128
 1088 753 1101 771 1108 791 c 128
 1116 811 1120 837 1120 868 c 0
EndSplineSet
EndChar
StartChar: macron
Encoding: 112 175 114
Width: 1118
Flags: W
HStem: 1659 130<-16 1134>
Fore
1134 1659 m 1
 -16 1659 l 1
 -16 1789 l 1
 1134 1789 l 1
 1134 1659 l 1
EndSplineSet
EndChar
StartChar: degree
Encoding: 113 176 115
Width: 964
Flags: W
HStem: 755 152<482 502> 1363 152<482 502>
VStem: 101 157<1135 1156> 706 157<1135 1156>
Fore
863 1135 m 0
 863 1028 826 938 753 865 c 128
 680 792 589 755 482 755 c 0
 376 755 286 791 212 864 c 128
 138 937 101 1027 101 1135 c 0
 101 1242 138 1332 211 1405 c 128
 284 1478 375 1515 482 1515 c 128
 589 1515 680 1478 753 1405 c 128
 826 1332 863 1242 863 1135 c 0
706 1135 m 0
 706 1199 685 1253 642 1297 c 128
 599 1341 546 1363 482 1363 c 128
 418 1363 365 1341 322 1297 c 128
 279 1253 258 1199 258 1135 c 0
 258 1070 280 1015 324 972 c 128
 367 929 420 907 482 907 c 0
 546 907 599 929 642 974 c 128
 685 1018 706 1072 706 1135 c 0
EndSplineSet
EndChar
StartChar: plusminus
Encoding: 114 177 116
Width: 1490
Flags: W
HStem: 159 158<162 1328> 739 158<162 662 828 1328>
VStem: 662 166<317 739 897 1402>
Fore
1328 159 m 1
 162 159 l 1
 162 317 l 1
 662 317 l 1
 662 739 l 1
 162 739 l 1
 162 897 l 1
 662 897 l 1
 662 1402 l 1
 828 1402 l 1
 828 897 l 1
 1328 897 l 1
 1328 739 l 1
 828 739 l 1
 828 317 l 1
 1328 317 l 1
 1328 159 l 1
EndSplineSet
EndChar
StartChar: uni00B2
Encoding: 115 178 117
Width: 1010
Flags: W
HStem: 566 144<373 866> 1371 148<445 481>
VStem: 619 185<1221 1241>
Fore
866 566 m 1
 185 566 l 1
 185 718 l 1
 262 777 262 777 332 832 c 128
 380 868 418 900 447 929 c 0
 518 997 564 1050 586 1088 c 128
 608 1127 619 1173 619 1227 c 0
 619 1273 605 1308 576 1334 c 128
 547 1358 508 1371 457 1371 c 0
 411 1371 364 1361 318 1341 c 128
 270 1321 233 1300 206 1279 c 1
 191 1279 l 1
 191 1458 l 1
 233 1476 280 1491 330 1502 c 128
 382 1513 432 1519 481 1519 c 0
 585 1519 665 1493 720 1440 c 128
 776 1388 804 1321 804 1239 c 0
 804 1182 791 1128 764 1076 c 128
 738 1023 689 965 617 900 c 0
 582 869 542 837 496 802 c 128
 427 751 427 751 373 710 c 1
 866 710 l 1
 866 566 l 1
EndSplineSet
EndChar
StartChar: uni00B3
Encoding: 116 179 118
Width: 1010
Flags: W
HStem: 542 139<455 494> 968 139<334 476> 1380 139<455 494>
VStem: 641 173<1249 1281> 665 172<813 847>
Fore
837 828 m 0xe8
 837 781 827 738 807 700 c 128
 787 663 761 633 729 611 c 0
 694 586 656 569 614 558 c 128
 574 547 527 542 474 542 c 0
 419 542 368 547 320 557 c 128
 273 567 227 581 184 600 c 1
 184 775 l 1
 201 775 l 1
 226 752 264 730 315 710 c 128
 366 691 418 681 471 681 c 0
 527 681 573 693 610 718 c 128
 647 742 665 778 665 826 c 0xe8
 665 874 650 910 622 933 c 128
 592 956 543 968 474 968 c 2
 334 968 l 1
 334 1107 l 1
 459 1107 l 2
 517 1107 562 1120 594 1145 c 128
 625 1170 641 1205 641 1249 c 0
 641 1289 627 1321 600 1344 c 128
 573 1368 530 1380 472 1380 c 0
 428 1380 380 1370 330 1349 c 128
 278 1328 241 1306 216 1283 c 1
 199 1283 l 1
 199 1458 l 1
 242 1476 288 1491 338 1502 c 128
 388 1513 439 1519 492 1519 c 0
 593 1519 672 1496 729 1449 c 128
 786 1402 814 1346 814 1281 c 0xf0
 814 1223 798 1175 766 1138 c 128
 733 1100 691 1072 640 1055 c 1
 640 1047 l 1
 693 1036 740 1013 778 976 c 128
 818 940 837 891 837 828 c 0xe8
EndSplineSet
EndChar
StartChar: acute
Encoding: 117 180 119
Width: 1118
Flags: W
Fore
871 1676 m 1
 598 1302 l 1
 449 1302 l 1
 628 1676 l 1
 871 1676 l 1
EndSplineSet
EndChar
StartChar: mu
Encoding: 118 181 120
Width: 1163
Flags: W
HStem: -17 181<578 601>
VStem: 136 188<-412 115 -412 1117> 855 172<0 1117>
Fore
1027 0 m 1
 855 0 l 1
 855 116 l 1
 849 116 l 1
 809 74 769 41 728 18 c 128
 688 -5 638 -17 578 -17 c 0
 517 -17 468 -5 433 18 c 128
 398 41 361 74 324 115 c 1
 324 -412 l 1
 136 -412 l 1
 136 1117 l 1
 324 1117 l 1
 324 275 l 1
 352 242 387 215 429 194 c 128
 471 174 521 164 578 164 c 0
 638 164 688 174 730 193 c 128
 770 212 807 240 839 275 c 1
 839 1117 l 1
 1027 1117 l 1
 1027 0 l 1
EndSplineSet
EndChar
StartChar: paragraph
Encoding: 119 182 121
Width: 1118
Flags: W
HStem: 1359 130<560 842>
VStem: 515 140<-363 1359> 842 140<-363 1489>
Fore
982 -363 m 1
 842 -363 l 1
 842 1359 l 1
 655 1359 l 1
 655 -363 l 1
 515 -363 l 1
 515 593 l 1
 378 596 267 639 183 722 c 128
 99 805 57 914 57 1050 c 0
 57 1188 100 1296 187 1373 c 128
 274 1450 398 1489 560 1489 c 2
 982 1489 l 1
 982 -363 l 1
EndSplineSet
EndChar
StartChar: periodcentered
Encoding: 120 183 122
Width: 724
Flags: W
VStem: 243 239<832 1117>
Fore
482 832 m 1
 243 832 l 1
 243 1117 l 1
 482 1117 l 1
 482 832 l 1
EndSplineSet
EndChar
StartChar: cedilla
Encoding: 121 184 123
Width: 1118
Flags: W
HStem: -423 150<438 468>
VStem: 614 159<-120 -50>
Fore
767 20 m 1
 768 8 769 -7 770 -26 c 128
 772 -44 773 -65 773 -89 c 0
 773 -197 744 -280 686 -337 c 128
 628 -394 555 -423 466 -423 c 0
 441 -423 412 -421 379 -417 c 128
 346 -413 316 -407 289 -399 c 1
 289 -239 l 1
 298 -239 l 1
 314 -246 335 -254 361 -262 c 128
 387 -269 413 -273 440 -273 c 0
 503 -273 547 -260 574 -234 c 128
 601 -207 614 -165 614 -107 c 0
 614 -90 614 -71 613 -50 c 128
 612 -29 611 -6 610 20 c 1
 767 20 l 1
EndSplineSet
EndChar
StartChar: uni0E01
Encoding: 122 3585 124
Width: 1240
Flags: W
HStem: 0 21G<188 348 922 1082> 989 160<624 647>
VStem: 188 160<0 385> 922 160<0 689>
Fore
1082 671 m 2
 1082 0 l 1
 922 0 l 1
 922 655 l 2
 922 876 804 989 624 989 c 0
 486 989 377 938 296 823 c 1
 380 802 443 748 486 661 c 1
 394 596 348 496 348 361 c 2
 348 0 l 1
 188 0 l 1
 188 361 l 2
 188 492 231 595 316 669 c 1
 268 738 202 778 118 790 c 1
 215 1026 384 1149 624 1149 c 0
 932 1149 1082 968 1082 671 c 2
EndSplineSet
EndChar
StartChar: uni0E02
Encoding: 123 3586 125
Width: 1400
Flags: W
HStem: 0 164<707 1217> 545 113<297 315> 823 102<313 325> 995 154<447 481>
VStem: 96 130<741 797> 547 160<0 593> 681 153<771 801> 1057 160<164 1139>
Fore
307 658 m 0xf9
 362 658 392 689 392 741 c 0
 392 790 362 823 313 823 c 0
 259 823 226 800 226 741 c 0
 226 692 252 658 307 658 c 0xf9
834 771 m 1xfb
 751 718 707 654 707 575 c 2
 707 164 l 1
 1057 164 l 1
 1057 1139 l 1
 1217 1139 l 1
 1217 0 l 1
 547 0 l 1
 547 575 l 2xfd
 547 658 597 730 681 783 c 1
 680 850 658 903 615 942 c 128
 572 980 528 995 456 995 c 0
 389 995 345 970 323 925 c 1
 430 924 487 870 496 765 c 0
 501 622 435 548 298 545 c 0
 165 552 98 636 96 797 c 0
 98 890 130 971 193 1042 c 128
 256 1113 345 1149 460 1149 c 0
 564 1149 650 1120 722 1060 c 128
 796 998 833 902 834 771 c 1xfb
EndSplineSet
EndChar
StartChar: uni0E03
Encoding: 124 3587 126
Width: 1450
Flags: W
HStem: 0 164<784 1294> 507 116<303 324> 1119 20G<1134 1294>
VStem: 106 133<703 726> 398 104<703 727> 624 160<0 593> 756 155<783 820.86> 1134 160<164 1139>
Fore
322 623 m 0xf9
 370 623 398 666 398 712 c 0
 398 754 370 790 322 790 c 0
 265 790 239 758 239 706 c 0
 239 656 268 623 322 623 c 0xf9
624 587 m 2xfd
 624 670 667 738 756 798 c 1
 756 873 725 934 663 979 c 1
 663 978 615 946 519 881 c 1
 360 979 l 1
 329 958 310 927 301 886 c 1
 341 901 384 896 432 870 c 128
 478 845 502 797 502 727 c 0
 502 650 483 594 446 558 c 128
 409 521 361 507 303 507 c 0
 184 507 106 586 106 726 c 0
 106 930 189 1079 360 1150 c 1
 360 1149 413 1113 519 1041 c 1
 663 1149 l 1
 722 1140 778 1100 832 1030 c 128
 887 960 913 878 911 783 c 1xfb
 826 721 784 656 784 587 c 2
 784 164 l 1
 1134 164 l 1
 1134 1139 l 1
 1294 1139 l 1
 1294 0 l 1
 624 0 l 1
 624 587 l 2xfd
EndSplineSet
EndChar
StartChar: uni0E04
Encoding: 125 3588 127
Width: 1370
Flags: W
HStem: 0 21G<245 455 1035 1195> 342 118<722 749> 625 121<722 745> 989 160<654 708>
VStem: 163 161<639 675> 822 98<541 553> 1035 160<0 675>
Fore
380 256 m 1
 403 418 447 540 510 623 c 128
 573 706 644 747 722 746 c 0
 848 745 914 681 920 553 c 0
 917 432 860 362 749 342 c 0
 669 341 616 368 589 424 c 1
 536 319 492 177 455 0 c 1
 245 0 l 1
 245 108 l 2
 244 183 228 286 194 424 c 0
 172 513 163 596 163 673 c 0
 164 970 335 1149 676 1149 c 0
 1018 1149 1195 974 1195 651 c 2
 1195 0 l 1
 1035 0 l 1
 1035 650 l 2
 1035 856 918 989 681 989 c 0
 442 989 324 857 324 646 c 0
 326 529 345 399 380 256 c 1
737 460 m 0
 794 460 822 500 822 543 c 0
 822 588 794 625 743 625 c 0
 689 625 656 596 656 543 c 0
 656 494 686 460 737 460 c 0
EndSplineSet
EndChar
StartChar: uni0E05
Encoding: 126 3589 128
Width: 1370
Flags: W
HStem: 0 21G<235 445 1025 1185> 342 118<712 739> 625 121<712 735>
VStem: 153 161<654 689> 812 98<541 555> 1025 160<0 689>
Fore
370 256 m 1
 393 418 437 540 500 623 c 128
 563 706 634 746 712 746 c 0
 838 746 910 674 910 553 c 0
 910 432 850 362 739 342 c 0
 659 341 606 368 579 424 c 1
 526 319 482 177 445 0 c 1
 235 0 l 1
 235 108 l 2
 234 183 211 287 184 424 c 0
 166 514 153 600 153 683 c 0
 154 938 271 1094 502 1149 c 1
 677 1028 l 1
 842 1149 l 1
 1069 1091 1184 928 1185 661 c 2
 1185 0 l 1
 1025 0 l 1
 1025 660 l 2
 1025 826 961 933 833 981 c 1
 682 868 l 1
 519 981 l 1
 382 932 314 824 314 656 c 0
 316 533 335 399 370 256 c 1
727 460 m 0
 778 460 812 491 812 543 c 0
 812 590 782 625 733 625 c 0
 679 625 646 586 646 543 c 0
 646 494 678 460 727 460 c 0
EndSplineSet
EndChar
StartChar: uni0E06
Encoding: 127 3590 129
Width: 1520
Flags: W
HStem: 0 21G<1205 1365> 328 118<633 644> 508 112<310 338> 1119 20G<1205 1365>
VStem: 113 131<708 765> 408 110<712 714> 434 108<197 218> 760 162<783 814> 1205 160<166 1139>
Fore
324 620 m 0xfd80
 380 620 408 656 408 712 c 0
 408 748 382 789 328 789 c 0
 276 789 244 756 244 708 c 0
 244 663 268 620 324 620 c 0xfd80
635 587 m 2
 635 668 677 743 760 814 c 1
 760 887 731 942 674 979 c 1
 530 881 l 1
 371 979 l 1
 342 961 322 930 312 886 c 1
 417 901 518 836 518 712 c 0xfd80
 518 596 464 508 325 508 c 0
 190 508 113 604 113 765 c 0
 113 846 134 921 178 991 c 128
 224 1061 288 1114 371 1149 c 1
 530 1041 l 1
 674 1149 l 1
 839 1074 922 952 922 783 c 1
 837 728 795 663 795 587 c 2
 795 409 l 1
 1205 166 l 1
 1205 1139 l 1
 1365 1139 l 1
 1365 0 l 1
 1205 0 l 1
 794 243 l 1
 794 146 l 2
 794 43 741 -9 636 -10 c 0
 577 -11 530 10 492 52 c 128
 456 93 434 144 434 218 c 0xfb80
 434 274 450 327 486 374 c 128
 524 421 573 445 635 446 c 1
 635 587 l 2
644 328 m 1
 613 328 588 314 570 287 c 128
 551 260 542 231 542 202 c 0xfb80
 542 149 565 112 596 109 c 0
 623 106 643 130 644 166 c 2
 644 328 l 1
EndSplineSet
EndChar
StartChar: uni0E07
Encoding: 128 3591 130
Width: 1000
Flags: W
HStem: -10 160<553 562> 741 113<605 626> 1021 129<623 651>
VStem: 439 100<933 940> 694 161<272 770> 703 152<881 944>
Fore
855 272 m 2xf8
 855 85 754 -9 553 -10 c 0
 374 -10 265 84 227 272 c 2
 145 719 l 1
 326 640 l 1
 388 272 l 2
 409 193 464 150 553 150 c 0
 648 150 694 194 694 272 c 2
 694 770 l 1xf8
 678 751 648 741 605 741 c 0
 496 749 441 814 439 935 c 0
 450 1076 520 1148 651 1150 c 0
 787 1140 855 1050 855 881 c 2xf4
 855 272 l 2xf8
620 854 m 0
 672 854 703 894 703 944 c 0xf4
 703 991 668 1021 623 1021 c 0
 573 1021 539 990 539 940 c 0
 539 895 572 854 620 854 c 0
EndSplineSet
EndChar
StartChar: uni0E08
Encoding: 129 3592 131
Width: 1200
Flags: W
HStem: -10 160<748 769> 345 110<383 405> 623 130<401 426> 989 160<573 593>
VStem: 214 105<533 551> 469 160<283 373> 483 145<512 548> 868 160<279 742>
Fore
629 283 m 2xfd
 629 195 669 151 748 150 c 0
 828 150 868 193 868 279 c 2
 868 715 l 2
 868 880 753 989 573 989 c 0
 424 989 295 938 186 843 c 1
 96 912 l 1
 232 1067 391 1149 573 1149 c 0
 860 1149 1028 1003 1028 740 c 2
 1028 279 l 2
 1028 87 935 -9 748 -10 c 0
 562 -10 469 88 469 283 c 2
 469 373 l 1xfd
 457 357 432 345 393 345 c 0
 296 345 214 418 214 537 c 0
 214 672 296 753 426 753 c 0
 561 753 629 671 628 512 c 2xfb
 629 283 l 2xfd
391 455 m 0
 451 455 483 486 483 546 c 0xfb
 483 588 452 623 403 623 c 0
 353 623 319 592 319 542 c 0
 319 497 348 455 391 455 c 0
EndSplineSet
EndChar
StartChar: uni0E09
Encoding: 130 3593 132
Width: 1395
Flags: W
HStem: 0 21G<399 559> 362 111<310.132 339> 641 130<331 356> 986 163<634 659>
VStem: 146 103<549 571> 399 160<0 502> 413 146<502 564> 944 160<409 742> 1197 108<181 215>
Fore
1104 740 m 2xfd80
 1104 446 l 1
 1236 431 1305 351 1305 205 c 0
 1305 66 1235 -9 1103 -10 c 0
 1041 -10 996 18 968 75 c 0
 949 114 942 165 945 227 c 1
 559 0 l 1
 399 0 l 1
 399 391 l 1
 381 369 360 362 324 362 c 0
 208 362 147 446 146 571 c 0
 155 704 225 770 356 771 c 0
 491 766 559 676 559 502 c 2
 559 176 l 1
 944 409 l 1
 944 715 l 2
 944 882 838 986 634 986 c 0
 501 986 377 938 262 843 c 1
 172 912 l 1
 309 1069 463 1149 634 1149 c 0
 938 1149 1105 1003 1104 740 c 2xfd80
1095 328 m 1
 1095 156 l 2
 1095 122 1114 104 1143 103 c 1
 1178 108 1197 141 1197 202 c 0
 1197 278 1163 317 1095 328 c 1
321 473 m 0
 381 473 412 504 413 564 c 0xfb80
 413 611 376 641 333 641 c 0
 283 641 249 614 249 560 c 0
 249 515 280 473 321 473 c 0
EndSplineSet
EndChar
StartChar: uni0E0A
Encoding: 131 3594 133
Width: 1390
Flags: W
HStem: 0 164<742 1208> 545 113<334 352> 823 102<350 362> 1005 144<495 518>
VStem: 133 130<741 797> 582 160<0 591> 1048 160<164 591>
Fore
1210 589 m 2
 1208 0 l 1
 582 0 l 1
 582 575 l 2
 582 655 625 726 711 789 c 1
 688 920 606 1005 512 1005 c 0
 445 1005 382 970 360 925 c 1
 467 924 524 870 533 765 c 0
 538 622 472 548 335 545 c 0
 202 552 135 636 133 797 c 0
 135 890 167 971 230 1042 c 128
 293 1113 382 1149 497 1149 c 0
 648 1149 769 1072 841 921 c 1
 1038 972 1137 1052 1137 1163 c 2
 1137 1188 l 1
 1303 1188 l 1
 1304 1161 l 2
 1309 1028 1198 905 1015 858 c 1
 1127 811 1210 692 1210 589 c 2
744 572 m 2
 742 164 l 1
 1048 164 l 1
 1050 578 l 2
 1050 644 973 738 870 768 c 1
 786 715 745 650 744 572 c 2
344 658 m 0
 399 658 429 689 429 741 c 0
 429 790 399 823 350 823 c 0
 296 823 263 800 263 741 c 0
 263 692 289 658 344 658 c 0
EndSplineSet
EndChar
StartChar: uni0E0B
Encoding: 132 3595 134
Width: 1390
Flags: W
HStem: 0 164<747 1213> 507 116<271 295>
VStem: 70 129<703 726> 366 104<702 727> 587 160<0 594> 1053 160<164 594> 1141 166<1147 1188>
Fore
290 623 m 0xf8
 338 623 366 666 366 712 c 0
 366 754 338 790 290 790 c 0
 233 790 199 752 199 704 c 0
 199 656 236 623 290 623 c 0xf8
490 1041 m 1
 632 1149 l 1
 734 1115 805 1039 845 921 c 1
 1042 957 1141 1040 1141 1163 c 2
 1141 1188 l 1
 1307 1188 l 1
 1307 1164 l 2xfa
 1307 1024 1201 908 1018 861 c 1
 1130 814 1213 696 1213 592 c 2
 1213 0 l 1xfc
 587 0 l 1
 587 575 l 2
 587 646 631 713 718 776 c 1
 716 873 687 941 632 979 c 1
 490 881 l 1
 328 979 l 1
 297 958 278 927 269 886 c 1
 309 901 352 896 400 870 c 128
 446 845 470 797 470 727 c 0
 470 650 451 594 414 558 c 128
 377 521 329 507 271 507 c 0
 165 507 70 600 70 726 c 0
 70 930 150 1084 331 1150 c 1
 331 1149 384 1113 490 1041 c 1
1053 581 m 2xfc
 1053 660 976 741 873 771 c 1
 789 718 747 653 747 575 c 2
 747 164 l 1
 1053 164 l 1
 1053 581 l 2xfc
EndSplineSet
EndChar
StartChar: uni0E0C
Encoding: 133 3596 135
Width: 1750
Flags: W
HStem: -11 116<394 419> 273 124<417 429> 989 160<628 651>
VStem: 191 142<192 258> 191 160<258 422> 497 107<190 213> 724 108<190 215> 925 160<445 694> 934 150<164 243> 1495 160<176 1139>
Fore
925 657 m 2xe740
 925 872 831 989 628 989 c 0
 482 989 373 934 300 825 c 1
 379 808 442 754 489 663 c 1
 397 592 351 505 351 403 c 2
 351 369 l 1xef40
 367 387 392 396 427 397 c 0
 553 396 604 321 604 213 c 0
 604 44 521 -10 394 -11 c 0
 259 -4 191 86 191 258 c 2xf640
 191 403 l 2
 191 508 234 598 320 671 c 1
 293 730 227 770 122 792 c 1
 227 1030 396 1149 628 1149 c 0
 927 1149 1084 986 1085 673 c 2
 1085 409 l 1xef40
 1495 176 l 1
 1495 1139 l 1
 1655 1139 l 1
 1655 0 l 1
 1495 0 l 1
 1084 243 l 1
 1084 146 l 2xe6c0
 1084 52 1026 -8 926 -10 c 0
 797 -7 724 65 724 205 c 0
 724 357 797 435 925 446 c 1
 925 657 l 2xe740
934 328 m 1xe6c0
 867 326 832 279 832 208 c 0
 832 145 850 116 886 109 c 0
 917 103 933 130 934 172 c 2
 934 328 l 1xe6c0
405 105 m 0
 468 105 497 136 497 196 c 0
 497 236 468 273 417 273 c 0
 367 273 333 236 333 192 c 0xf640
 333 147 364 105 405 105 c 0
EndSplineSet
EndChar
StartChar: uni0E0D
Encoding: 134 3597 136
Width: 1745
Flags: HW
HStem: -466 179<1072 1206> -143 82<1065 1083> -11 116<361 385> 0 176<1052 1623> 273 124<385 397> 989 160<596 619>
VStem: 159 142<192 258> 465 107<196 207> 893 160<0 687> 900 98<-248 -215> 1144 88<-227 -209> 1463 160<176 1139>
Fore
1071 -61 m 0xcf70
 1166 -61 1232 -126 1232 -214 c 0
 1232 -278 1215 -316 1167 -345 c 1
 1356 -368 1467 -274 1499 -65 c 1
 1615 -65 l 1
 1606 -322 1462 -466 1206 -466 c 0
 1023 -466 900 -358 900 -248 c 0
 900 -130 957 -61 1071 -61 c 0xcf70
998 -215 m 0
 998 -257 1022 -287 1072 -287 c 0
 1122 -287 1144 -257 1144 -215 c 0
 1144 -170 1110 -143 1073 -143 c 0
 1026 -143 998 -166 998 -215 c 0
EndSplineSet
Refer: 256 63247 S 1 0 0 1 0 0 2
Substitution: 0 65534 'nds0' uni0E0D.descless
Substitution: 0 65534 'ndsc' uni0E0D.descless
EndChar
StartChar: uni0E0E
Encoding: 135 3598 137
Width: 1375
Flags: HW
HStem: -413 125<530 557> -112 104<626 649> -10 122<253 285> 280 119<246 265> 990 160<767 797>
VStem: 76 105<194 212> 339 136<-257 -232> 345 145<203 259> 1064 160<-209 692>
AnchorPoint: "BelowBase" 1224 -453 basechar 0
Fore
1064 -209 m 1xde80
 1064 658 l 2
 1064 869 956 990 767 990 c 0
 636 990 527 937 439 826 c 1
 524 801 587 747 628 664 c 1
 536 591 490 505 490 404 c 2
 490 259 l 2
 490 84 420 -10 285 -10 c 0xbd80
 154 -10 76 59 76 198 c 0
 76 312 144 399 246 399 c 0
 283 399 311 389 330 370 c 1
 330 404 l 2
 330 516 374 603 459 672 c 1
 422 731 356 771 261 793 c 1
 365 1031 534 1150 767 1150 c 0
 1052 1150 1224 986 1224 674 c 2
 1224 -410 l 1
 1064 -410 l 1
 1001 -319 926 -248 839 -196 c 1
 769 -339 666 -413 530 -413 c 0
 404 -413 339 -360 339 -257 c 0
 339 -104 520 -8 647 -8 c 0
 692 -8 735 -18 774 -34 c 1
 867 140 l 1
 973 105 l 1
 882 -76 l 1
 945 -103 1006 -148 1064 -209 c 1xde80
547 -288 m 0
 616 -288 709 -224 733 -147 c 1
 701 -123 668 -112 634 -112 c 0
 568 -112 475 -168 475 -232 c 0xde80
 475 -272 514 -288 547 -288 c 0
253 112 m 0xbd80
 313 112 345 144 345 203 c 0
 345 246 319 280 265 280 c 0
 216 280 181 246 181 199 c 0
 181 154 216 112 253 112 c 0xbd80
EndSplineSet
EndChar
StartChar: uni0E0F
Encoding: 136 3599 138
Width: 1375
Flags: HW
HStem: -413 125<382 399> -121 112<488 517> -10 122<255 287> 280 120<231 267> 990 160<767 784>
VStem: 79 104<194 221> 197 132<-258 -246> 347 143<203 259> 1064 160<-209 692>
AnchorPoint: "BelowBase" 1224 -453 basechar 0
Fore
1064 -209 m 1xdf80
 1064 658 l 2
 1064 857 963 990 767 990 c 0
 633 990 524 935 439 826 c 1
 536 795 599 741 628 664 c 1
 536 601 490 514 490 404 c 2
 490 259 l 2
 490 83 422 -10 287 -10 c 0xbf80
 152 -10 79 68 79 221 c 0
 79 308 148 400 231 400 c 0
 277 400 310 393 330 370 c 1
 330 404 l 2
 331 518 374 607 459 672 c 1
 410 743 344 783 261 793 c 1
 370 1030 538 1150 767 1150 c 0
 1065 1150 1224 985 1224 674 c 2
 1224 -410 l 1
 1064 -410 l 1
 928 -252 l 1
 812 -362 l 1
 776 -287 735 -234 689 -203 c 1
 648 -328 520 -413 385 -413 c 0
 256 -413 197 -357 197 -257 c 0
 197 -118 348 -9 515 -9 c 0
 560 -9 598 -18 629 -34 c 1
 722 140 l 1
 828 105 l 1
 737 -76 l 1
 769 -97 794 -124 812 -156 c 1
 928 -38 l 1
 1064 -209 l 1xdf80
397 -288 m 0
 488 -288 574 -211 588 -147 c 1
 561 -130 531 -121 498 -121 c 0xdf80
 408 -121 329 -178 329 -248 c 0
 329 -284 371 -288 397 -288 c 0
255 112 m 0xbf80
 316 112 347 143 347 203 c 0
 347 248 320 280 267 280 c 0
 217 280 183 252 183 199 c 0
 183 154 208 112 255 112 c 0xbf80
EndSplineSet
EndChar
StartChar: uni0E10
Encoding: 137 3600 139
Width: 1130
Flags: HW
HStem: -532 71<207 241> -347 75<267 295> -276 62<716 737> -102 68<719 743> -10 160<637 641> 290 113<267 293> 571 126<279 305> 998 151<536 577>
VStem: 64 92<-438 -425> 102 101<475 496> 367 150<428 494> 598 74<-165 -147> 757 160<279 541>
Fore
772 -329 m 1
 772 -262 l 1
 762 -271 744 -276 718 -276 c 0xbfb8
 646 -276 598 -226 598 -153 c 0
 598 -78 650 -34 743 -34 c 0
 864 -34 925 -97 925 -223 c 2
 925 -530 l 1
 775 -530 l 1
 754 -455 720 -416 674 -413 c 0
 627 -414 589 -453 560 -529 c 1
 535 -463 504 -422 466 -406 c 1
 402 -490 320 -532 220 -532 c 0
 134 -532 64 -488 64 -425 c 0
 64 -328 162 -272 269 -272 c 0xdfb8
 312 -272 362 -280 418 -294 c 1
 470 -208 l 1
 558 -230 l 1
 502 -324 l 1
 529 -335 547 -349 558 -368 c 1
 603 -312 641 -284 674 -284 c 0
 715 -284 748 -299 772 -329 c 1
731 -102 m 0
 698 -102 672 -124 672 -158 c 0
 672 -191 690 -214 729 -214 c 0
 764 -214 785 -191 785 -157 c 0
 785 -132 767 -102 731 -102 c 0
156 -437 m 0
 156 -448 194 -461 221 -461 c 0
 294 -461 371 -418 386 -362 c 1
 345 -352 309 -347 278 -347 c 0xdfb8
 198 -347 156 -388 156 -437 c 0
EndSplineSet
Refer: 241 63232 S 1 0 0 1 0 0 2
Substitution: 0 65534 'nds0' uni0E10.descless
Substitution: 0 65534 'ndsc' uni0E10.descless
EndChar
StartChar: uni0E11
Encoding: 138 3601 140
Width: 1700
Flags: W
HStem: 0 21G<636 838 1374 1534> 508 112<310 338>
VStem: 113 131<708 765> 408 110<712 721> 636 159<0 593> 1374 160<0 910>
Fore
324 620 m 0
 380 620 408 656 408 712 c 0
 408 748 382 789 328 789 c 0
 276 789 244 756 244 708 c 0
 244 664 268 620 324 620 c 0
530 1041 m 1
 674 1149 l 1
 823 1076 906 954 922 783 c 1
 838 727 795 656 795 587 c 2
 795 263 l 1
 1132 990 l 2
 1173 1087 1241 1136 1338 1136 c 0
 1452 1136 1534 1054 1534 910 c 2
 1534 0 l 1
 1374 0 l 1
 1374 857 l 2
 1375 904 1358 929 1323 932 c 0
 1296 935 1272 911 1250 862 c 2
 838 0 l 1
 636 0 l 1
 636 587 l 2
 635 666 675 736 758 796 c 1
 755 872 727 933 674 979 c 1
 530 881 l 1
 371 979 l 1
 342 961 322 930 312 886 c 1
 417 901 518 836 518 712 c 0
 518 596 464 508 325 508 c 0
 190 508 113 600 113 765 c 0
 113 846 134 921 178 991 c 128
 224 1061 288 1114 371 1149 c 1
 530 1041 l 1
EndSplineSet
EndChar
StartChar: uni0E12
Encoding: 139 3602 141
Width: 1850
Flags: W
HStem: 0 21G<204 389 1528 1690> 622 123<536 553> 1119 20G<1530 1690>
VStem: 359 97<533 551> 620 119<533 551> 792 108<181 215> 993 159<145 243 445 711> 1530 160<160 1139>
Fore
993 734 m 2
 992 859 933 941 816 979 c 1
 643 863 l 1
 479 979 l 1
 348 931 276 820 284 676 c 0
 292 539 320 411 356 290 c 2
 373 197 l 1
 451 231 507 287 542 365 c 1
 513 354 481 353 448 370 c 0
 380 404 359 459 359 536 c 0
 359 668 444 745 553 745 c 0
 672 745 739 676 739 541 c 0
 739 348 622 167 389 0 c 1
 204 0 l 1
 204 108 l 2
 203 188 188 300 153 450 c 0
 132 541 121 620 121 702 c 0
 121 915 240 1076 479 1149 c 1
 643 1033 l 1
 816 1149 l 1
 1041 1099 1153 942 1153 677 c 2
 1153 409 l 1
 1530 160 l 1
 1530 1139 l 1
 1690 1139 l 1
 1690 0 l 1
 1528 0 l 1
 1152 243 l 1
 1152 146 l 2
 1152 49 1099 -3 994 -10 c 0
 860 -9 792 62 792 205 c 0
 792 324 860 413 993 446 c 1
 993 734 l 2
993 328 m 1
 928 329 900 284 900 202 c 0
 900 145 912 110 954 103 c 0
 978 99 993 116 993 166 c 2
 993 328 l 1
528 454 m 0
 588 454 620 485 620 545 c 0
 620 588 588 622 540 622 c 0
 490 622 456 596 456 541 c 0
 456 496 492 454 528 454 c 0
EndSplineSet
EndChar
StartChar: uni0E13
Encoding: 140 3603 142
Width: 1900
Flags: W
HStem: -11 114<396 421> 271 124<417 432> 989 160<631 654>
VStem: 194 141<190 258> 194 161<258 422> 499 105<180 204> 928 160<0 694> 1462 158<171 243 409 1139> 1714 108<181 214>
Fore
928 657 m 2xef80
 928 863 836 989 631 989 c 0
 484 989 374 934 303 825 c 1
 374 810 437 756 492 663 c 1
 401 594 355 508 355 403 c 2
 355 369 l 1xef80
 376 386 401 395 430 395 c 0
 532 395 604 324 604 204 c 0
 604 36 533 -10 406 -11 c 0
 265 -10 194 80 194 258 c 2xf780
 194 403 l 2
 194 518 237 607 323 671 c 1
 268 738 202 779 125 792 c 1
 236 1030 404 1149 631 1149 c 0
 932 1149 1088 984 1088 673 c 2
 1088 183 l 1
 1461 409 l 1
 1460 1139 l 1
 1620 1139 l 1
 1620 446 l 1
 1755 441 1822 361 1822 205 c 0
 1823 64 1762 -7 1639 -9 c 0
 1520 -8 1461 63 1462 206 c 2
 1462 243 l 1
 1083 0 l 1
 928 0 l 1
 928 657 l 2xef80
1620 328 m 1
 1620 173 l 2
 1620 131 1628 110 1660 109 c 0
 1695 116 1714 147 1714 202 c 0
 1714 276 1688 321 1620 328 c 1
407 103 m 0
 468 103 499 134 499 194 c 0
 499 228 468 271 419 271 c 0
 369 271 335 236 335 190 c 0xf780
 335 145 357 103 407 103 c 0
EndSplineSet
EndChar
StartChar: uni0E14
Encoding: 141 3604 143
Width: 1330
Flags: W
HStem: 0 21G<222 407 1011 1171> 362 102<534 545> 632 113<553 573> 989 160<633 685>
VStem: 140 162<639 689> 377 94<536 561> 635 122<535 561> 1011 160<0 689>
Fore
407 0 m 1
 222 0 l 1
 222 108 l 2
 222 178 200 292 171 450 c 0
 156 532 140 604 140 669 c 0
 140 964 304 1149 660 1149 c 0
 1000 1149 1171 980 1171 652 c 2
 1171 0 l 1
 1011 0 l 1
 1011 675 l 2
 1011 864 896 989 664 989 c 0
 422 989 302 860 302 668 c 0
 302 629 305 596 314 551 c 16
 336 436 360 372 379 266 c 8
 384 239 391 197 391 197 c 1
 456 218 513 274 560 365 c 1
 560 365 545 362 536 362 c 16
 488 362 377 420 377 536 c 0
 377 668 442 745 571 745 c 0
 696 745 757 676 757 542 c 0
 757 332 641 153 407 0 c 1
543 464 m 0
 608 464 635 492 635 555 c 0
 635 602 616 632 555 632 c 0
 505 632 471 605 471 551 c 0
 471 508 496 464 543 464 c 0
EndSplineSet
EndChar
StartChar: uni0E15
Encoding: 142 3605 144
Width: 1330
Flags: W
HStem: 0 21G<232 417 1021 1181> 357 97<529 556> 622 123<564 583>
VStem: 149 163<671 704> 387 97<527 547> 648 119<527 561> 1021 160<0 704>
Fore
1021 734 m 2
 1020 859 961 941 844 979 c 1
 671 863 l 1
 507 979 l 1
 376 931 312 840 312 676 c 0
 312 592 344 424 384 290 c 8
 395 255 401 197 401 197 c 1
 479 231 535 287 570 365 c 1
 557 360 543 357 529 357 c 0
 438 362 387 444 387 536 c 0
 387 656 456 745 581 745 c 0
 712 745 767 664 767 541 c 0
 767 348 650 167 417 0 c 1
 232 0 l 1
 232 108 l 2
 231 188 214 302 181 450 c 0
 160 541 149 625 149 702 c 0
 149 928 268 1076 507 1149 c 1
 671 1033 l 1
 844 1149 l 1
 1069 1099 1181 942 1181 677 c 2
 1181 0 l 1
 1021 0 l 1
 1021 734 l 2
556 454 m 0
 624 454 648 485 648 545 c 0
 648 600 624 622 568 622 c 0
 518 622 484 592 484 541 c 0
 484 496 504 454 556 454 c 0
EndSplineSet
EndChar
StartChar: uni0E16
Encoding: 143 3606 145
Width: 1240
Flags: W
HStem: -11 116<394 421> 273 124<419 431> 989 160<630 653>
VStem: 193 142<192 258> 193 160<258 422> 499 107<180 203> 927 160<0 678>
Fore
927 0 m 1xee
 927 657 l 2
 927 872 822 989 630 989 c 0
 484 989 375 934 302 825 c 1
 381 808 444 754 491 663 c 1
 399 592 353 505 353 403 c 2
 353 369 l 1xee
 369 387 394 396 429 397 c 0
 555 396 606 321 606 201 c 0
 606 69 528 -11 396 -11 c 0
 270 -11 193 86 193 258 c 2xf6
 193 403 l 2
 193 508 236 598 322 671 c 1
 295 730 229 770 124 792 c 1
 229 1030 398 1149 630 1149 c 0
 924 1149 1086 986 1087 673 c 2
 1087 0 l 1
 927 0 l 1xee
407 105 m 0
 474 105 499 136 499 196 c 0
 499 243 462 273 419 273 c 0
 369 273 335 243 335 192 c 0xf6
 335 147 360 105 407 105 c 0
EndSplineSet
EndChar
StartChar: uni0E17
Encoding: 144 3607 146
Width: 1350
Flags: W
HStem: 0 21G<317 518 1054 1214> 743 116<238 259> 932 204<1001 1018> 1026 124<251 274>
VStem: 63 110<930 961> 317 160<0 881> 337 140<881 949> 1054 160<0 910>
Fore
317 770 m 1xed
 306 756 285 743 253 743 c 0
 128 743 63 817 63 953 c 0
 63 1064 147 1150 274 1150 c 0xdd
 392 1150 477 1051 477 881 c 2
 477 263 l 1
 812 990 l 2
 853 1087 921 1136 1018 1136 c 0
 1144 1136 1214 1054 1214 910 c 2
 1214 0 l 1
 1054 0 l 1
 1054 857 l 2
 1055 904 1040 932 1003 932 c 0
 976 932 952 911 930 862 c 2
 518 0 l 1
 317 0 l 1
 317 770 l 1xed
248 859 m 0
 304 859 337 889 337 949 c 0xdb
 337 1000 312 1026 257 1026 c 0
 207 1026 173 1000 173 945 c 0
 173 896 197 859 248 859 c 0
EndSplineSet
EndChar
StartChar: uni0E18
Encoding: 145 3608 147
Width: 1250
Flags: W
HStem: 0 151<409 1023> 997 151<606 640>
VStem: 249 161<0 650> 864 159<151 518>
Fore
864 480 m 2
 864 533 840 593 794 604 c 2
 615 657 398 710 143 761 c 1
 213 1020 364 1148 612 1148 c 0
 709 1148 820 1128 893 1076 c 0
 929 1051 1019 1053 1080 1071 c 1
 1041 916 l 1
 992 905 916 904 871 923 c 0
 794 956 688 997 625 997 c 0
 508 997 431 960 387 871 c 1
 572 832 848 753 848 753 c 2
 972 721 1024 640 1024 518 c 2
 1023 0 l 1
 249 0 l 1
 249 650 l 1
 410 650 l 1
 410 151 l 1
 864 151 l 1
 864 480 l 2
EndSplineSet
EndChar
StartChar: uni0E19
Encoding: 146 3609 148
Width: 1400
Flags: W
HStem: 0 21G<364 519> 741 115<282 302> 1024 125<294 321>
VStem: 109 103<933 951> 364 160<0 880> 376 148<880 947> 985 159<197 328 402 1139> 1237 113<181 215>
Fore
364 769 m 1xfb
 351 753 326 741 288 741 c 0
 188 741 109 816 109 937 c 0
 109 1080 184 1149 321 1149 c 0
 452 1149 524 1052 524 880 c 2
 524 174 l 1
 984 402 l 1
 984 1139 l 1
 1144 1139 l 1
 1144 475 l 1
 1281 466 1349 376 1350 205 c 0
 1352 56 1278 -10 1143 -10 c 0
 1033 -10 982 91 985 243 c 1
 519 0 l 1
 364 0 l 1
 364 769 l 1xfb
1144 328 m 1
 1144 165 l 2
 1145 127 1152 106 1183 103 c 0
 1218 106 1236 139 1237 202 c 0
 1237 242 1224 275 1199 301 c 0
 1181 319 1169 328 1144 328 c 1
284 856 m 0
 344 856 376 887 376 947 c 0xf7
 376 992 348 1024 296 1024 c 0
 246 1024 212 1000 212 943 c 0
 212 898 236 856 284 856 c 0
EndSplineSet
EndChar
StartChar: uni0E1A
Encoding: 147 3610 149
Width: 1300
Flags: W
HStem: 0 148<487 1153> 743 112<223 255> 1023 127<263 285>
VStem: 75 106<940 957> 328 160<0 881> 345 143<881 946> 993 160<148 1139>
Fore
488 148 m 1xfa
 993 148 l 1
 993 1139 l 1
 1153 1139 l 1
 1153 0 l 1
 328 0 l 1
 328 770 l 1
 309 749 274 743 223 743 c 0
 129 743 75 849 75 957 c 0
 75 1071 169 1150 285 1150 c 0
 417 1150 488 1064 488 881 c 2
 488 148 l 1xfa
253 855 m 0
 313 855 345 886 345 946 c 0xf6
 345 993 315 1023 265 1023 c 0
 215 1023 181 993 181 942 c 0
 181 897 207 855 253 855 c 0
EndSplineSet
EndChar
StartChar: uni0E1B
Encoding: 148 3611 150
Width: 1300
Flags: HW
HStem: 0 148<513 1179> 743 112<249 281> 1023 127<289 311>
VStem: 101 106<940 957> 354 160<0 881> 371 143<881 946> 1019 160<148 1480>
AnchorPoint: "AboveBase" 920 1227 basechar 0
Fore
514 148 m 1xfa
 1019 148 l 1
 1019 1480 l 1
 1179 1480 l 1
 1179 0 l 1
 354 0 l 1
 354 770 l 1
 335 749 300 743 249 743 c 0
 155 743 101 849 101 957 c 0
 101 1071 195 1150 311 1150 c 0
 443 1150 514 1064 514 881 c 2
 514 148 l 1xfa
279 855 m 0
 339 855 371 886 371 946 c 0xf6
 371 993 341 1023 291 1023 c 0
 241 1023 207 993 207 942 c 0
 207 897 233 855 279 855 c 0
EndSplineSet
EndChar
StartChar: uni0E1C
Encoding: 149 3612 151
Width: 1200
Flags: W
HStem: 0 21G<134 294 880 1040> 741 109<346 378> 1018 132<337 360>
VStem: 134 140<881 937> 134 160<0 770> 438 110<927 945> 880 160<211 1139>
Fore
134 881 m 2xf6
 134 1048 212 1150 337 1150 c 0
 476 1150 548 1064 548 930 c 0
 548 817 460 741 378 741 c 0
 341 741 313 751 294 770 c 1
 294 214 l 1
 570 627 l 1
 618 627 l 1
 880 211 l 1
 880 1139 l 1
 1040 1139 l 1
 1040 0 l 1
 880 0 l 1
 597 406 l 1
 294 0 l 1
 134 0 l 1xee
 134 881 l 2xf6
346 850 m 0
 406 850 438 881 438 941 c 0
 438 984 412 1018 358 1018 c 0
 316 1018 274 984 274 937 c 0xf6
 274 892 308 850 346 850 c 0
EndSplineSet
EndChar
StartChar: uni0E1D
Encoding: 150 3613 152
Width: 1200
Flags: HW
HStem: 0 21G<153 313 899 1059> 741 109<365 397> 1018 132<356 379>
VStem: 153 140<881 937> 153 160<0 770> 457 110<927 945> 899 160<211 1480>
AnchorPoint: "AboveBase" 799 1227 basechar 0
Fore
313 214 m 1xee
 589 627 l 1
 637 627 l 1
 899 211 l 1
 899 1480 l 1
 1059 1480 l 1
 1059 0 l 1
 899 0 l 1
 616 406 l 1
 313 0 l 1
 153 0 l 1xee
 153 881 l 2xf6
 153 1048 231 1150 356 1150 c 0
 495 1150 567 1064 567 930 c 0
 567 817 479 741 397 741 c 0
 360 741 332 751 313 770 c 1
 313 214 l 1xee
365 850 m 0
 425 850 457 881 457 941 c 0
 457 984 431 1018 377 1018 c 0
 335 1018 293 984 293 937 c 0xf6
 293 892 327 850 365 850 c 0
EndSplineSet
EndChar
StartChar: uni0E1E
Encoding: 151 3614 153
Width: 1350
Flags: W
HStem: 0 21G<300 490 1016 1206> 740 117<214 229> 1025 124<237 257>
VStem: 46 109<928.479 950> 300 160<0 880> 319 141<880 948> 1046 160<260 1139>
Fore
460 263 m 1xfa
 721 1083 l 1
 769 1083 l 1
 1046 260 l 1
 1046 1139 l 1
 1206 1139 l 1
 1206 0 l 1
 1016 0 l 1
 745 810 l 1
 490 0 l 1
 300 0 l 1
 300 769 l 1
 281 750 253 740 216 740 c 0
 114 740 46 814 46 943 c 0
 46 1074 123 1149 257 1149 c 0
 387 1149 460 1056 460 880 c 2
 460 263 l 1xfa
227 857 m 0
 287 857 319 888 319 948 c 0xf6
 319 996 282 1025 239 1025 c 0
 189 1025 155 990 155 944 c 0
 155 899 180 857 227 857 c 0
EndSplineSet
EndChar
StartChar: uni0E1F
Encoding: 152 3615 154
Width: 1450
Flags: HW
HStem: 0 21G<381 571 1097 1287> 740 117<295 310> 1025 124<318 338>
VStem: 127 109<928.479 950> 381 160<0 880> 400 141<880 948> 1127 160<260 1480>
AnchorPoint: "AboveBase" 1031 1227 basechar 0
Fore
541 263 m 1xfa
 802 1083 l 1
 850 1083 l 1
 1127 260 l 1
 1127 1480 l 1
 1287 1480 l 1
 1287 0 l 1
 1097 0 l 1
 826 810 l 1
 571 0 l 1
 381 0 l 1
 381 769 l 1
 362 750 334 740 297 740 c 0
 195 740 127 814 127 943 c 0
 127 1074 204 1149 338 1149 c 0
 468 1149 541 1056 541 880 c 2
 541 263 l 1xfa
308 857 m 0
 368 857 400 888 400 948 c 0xf6
 400 996 363 1025 320 1025 c 0
 270 1025 236 990 236 944 c 0
 236 899 261 857 308 857 c 0
EndSplineSet
EndChar
StartChar: uni0E20
Encoding: 153 3616 155
Width: 1350
Flags: W
HStem: -10 122<247 281> 280 119<240 259> 990 160<761 791>
VStem: 70 105<185.061 205> 339 145<203 259> 1058 160<0 679>
Fore
1058 658 m 2
 1058 869 951 990 761 990 c 0
 630 990 521 937 433 826 c 1
 518 801 581 747 622 664 c 1
 530 591 484 505 484 404 c 2
 484 259 l 2
 484 84 401 -10 281 -10 c 0
 150 -10 70 72 70 198 c 0
 70 318 141 399 240 399 c 0
 277 399 305 389 324 370 c 1
 324 404 l 2
 325 513 368 603 453 672 c 1
 416 731 350 771 255 793 c 1
 359 1031 528 1150 761 1150 c 0
 1059 1150 1218 986 1218 674 c 2
 1218 0 l 1
 1058 0 l 1
 1058 658 l 2
247 112 m 0
 309 112 339 143 339 203 c 0
 339 246 313 280 259 280 c 0
 207 280 175 246 175 199 c 0
 175 154 207 112 247 112 c 0
EndSplineSet
EndChar
StartChar: uni0E21
Encoding: 154 3617 156
Width: 1350
Flags: W
HStem: 0 21G<990 1151> 739 116<293 310> 1023 127<294 321>
VStem: 118 106<933 957> 170 108<181 215> 371 159<157 243 445 881> 388 143<881 946> 991 160<159 1139>
Fore
371 446 m 1xed
 371 770 l 1xed
 357 751 333 739 300 739 c 0
 192 739 118 820 118 957 c 0
 118 1071 192 1150 319 1150 c 0
 462 1150 531 1061 531 881 c 2
 531 409 l 1xf3
 991 159 l 1
 991 1139 l 1
 1151 1139 l 1
 1151 0 l 1
 990 0 l 1
 530 243 l 1
 530 146 l 2
 524 43 472 -10 372 -10 c 0
 242 -10 170 62 170 205 c 0
 170 369 240 443 371 446 c 1xed
371 328 m 1
 307 326 278 285 278 202 c 0
 278 149 294 117 332 113 c 0
 363 110 370 133 371 174 c 2
 371 328 l 1
296 855 m 0
 354 855 388 886 388 946 c 0
 388 993 366 1023 308 1023 c 0
 258 1023 224 993 224 942 c 0xf3
 224 897 258 855 296 855 c 0
EndSplineSet
EndChar
StartChar: uni0E22
Encoding: 155 3618 157
Width: 1200
Flags: W
HStem: 0 156<345 1027> 743 112<412 441> 1023 126<410 433>
VStem: 199 146<0 369> 504 109<926 948> 867 160<156 1139>
Fore
350 562 m 1
 238 584 176 703 176 845 c 0
 176 1011 234 1149 418 1149 c 0
 546 1149 613 1077 613 926 c 0
 613 809 546 743 441 743 c 0
 390 743 356 753 339 770 c 1
 342 704 371 660 426 637 c 0
 459 623 525 617 624 618 c 1
 624 505 l 1
 527 505 460 497 423 481 c 0
 371 458 345 413 345 347 c 2
 345 156 l 1
 867 156 l 1
 867 1139 l 1
 1027 1139 l 1
 1027 0 l 1
 199 0 l 1
 199 349 l 2
 199 444 249 515 350 562 c 1
412 855 m 0
 474 855 504 886 504 946 c 0
 504 993 474 1023 424 1023 c 0
 374 1023 340 993 340 942 c 0
 340 897 366 855 412 855 c 0
EndSplineSet
EndChar
StartChar: uni0E23
Encoding: 156 3619 158
Width: 1100
Flags: W
HStem: -10 119<663 685> 277 106<641 683> 998 151<551 585>
VStem: 490 109<187 202> 723 160<363 574>
Fore
883 304 m 2
 883 77 838 -10 683 -10 c 0
 557 -10 490 57 490 189 c 0
 490 297 540 383 641 383 c 0
 676 383 703 379 723 363 c 1
 723 529 l 2
 723 584 692 626 629 656 c 0
 520 692 345 727 104 762 c 1
 173 1020 330 1149 573 1149 c 0
 638 1149 701 1137 760 1114 c 128
 820 1090 865 1078 893 1071 c 0
 942 1059 991 1061 1041 1072 c 1
 1002 917 l 1
 970 904 930 903 871 914 c 0
 829 922 783 935 734 960 c 128
 684 985 626 998 561 998 c 0
 468 998 390 957 348 872 c 1
 564 829 705 786 772 745 c 0
 846 699 883 639 883 574 c 2
 883 304 l 2
671 109 m 0
 731 109 763 140 763 200 c 0
 763 237 737 277 683 277 c 0
 630 277 599 249 599 196 c 0
 599 151 636 109 671 109 c 0
EndSplineSet
EndChar
StartChar: uni0E24
Encoding: 157 3620 159
Width: 1240
Flags: W
HStem: -11 116<392 419> 273 124<417 429> 989 160<628 651>
VStem: 191 142<192 258> 191 160<258 421> 497 107<179 203> 925 160<-380 693>
Fore
1085 673 m 2xee
 1085 -380 l 1
 925 -380 l 1
 925 657 l 2
 925 872 820 989 628 989 c 0
 482 989 373 934 300 825 c 1
 379 808 442 754 489 663 c 1
 397 592 351 505 351 403 c 2
 351 369 l 1xee
 367 387 392 396 427 397 c 0
 553 396 604 321 604 201 c 0
 604 69 526 -11 394 -11 c 0
 268 -11 191 86 191 258 c 2xf6
 191 403 l 2
 191 508 234 598 320 671 c 1
 293 730 227 770 122 792 c 1
 227 1030 396 1149 628 1149 c 0
 922 1149 1085 986 1085 673 c 2xee
405 105 m 0
 472 105 497 136 497 196 c 0
 497 243 460 273 417 273 c 0
 367 273 333 243 333 192 c 0xf6
 333 147 358 105 405 105 c 0
EndSplineSet
EndChar
StartChar: uni0E25
Encoding: 158 3621 160
Width: 1255
Flags: W
HStem: -11 115<432 456> 272 127<454 471> 604 140<587 637> 984 165<571 621>
VStem: 221 151<191 258> 536 99<180 197> 924 160<0 726>
Fore
1084 713 m 2
 1084 0 l 1
 924 0 l 1
 924 263 l 2
 923 361 896 442 840 508 c 128
 786 572 711 604 608 604 c 0
 539 604 484 586 443 548 c 128
 402 511 381 464 381 407 c 2
 381 369 l 1
 399 389 429 399 471 399 c 0
 585 399 635 327 635 193 c 0
 635 128 613 77 574 42 c 128
 535 7 489 -11 433 -11 c 0
 373 -11 323 9 282 52 c 128
 241 95 221 164 221 258 c 2
 221 388 l 2
 221 508 261 598 340 656 c 128
 423 717 510 745 610 744 c 0
 683 745 749 731 808 702 c 128
 866 673 905 642 924 609 c 1
 924 714 l 2
 923 886 801 984 596 984 c 0
 468 984 339 934 210 834 c 1
 156 944 l 1
 291 1077 439 1149 598 1149 c 0
 909 1149 1083 994 1084 713 c 2
444 104 m 0
 513 104 536 135 536 195 c 0
 536 243 507 272 456 272 c 0
 406 272 372 243 372 191 c 0
 372 146 399 104 444 104 c 0
EndSplineSet
EndChar
StartChar: uni0E26
Encoding: 159 3622 161
Width: 1350
Flags: W
HStem: -10 122<262 296> 280 119<255 274> 990 160<776 806>
VStem: 85 105<195 213> 354 145<203 259> 1073 160<-380 676>
Fore
1233 674 m 2
 1233 -380 l 1
 1073 -380 l 1
 1073 658 l 2
 1072 869 966 990 776 990 c 0
 645 990 536 937 448 826 c 1
 533 801 596 747 637 664 c 1
 545 591 499 505 499 404 c 2
 499 259 l 2
 499 84 416 -10 296 -10 c 0
 165 -10 85 72 85 198 c 0
 85 318 156 399 255 399 c 0
 292 399 320 389 339 370 c 1
 339 404 l 2
 340 513 383 603 468 672 c 1
 431 731 365 771 270 793 c 1
 374 1031 543 1150 776 1150 c 0
 1074 1150 1232 986 1233 674 c 2
262 112 m 0
 324 112 354 143 354 203 c 0
 354 246 328 280 274 280 c 0
 222 280 190 246 190 199 c 0
 190 154 222 112 262 112 c 0
EndSplineSet
EndChar
StartChar: uni0E27
Encoding: 160 3623 162
Width: 1150
Flags: W
HStem: -10 123<758 790> 281 117<749 770> 1002 147<546 581>
VStem: 579 107<179 206> 834 160<369 759> 850 144<204 258>
Fore
994 742 m 2xf8
 994 258 l 2xf4
 994 79 924 -10 790 -10 c 0
 663 -10 579 78 579 179 c 0
 579 300 630 398 749 398 c 0
 786 398 815 388 834 369 c 1
 834 738 l 2
 834 816 816 876 774 925 c 128
 730 974 655 1002 546 1002 c 0
 402 1002 275 958 170 866 c 1
 96 927 l 1
 217 1070 378 1149 546 1149 c 0
 695 1149 806 1111 882 1040 c 128
 956 970 994 870 994 742 c 2xf8
758 113 m 0
 818 113 850 144 850 204 c 0
 850 252 824 281 770 281 c 0
 714 281 686 252 686 200 c 0
 686 155 714 113 758 113 c 0
EndSplineSet
EndChar
StartChar: uni0E28
Encoding: 161 3624 163
Width: 1300
Flags: W
HStem: 0 21G<181 391 971 1131> 344 116<657 681> 625 121<658 681> 989 160<590 644>
VStem: 99 161<639 675> 758 98<541 555> 971 160<0 675>
Fore
941 1067 m 1
 987 1096 1027 1148 1062 1224 c 1
 1280 1224 l 1
 1243 1108 1171 1013 1064 939 c 1
 1108 864 1130 768 1131 651 c 2
 1131 0 l 1
 971 0 l 1
 971 650 l 2
 971 856 824 989 617 989 c 0
 400 989 260 857 260 646 c 0
 262 529 281 399 316 256 c 1
 339 418 383 540 446 623 c 128
 509 706 580 746 658 746 c 0
 784 746 856 672 856 553 c 0
 856 432 784 344 664 344 c 0
 584 344 552 368 525 424 c 1
 472 319 428 177 391 0 c 1
 181 0 l 1
 181 108 l 2
 180 183 163 289 130 424 c 0
 109 513 99 596 99 673 c 0
 100 973 296 1149 612 1149 c 0
 749 1149 858 1120 941 1067 c 1
673 460 m 0
 728 460 758 491 758 543 c 0
 758 592 728 625 679 625 c 0
 625 625 592 592 592 543 c 0
 592 494 618 460 673 460 c 0
EndSplineSet
EndChar
StartChar: uni0E29
Encoding: 162 3625 164
Width: 1350
Flags: W
HStem: -1 148<454 1119> 423 112<891 923> 698 67<780.5 796> 741 113<211 234> 1022 127<230 252>
VStem: 40 108<926 948> 295 160<-1 880> 312 143<880 945> 657 79<621 644> 850 71<637 654> 960 159<147 493 543 1138>
Fore
1120 654 m 1xeee0
 1147 681 1161 721 1161 773 c 1
 1268 773 l 1
 1268 655 1219 562 1120 493 c 1
 1119 -1 l 1
 295 -1 l 1
 295 769 l 1
 274 743 261 741 213 741 c 0xdee0
 99 741 40 837 40 946 c 0
 40 1089 127 1149 252 1149 c 0
 388 1149 455 1057 455 880 c 2
 455 147 l 1
 960 147 l 1
 960 435 l 1
 926 422 927 423 891 423 c 128
 711 423 657 549 657 621 c 0
 657 705 721 765 794 765 c 0
 873 765 921 723 921 639 c 0
 921 603 899 563 854 548 c 1
 872 539 890 535 911 535 c 0
 926 535 943 538 960 543 c 1
 960 1138 l 1
 1120 1138 l 1
 1120 654 l 1xeee0
850 641 m 0
 850 674 834 698 793 698 c 0xece0
 760 698 736 678 736 644 c 0
 736 618 756 588 792 588 c 0
 834 588 850 608 850 641 c 0
220 854 m 0xdde0
 280 854 312 885 312 945 c 0
 312 999 285 1022 232 1022 c 0
 189 1022 148 987 148 941 c 0
 148 896 177 854 220 854 c 0xdde0
EndSplineSet
EndChar
StartChar: uni0E2A
Encoding: 163 3626 165
Width: 1250
Flags: W
HStem: -11 115<398 421> 272 127<419 436> 604 140<552 600> 984 165<536 586>
VStem: 186 151<191 258> 501 99<180 197> 889 160<0 726>
Fore
922 1037 m 1
 983 1081 1024 1138 1046 1209 c 1
 1212 1209 l 1
 1204 1142 1177 1082 1131 1031 c 128
 1085 980 1042 948 1001 936 c 1
 1032 875 1049 786 1049 713 c 2
 1049 0 l 1
 889 0 l 1
 889 263 l 2
 888 361 860 442 806 508 c 128
 750 572 663 604 573 604 c 0
 504 604 449 586 408 548 c 128
 367 511 346 464 346 407 c 2
 346 369 l 1
 364 389 394 399 436 399 c 0
 543 399 600 324 600 193 c 0
 600 128 578 77 539 42 c 128
 500 7 453 -11 398 -11 c 0
 338 -12 288 9 247 52 c 128
 206 95 186 164 186 258 c 2
 186 388 l 2
 186 508 230 593 306 656 c 128
 381 720 483 744 575 744 c 0
 648 744 714 731 772 702 c 128
 831 673 870 642 889 609 c 1
 889 714 l 2
 888 886 771 984 561 984 c 0
 423 984 304 934 175 834 c 1
 121 944 l 1
 256 1077 405 1149 563 1149 c 0
 721 1149 841 1107 922 1037 c 1
409 104 m 0
 471 104 501 135 501 195 c 0
 501 246 465 272 421 272 c 0
 371 272 337 234 337 191 c 0
 337 146 369 104 409 104 c 0
EndSplineSet
EndChar
StartChar: uni0E2B
Encoding: 164 3627 166
Width: 1350
Flags: W
HStem: 0 21G<332 556 1038 1198> 748 115<255 277> 1019 125<963 981> 1031 118<275 298>
VStem: 100 100<936 961> 332 160<0 924> 364 128<924 956> 775 118<922 952> 1038 160<0 610> 1057 128<927 956>
Fore
492 190 m 1xdd80
 535 315 594 430 670 538 c 128
 745 644 810 721 865 767 c 1
 803 798 775 859 775 950 c 0
 775 1068 846 1144 972 1144 c 0
 1106 1144 1185 1068 1185 956 c 0xed40
 1185 865 1158 801 1107 764 c 1
 1156 733 1198 660 1198 610 c 2
 1198 0 l 1
 1038 0 l 1
 1038 594 l 2
 1038 637 1017 669 976 690 c 1
 917 646 843 556 754 419 c 128
 665 282 599 143 556 0 c 1
 332 0 l 1
 332 767 l 1
 313 754 288 748 255 748 c 0
 174 748 100 822 100 956 c 0
 100 1062 180 1149 296 1149 c 0
 426 1149 492 1075 492 924 c 2
 492 190 l 1xdd80
272 863 m 0
 336 863 364 894 364 954 c 0
 364 1008 330 1031 284 1031 c 0xdb
 234 1031 200 996 200 950 c 0
 200 905 234 863 272 863 c 0
965 851 m 0
 1025 851 1057 882 1057 942 c 0
 1057 978 1031 1019 977 1019 c 0xe940
 924 1019 893 984 893 938 c 0
 893 893 918 851 965 851 c 0
EndSplineSet
EndChar
StartChar: uni0E2C
Encoding: 165 3628 167
Width: 1400
Flags: HW
HStem: 0 21G<317 507 1033 1223> 740 117<231 246> 1025 124<254 274> 1412 107<1062 1072>
VStem: 63 109<928.163 961> 317 160<0 880> 336 141<880 948> 895 95<1329 1352> 1063 160<260 1159> 1129 94<1341 1351>
AnchorPoint: "AboveBase" 875 1227 basechar 0
Fore
1063 1167 m 1xfd80
 956 1170 895 1230 895 1348 c 0
 895 1468 954 1519 1062 1519 c 0
 1164 1519 1221 1460 1223 1349 c 2
 1223 1281 l 1xf940
 1264 1281 1297 1296 1324 1328 c 128
 1351 1358 1363 1405 1359 1467 c 1
 1459 1467 l 1
 1466 1360 1445 1282 1398 1234 c 128
 1350 1186 1293 1161 1223 1159 c 1xf980
 1223 0 l 1xf940
 1033 0 l 1
 762 810 l 1
 507 0 l 1
 317 0 l 1
 317 769 l 1
 298 750 270 740 233 740 c 0
 132 740 63 810 63 943 c 0
 63 1076 140 1149 274 1149 c 0
 404 1149 477 1056 477 880 c 2
 477 263 l 1
 738 1083 l 1
 786 1083 l 1
 1063 260 l 1
 1063 1167 l 1xfd80
244 857 m 0
 304 857 336 888 336 948 c 0xfb
 336 996 316 1025 256 1025 c 0
 206 1025 172 1004 172 944 c 0
 172 899 196 857 244 857 c 0
1060 1275 m 0
 1100 1275 1129 1304 1129 1345 c 0xf940
 1129 1388 1100 1412 1062 1412 c 0
 1015 1412 990 1388 990 1343 c 0
 990 1301 1019 1275 1060 1275 c 0
EndSplineSet
EndChar
StartChar: uni0E2D
Encoding: 166 3629 168
Width: 1230
Flags: W
HStem: 0 159<383 1050> 340 120<442 460> 628 120<436 460> 1002 147<534 601>
VStem: 223 160<0 366> 534 104<525 553> 890 160<159 753>
Fore
1050 749 m 2
 1050 0 l 1
 223 0 l 1
 223 434 l 2
 224 641 295 748 436 748 c 0
 568 748 638 660 638 525 c 0
 638 404 568 340 458 340 c 0
 432 340 407 349 383 366 c 1
 384 159 l 1
 890 159 l 1
 890 738 l 2
 889 899 752 1002 570 1002 c 0
 429 1002 315 957 226 866 c 1
 152 927 l 1
 265 1075 403 1149 566 1149 c 0
 896 1149 1050 1012 1050 749 c 2
442 460 m 0
 504 460 534 491 534 551 c 0
 534 588 504 628 454 628 c 0
 404 628 370 588 370 547 c 0
 370 502 392 460 442 460 c 0
EndSplineSet
EndChar
StartChar: uni0E2E
Encoding: 167 3630 169
Width: 1250
Flags: W
HStem: 0 159<388 1057> 343 117<445 465> 628 120<439 467> 764 111<553 603> 1038 111<569 619>
VStem: 228 160<0 373> 537 106<525 553> 895 161<159 748>
Fore
1057 0 m 1
 228 0 l 1
 228 434 l 2
 227 639 300 748 441 748 c 0
 572 748 643 676 643 525 c 0
 643 407 572 343 465 343 c 0
 432 343 406 356 388 373 c 1
 388 159 l 1
 895 159 l 1
 895 715 l 2
 895 776 886 819 868 842 c 1
 799 791 706 764 588 764 c 0
 348 764 219 832 202 958 c 1
 248 1085 372 1149 585 1149 c 0
 711 1149 815 1121 898 1064 c 1
 926 1100 943 1131 950 1158 c 1
 1072 1116 l 1
 1049 1061 1023 1014 994 975 c 1
 1034 925 1055 846 1056 739 c 2
 1057 0 l 1
824 952 m 1
 760 1009 684 1038 596 1038 c 0
 476 1038 401 1011 354 958 c 1
 372 910 476 875 583 875 c 0
 673 875 753 901 824 952 c 1
445 460 m 0
 508 460 537 491 537 551 c 0
 537 596 511 628 457 628 c 0
 396 628 373 604 373 547 c 0
 373 502 404 460 445 460 c 0
EndSplineSet
EndChar
StartChar: uni0E2F
Encoding: 168 3631 170
Width: 1150
Flags: W
HStem: 0 21G<865 1025> 692 140<460 495.094> 1034 104<313 335>
VStem: 126 117<943 961> 407 124<943 961> 865 160<0 1149>
Fore
1025 1149 m 1
 1025 0 l 1
 865 0 l 1
 865 830 l 1
 770 746 630 692 460 692 c 0
 288 692 126 780 126 950 c 0
 126 1056 208 1138 330 1138 c 0
 457 1138 531 1064 531 955 c 0
 531 894 509 853 462 832 c 1
 560 832 644 857 730 915 c 128
 818 973 862 1051 865 1149 c 1
 1025 1149 l 1
315 866 m 0
 376 866 407 897 407 957 c 0
 407 1000 376 1034 327 1034 c 0
 277 1034 243 1008 243 953 c 0
 243 908 280 866 315 866 c 0
EndSplineSet
EndChar
StartChar: uni0E30
Encoding: 169 3632 171
Width: 1100
Flags: W
HStem: 62 186<332 484> 393 92<343 350> 548 186<332 484> 879 92<343 350>
VStem: 173 97<316 335 797 818> 412 93<316 335 797 819>
Fore
173 330 m 0
 173 420 236 485 343 485 c 0
 452 485 505 420 505 318 c 0
 505 269 479 230 438 199 c 1
 515 174 594 182 676 226 c 128
 757 268 798 353 798 479 c 1
 914 479 l 1
 914 341 874 237 794 166 c 128
 715 95 612 62 484 62 c 0
 391 62 316 87 258 132 c 128
 200 178 173 244 173 330 c 0
332 248 m 0
 388 248 412 275 412 327 c 0
 412 356 388 393 343 393 c 0
 300 393 270 372 270 323 c 0
 270 284 308 248 332 248 c 0
173 816 m 0
 173 900 236 971 343 971 c 0
 444 971 505 908 505 804 c 0
 505 755 479 716 438 685 c 1
 515 660 594 668 676 712 c 128
 757 754 798 839 798 965 c 1
 914 965 l 1
 914 827 874 723 794 652 c 128
 715 581 604 548 484 548 c 0
 391 548 316 573 258 618 c 128
 200 664 173 730 173 816 c 0
332 734 m 0
 388 734 412 761 412 813 c 0
 412 844 380 879 343 879 c 0
 300 879 270 852 270 809 c 0
 270 770 292 734 332 734 c 0
EndSplineSet
EndChar
StartChar: uni0E31
Encoding: 170 3633 172
Width: 0
Flags: HW
HStem: 1545 92<-586 -579>
VStem: -756 97<1468 1487> -517 93<1468 1487>
AnchorPoint: "AboveMark" -262 1740 basemark 0
AnchorPoint: "AboveBase" -180 1227 mark 0
Fore
-756 1482 m 0
 -756 1576 -693 1637 -586 1637 c 0
 -480 1637 -424 1576 -424 1470 c 0
 -424 1421 -450 1382 -491 1351 c 1
 -414 1326 -335 1334 -254 1378 c 128
 -172 1420 -131 1505 -131 1631 c 1
 -15 1631 l 1
 -15 1493 -55 1389 -134 1318 c 128
 -214 1247 -312 1214 -445 1214 c 0
 -538 1214 -613 1239 -671 1284 c 128
 -729 1330 -756 1396 -756 1482 c 0
-597 1400 m 0
 -544 1400 -517 1427 -517 1479 c 0
 -517 1520 -544 1545 -586 1545 c 0
 -629 1545 -659 1528 -659 1475 c 0
 -659 1436 -640 1400 -597 1400 c 0
EndSplineSet
EndChar
StartChar: uni0E32
Encoding: 171 3634 173
Width: 1150
Flags: W
HStem: 0 21G<796 956> 990 159<546 571>
VStem: 796 160<0 755>
Fore
956 753 m 2
 956 0 l 1
 796 0 l 1
 796 729 l 2
 796 814 774 878 730 923 c 128
 687 968 625 990 546 990 c 0
 416 990 314 930 258 816 c 1
 138 837 l 1
 208 1043 344 1149 546 1149 c 0
 675 1149 775 1108 848 1033 c 128
 921 958 956 868 956 753 c 2
EndSplineSet
EndChar
StartChar: uni0E33
Encoding: 172 3635 174
Width: 1050
Flags: W
HStem: 0 21G<781 941> 990 159<531 546> 1212 138<-304 -286> 1521 147<-304 -286>
VStem: -527 147<1423 1443> -207 141<1423 1443> 781 160<0 755>
Fore
-299 1668 m 0
 -156 1668 -66 1576 -66 1441 c 0
 -66 1304 -148 1212 -299 1212 c 0
 -436 1212 -527 1294 -527 1441 c 0
 -527 1576 -439 1668 -299 1668 c 0
941 753 m 2
 941 0 l 1
 781 0 l 1
 781 729 l 2
 781 816 759 878 716 923 c 128
 672 968 610 990 531 990 c 0
 404 990 299 930 243 816 c 1
 123 837 l 1
 193 1043 316 1149 531 1149 c 0
 660 1149 760 1108 833 1033 c 128
 906 958 941 864 941 753 c 2
-295 1521 m 0
 -347 1521 -380 1488 -380 1436 c 0
 -380 1381 -349 1350 -295 1350 c 0
 -244 1350 -207 1384 -207 1436 c 0
 -207 1490 -244 1521 -295 1521 c 0
EndSplineSet
Substitution: 0 65534 'amaa' uni0E32
MultipleSubs: 0 65534 'G002' uni0E4D uni0E32
EndChar
StartChar: uni0E34
Encoding: 173 3636 175
Width: 0
Flags: HW
HStem: 1322 91<-1124 -898> 1528 116<-661 -627>
AnchorPoint: "AboveMark" -272 1740 basemark 0
AnchorPoint: "AboveBase" -180 1227 mark 0
Fore
-180 1227 m 1
 -318 1257 -490 1280 -696 1297 c 128
 -903 1314 -1045 1322 -1124 1322 c 1
 -1081 1433 -1005 1520 -897 1583 c 0
 -824 1624 -744 1644 -658 1644 c 0
 -500 1644 -412 1595 -327 1515 c 0
 -248 1441 -199 1345 -180 1227 c 1
-365 1359 m 1
 -423 1462 -500 1528 -642 1528 c 0
 -755 1528 -841 1490 -898 1413 c 1
 -835 1414 -738 1406 -606 1392 c 128
 -473 1376 -393 1366 -365 1359 c 1
EndSplineSet
EndChar
StartChar: uni0E35
Encoding: 174 3637 176
Width: 0
Flags: HW
HStem: 1323 101<-1124 -873> 1511 131<-658 -616>
VStem: -337 150<1525 1735>
AnchorPoint: "AboveMark" -262 1740 basemark 0
AnchorPoint: "AboveBase" -180 1227 mark 0
Fore
-187 1260 m 1
 -184 1249 -182 1238 -180 1228 c 1
 -323 1259 -533 1285 -810 1308 c 0
 -941 1318 -1046 1323 -1124 1323 c 1
 -1103 1392 -1049 1463 -962 1534 c 128
 -875 1606 -773 1642 -658 1642 c 0
 -524 1642 -421 1603 -337 1525 c 1
 -337 1735 l 1
 -187 1735 l 1
 -187 1260 l 1
-379 1370 m 1
 -417 1457 -508 1511 -616 1511 c 0
 -739 1511 -824 1483 -873 1424 c 1
 -775 1424 -651 1413 -501 1392 c 0
 -448 1385 -408 1377 -379 1370 c 1
EndSplineSet
EndChar
StartChar: uni0E36
Encoding: 175 3638 177
Width: 0
Flags: HW
HStem: 1321 108<-202 -195> 1514 128<-677 -627> 1568 113<-198 -196>
VStem: -124 110<1487.38 1505>
AnchorPoint: "AboveMark" -198 1740 basemark 0
AnchorPoint: "AboveBase" -180 1227 mark 0
Fore
-367 1548 m 1xd0
 -352 1633 -296 1681 -198 1681 c 0xb0
 -88 1681 -14 1604 -14 1502 c 0
 -14 1396 -79 1321 -202 1321 c 1
 -196 1304 -189 1273 -180 1228 c 1
 -323 1259 -533 1285 -810 1308 c 0
 -941 1318 -1046 1323 -1124 1323 c 1
 -1108 1401 -1059 1474 -977 1542 c 128
 -895 1610 -792 1642 -658 1642 c 0
 -564 1642 -439 1611 -367 1548 c 1xd0
-198 1568 m 0
 -243 1568 -270 1540 -270 1500 c 0
 -270 1455 -245 1429 -198 1429 c 0
 -160 1429 -124 1455 -124 1500 c 0
 -124 1524 -144 1568 -198 1568 c 0
-374 1358 m 1
 -410 1460 -504 1514 -648 1514 c 0xd0
 -760 1514 -840 1480 -877 1412 c 1
 -778 1412 -653 1401 -501 1380 c 0
 -445 1373 -403 1365 -374 1358 c 1
EndSplineSet
EndChar
StartChar: uni0E37
Encoding: 176 3639 178
Width: 0
Flags: HW
HStem: 1479 128<-674 -624>
VStem: -337 150<1493 1695>
AnchorPoint: "AboveMark" -376 1740 basemark 0
AnchorPoint: "AboveBase" -180 1227 mark 0
Fore
-416 1570 m 1
 -401 1570 -376 1554 -341 1523 c 2
 -337 1519 l 1
 -337 1721 l 1
 -187 1721 l 1
 -187 1284 l 1
 -185 1227 l 1
 -327 1258 -542 1284 -830 1307 c 0
 -949 1317 -1041 1322 -1105 1322 c 1
 -1074 1415 -1009 1494 -909 1560 c 0
 -840 1605 -753 1633 -641 1633 c 0
 -614 1633 -589 1629 -566 1624 c 1
 -566 1722 l 1
 -416 1722 l 1
 -416 1570 l 1
-399 1369 m 1
 -418 1408 -450 1441 -495 1468 c 0
 -541 1496 -586 1505 -649 1505 c 0
 -747 1505 -815 1472 -860 1413 c 1
 -860 1413 -785 1412 -737 1408 c 16
 -591 1397 -455 1384 -399 1369 c 1
EndSplineSet
EndChar
StartChar: uni0E38
Encoding: 177 3640 179
Width: 0
Flags: W
HStem: -375 67<-346 -320> -163 78<-333 -320>
VStem: -473 77<-247 -229> -281 123<-299 -237>
AnchorPoint: "BelowBase" -158 -85 mark 0
Fore
-289 -534 m 1
 -289 -360 l 1
 -299 -369 -310 -375 -322 -375 c 0
 -428 -375 -473 -331 -473 -244 c 0
 -473 -142 -422 -85 -320 -85 c 0
 -216 -85 -158 -158 -158 -299 c 2
 -158 -534 l 1
 -289 -534 l 1
-331 -163 m 0
 -374 -163 -396 -186 -396 -236 c 0
 -396 -285 -374 -308 -331 -308 c 0
 -296 -308 -281 -284 -281 -237 c 0
 -281 -190 -300 -163 -331 -163 c 0
EndSplineSet
EndChar
StartChar: uni0E39
Encoding: 178 3641 180
Width: 0
Flags: W
HStem: -534 99<-438 -158> -376 69<-635 -608> -163 78<-618 -599>
VStem: -752 77<-247 -230> -568 131<-534 -299> -560 123<-299 -232> -292 134<-435 -96>
AnchorPoint: "BelowBase" -158 -85 mark 0
Fore
-292 -96 m 1xfa
 -158 -96 l 1
 -158 -534 l 1
 -568 -534 l 1
 -568 -360 l 1
 -584 -376 -606 -376 -635 -376 c 0
 -699 -376 -752 -317 -752 -244 c 0
 -752 -152 -689 -85 -599 -85 c 0
 -538 -85 -494 -106 -470 -145 c 0
 -449 -178 -437 -236 -437 -299 c 2
 -437 -435 l 1
 -292 -435 l 1
 -292 -96 l 1xfa
-610 -163 m 0
 -648 -163 -675 -196 -675 -236 c 0
 -675 -279 -657 -307 -619 -307 c 0
 -575 -307 -560 -271 -560 -232 c 0xf6
 -560 -188 -579 -163 -610 -163 c 0
EndSplineSet
EndChar
StartChar: uni0E3A
Encoding: 179 3642 181
Width: 0
Flags: HW
AnchorPoint: "BelowBase" -158 -65 mark 0
Fore
-246 -60 m 0
 -171 -60 -111 -127 -111 -195 c 0
 -111 -269 -175 -330 -246 -330 c 0
 -317 -330 -380 -267 -380 -195 c 0
 -380 -123 -321 -60 -246 -60 c 0
EndSplineSet
EndChar
StartChar: uni0E3F
Encoding: 180 3647 182
Width: 1250
Flags: W
HStem: 0 170<348 541> 719 166<348 541 653 673.102> 1321 168<152 541>
VStem: 152 196<0 719 0 1321> 541 112<-133 2 170 717 885 1319 1489 1595> 885 207<1122 1148> 954 207<426 476>
Fore
883 827 m 1xfc
 972 802 1041 757 1089 693 c 0
 1137 627 1161 548 1161 457 c 0xfa
 1161 324 1114 216 1020 133 c 0
 926 50 804 6 653 2 c 1
 653 -133 l 1
 541 -133 l 1
 541 0 l 1
 152 0 l 1
 152 1489 l 1
 541 1489 l 1
 541 1595 l 1
 653 1595 l 1
 653 1489 l 1
 798 1487 908 1458 982 1402 c 0
 1055 1347 1092 1261 1092 1144 c 0
 1092 1082 1071 1024 1036 965 c 0
 992 892 944 868 883 827 c 1xfc
541 885 m 1
 541 1321 l 1
 348 1321 l 1
 348 885 l 1
 541 885 l 1
653 887 m 1
 712 888 765 906 814 941 c 0
 861 976 885 1037 885 1124 c 0xfc
 885 1189 868 1235 833 1264 c 0
 782 1305 736 1312 653 1319 c 1
 653 887 l 1
541 170 m 1
 541 719 l 1
 348 719 l 1
 348 170 l 1
 541 170 l 1
653 174 m 1
 741 178 813 202 869 246 c 0
 926 291 954 359 954 449 c 0xfa
 954 590 920 636 827 683 c 0
 782 706 724 717 653 717 c 1
 653 174 l 1
EndSplineSet
EndChar
StartChar: uni0E40
Encoding: 181 3648 183
Width: 700
Flags: W
HStem: -11 108<379 403> 304 93<390 408> 1129 20G<167 327>
VStem: 167 154<196 258> 485 95<173 198>
Fore
167 1149 m 1
 327 1149 l 1
 327 369 l 1
 344 388 369 397 403 397 c 0
 519 397 580 324 580 175 c 0
 580 66 507 -11 379 -11 c 0
 238 -11 167 82 167 258 c 2
 167 1149 l 1
395 97 m 0
 459 97 485 128 485 194 c 0
 485 270 453 304 395 304 c 0
 343 304 321 264 321 196 c 0
 321 131 346 97 395 97 c 0
EndSplineSet
EndChar
StartChar: uni0E41
Encoding: 182 3649 184
Width: 1320
Flags: W
HStem: -11 108<403 429 1018 1042> 304 93<414 432 1032 1044> 1129 20G<191 351 806 966>
VStem: 191 154<196 258> 509 95<173 214> 806 154<196 258> 1124 95<174 198>
Fore
191 1149 m 1
 351 1149 l 1
 351 369 l 1
 368 388 393 397 427 397 c 0
 532 397 604 324 604 196 c 0
 604 60 533 -11 403 -11 c 0
 262 -11 191 82 191 258 c 2
 191 1149 l 1
419 97 m 0
 484 97 509 128 509 194 c 0
 509 268 476 304 419 304 c 0
 367 304 345 260 345 196 c 0
 345 131 370 97 419 97 c 0
806 1149 m 1
 966 1149 l 1
 966 369 l 1
 983 388 1008 397 1042 397 c 0
 1156 397 1219 316 1219 175 c 0
 1219 68 1148 -11 1018 -11 c 0
 877 -11 806 82 806 258 c 2
 806 1149 l 1
1034 97 m 0
 1092 97 1124 128 1124 194 c 0
 1124 260 1092 304 1034 304 c 0
 982 304 960 260 960 196 c 0
 960 131 985 97 1034 97 c 0
EndSplineSet
EndChar
StartChar: uni0E42
Encoding: 183 3650 185
Width: 1100
Flags: W
HStem: -11 108<773 800> 304 93<787 806> 1603 140<837 872> 1704 140<404 438>
VStem: 561 154<196 258> 879 96<175 203>
Fore
561 1130 m 2xdc
 561 1211 552 1266 531 1297 c 0
 514 1322 465 1363 396 1392 c 128
 327 1421 202 1442 21 1455 c 1
 31 1530 70 1613 137 1706 c 128
 204 1798 302 1844 431 1844 c 0xdc
 536 1844 659 1776 748 1757 c 128
 785 1748 827 1743 872 1743 c 0
 950 1743 1011 1763 1056 1804 c 1
 1034 1650 l 1
 975 1619 910 1603 839 1603 c 0xec
 796 1603 759 1607 730 1615 c 128
 668 1629 520 1704 415 1704 c 0
 338 1704 277 1653 230 1560 c 1
 373 1541 481 1509 554 1466 c 128
 627 1422 672 1376 694 1321 c 0
 711 1279 721 1216 721 1132 c 2
 721 369 l 1
 738 386 764 397 798 397 c 0
 930 397 975 294 975 175 c 0
 975 54 908 -11 773 -11 c 0
 642 -11 561 78 561 258 c 2
 561 1130 l 2xdc
789 97 m 0
 846 97 879 134 879 201 c 0
 879 264 852 304 789 304 c 0
 741 304 715 264 715 196 c 0
 715 132 740 97 789 97 c 0
EndSplineSet
EndChar
StartChar: uni0E43
Encoding: 184 3651 186
Width: 1000
Flags: W
HStem: -11 108<746 772> 304 93<753 772> 1266 112<318 339> 1683 156<486 520>
VStem: 66 131<1492 1526> 534 154<196 258> 760 139<1460 1505> 852 95<175 198>
Fore
694 911 m 2xfe
 694 369 l 1
 705 383 730 397 770 397 c 0
 890 397 947 325 947 175 c 0xfd
 947 51 880 -11 746 -11 c 0
 600 -11 534 75 534 258 c 2
 534 913 l 2
 534 995 544 1052 562 1098 c 128
 582 1145 613 1192 658 1240 c 0
 726 1311 760 1390 760 1479 c 0
 760 1549 732 1600 677 1633 c 128
 622 1666 569 1682 518 1683 c 1
 599 1592 610 1475 536 1367 c 0
 488 1296 412 1266 325 1266 c 0
 160 1266 66 1335 66 1496 c 0
 66 1565 80 1633 128 1682 c 0
 220 1775 330 1839 486 1839 c 0
 625 1839 730 1795 797 1720 c 128
 867 1641 899 1568 899 1505 c 0
 899 1365 879 1292 814 1221 c 0
 767 1170 736 1126 719 1086 c 128
 702 1048 694 985 694 911 c 2xfe
762 97 m 0
 820 97 852 131 852 194 c 0
 852 265 830 304 762 304 c 0
 711 304 688 265 688 196 c 0
 688 132 717 97 762 97 c 0
320 1629 m 0
 241 1629 197 1595 197 1505 c 0
 197 1424 243 1378 328 1378 c 0
 420 1378 470 1424 470 1509 c 0
 470 1585 420 1629 320 1629 c 0
EndSplineSet
EndChar
StartChar: uni0E44
Encoding: 185 3652 187
Width: 1030
Flags: W
HStem: -11 108<723 750> 304 93<739 749> 1326 114<166 186> 1694 145<463 486>
VStem: 511 154<196 258> 829 95<175 203>
Fore
671 1608 m 2
 671 369 l 1
 694 391 721 396 747 397 c 0
 864 395 924 320 924 175 c 0
 924 56 854 -11 723 -11 c 0
 573 -11 508 82 511 258 c 2
 511 1594 l 2
 511 1661 495 1694 464 1694 c 0
 431 1698 396 1608 373 1488 c 0
 356 1400 271 1326 168 1326 c 0
 100 1326 48 1351 11 1400 c 0
 -25 1448 -74 1577 -135 1788 c 1
 14 1788 l 1
 72 1573 l 2
 96 1484 130 1440 174 1440 c 0
 208 1440 234 1464 252 1513 c 0
 255 1523 266 1563 286 1634 c 128
 304 1704 323 1750 341 1771 c 0
 363 1816 411 1839 486 1839 c 0
 610 1839 672 1762 671 1608 c 2
739 97 m 0
 796 97 829 134 829 201 c 0
 829 264 796 304 739 304 c 0
 688 304 665 264 665 196 c 0
 665 132 690 97 739 97 c 0
EndSplineSet
EndChar
StartChar: uni0E45
Encoding: 186 3653 188
Width: 1000
Flags: W
HStem: 989 160<447 482>
VStem: 723 160<-380 757>
Fore
883 753 m 2
 883 -380 l 1
 723 -380 l 1
 723 729 l 2
 723 901 636 989 460 989 c 0
 342 989 268 928 238 811 c 1
 65 837 l 1
 84 927 126 1002 190 1060 c 128
 256 1120 342 1149 449 1149 c 0
 604 1149 708 1114 778 1046 c 128
 848 976 883 879 883 753 c 2
EndSplineSet
EndChar
StartChar: uni0E46
Encoding: 187 3654 189
Width: 1100
Flags: W
HStem: 512 95<336 364> 808 92<354 405>
VStem: 139 130<713 756> 440 98<711 734> 788 160<-374 810>
Fore
352 607 m 0
 412 607 440 652 440 718 c 0
 440 778 404 808 354 808 c 0
 300 808 269 775 269 713 c 0
 269 652 291 607 352 607 c 0
788 -374 m 1
 788 817 l 2
 788 884 749 956 699 985 c 1
 555 887 l 1
 396 985 l 1
 369 966 349 935 337 892 c 1
 357 901 379 900 405 900 c 0
 484 900 538 835 538 732 c 0
 538 588 468 512 340 512 c 0
 194 512 139 612 139 756 c 0
 139 828 148 916 212 1005 c 128
 255 1066 313 1118 396 1155 c 1
 396 1154 449 1118 555 1047 c 1
 699 1155 l 1
 778 1142 840 1096 883 1018 c 128
 926 939 948 860 948 789 c 2
 948 -374 l 1
 788 -374 l 1
EndSplineSet
EndChar
StartChar: uni0E47
Encoding: 188 3655 190
Width: 0
Flags: HW
HStem: 1284 176<-468 -445> 1372 152<-754 -746> 1417 43<-460 -445> 1583 53<-461 -443> 1660 118<-662 -618>
VStem: -1035 148<1505 1523> -575 62<1506 1526> -385 93<1476 1519>
AnchorPoint: "AboveMark" -663 1227 mark 0
AnchorPoint: "AboveBase" -290 1227 mark 0
Fore
-453 1583 m 0x9f
 -486 1583 -513 1558 -513 1517 c 0
 -513 1482 -484 1460 -445 1460 c 0
 -408 1460 -385 1483 -385 1519 c 0
 -385 1558 -412 1583 -453 1583 c 0x9f
-526 1434 m 0
 -558 1454 -575 1483 -575 1522 c 0
 -575 1590 -516 1636 -452 1636 c 0
 -384 1636 -328 1610 -312 1566 c 0
 -302 1538 -292 1509 -292 1476 c 0
 -292 1370 -360 1284 -468 1284 c 0x9f
 -543 1284 -607 1300 -660 1333 c 0
 -687 1348 -714 1372 -754 1372 c 0x5f
 -796 1372 -785 1298 -795 1284 c 1x9f
 -894 1284 -964 1322 -1005 1393 c 0
 -1025 1428 -1035 1467 -1035 1510 c 0
 -1035 1630 -964 1710 -849 1751 c 0
 -799 1769 -730 1777 -641 1778 c 0
 -581 1779 -540 1782 -517 1789 c 0
 -459 1807 -416 1840 -397 1894 c 1
 -255 1894 l 1
 -260 1841 -288 1790 -341 1742 c 0
 -378 1708 -418 1686 -459 1675 c 0
 -491 1666 -547 1661 -628 1660 c 0
 -708 1659 -768 1650 -807 1631 c 0
 -860 1602 -886 1573 -887 1505 c 0
 -883 1471 -870 1426 -839 1430 c 1
 -839 1430 -837 1449 -834 1461 c 16
 -824 1502 -795 1524 -754 1524 c 0x5f
 -732 1524 -705 1511 -673 1486 c 0
 -634 1455 -603 1435 -580 1426 c 0
 -547 1414 -487 1398 -455 1417 c 1x3f
 -486 1417 -505 1420 -526 1434 c 0
EndSplineSet
EndChar
StartChar: uni0E48
Encoding: 189 3656 191
Width: 0
Flags: HW
AnchorPoint: "AboveMark" -262 1740 mark 0
Fore
-333 2106 m 1
 -191 2106 l 1
 -191 1826 l 1
 -333 1826 l 1
 -333 2106 l 1
EndSplineSet
Substitution: 0 65534 'loww' uni0E48.low
MultipleSubs: 0 65534 'amtn' uni0E4D uni0E48
EndChar
StartChar: uni0E49
Encoding: 190 3657 192
Width: 0
Flags: HW
HStem: 1882 63<-543 -525> 2102 68<-539 -518>
VStem: -679 73<2018 2026> -448 99<2009 2026>
AnchorPoint: "AboveMark" -286 1740 mark 0
Fore
67 2156 m 1
 34 2021 -51 1910 -187 1825 c 0
 -317 1748 -422 1708 -591 1703 c 1
 -591 1783 l 1
 -541 1798 -504 1831 -489 1893 c 1
 -506 1886 -524 1882 -543 1882 c 0
 -618 1882 -679 1939 -679 2020 c 0
 -679 2110 -614 2170 -539 2170 c 0
 -418 2170 -349 2102 -349 2009 c 0
 -349 1950 -367 1888 -397 1848 c 1
 -282 1891 -194 1957 -131 2046 c 0
 -106 2081 -88 2117 -75 2156 c 1
 67 2156 l 1
-525 1945 m 0
 -488 1945 -448 1982 -448 2024 c 0
 -448 2070 -490 2102 -525 2102 c 0
 -564 2102 -606 2066 -606 2024 c 0
 -606 1982 -570 1945 -525 1945 c 0
EndSplineSet
Substitution: 0 65534 'loww' uni0E49.low
MultipleSubs: 0 65534 'amtn' uni0E4D uni0E49
EndChar
StartChar: uni0E4A
Encoding: 191 3658 193
Width: 0
Flags: HW
HStem: 1668 68<-676 -640> 1856 58<-649 -631>
VStem: -872 176<1792 1886> -579 54<1790 1805>
AnchorPoint: "AboveMark" -458 1740 mark 0
Fore
-579 1799 m 0
 -579 1828 -606 1856 -638 1856 c 0
 -677 1856 -696 1832 -696 1792 c 0
 -696 1760 -674 1736 -640 1736 c 0
 -606 1736 -579 1761 -579 1799 c 0
-155 1839 m 1
 -10 2169 l 1
 125 2169 l 1
 124 2169 -4 1832 -4 1832 c 2
 -35 1748 -120 1695 -254 1677 c 0
 -277 1674 -301 1672 -325 1672 c 1
 -290 1725 -273 1781 -273 1840 c 0
 -273 1920 -311 1987 -365 2020 c 1
 -507 1902 l 1
 -548 1937 -606 1993 -647 2020 c 1
 -694 2001 -722 1968 -739 1915 c 0
 -747 1890 -747 1862 -741 1837 c 1
 -740 1846 -733 1859 -722 1875 c 0
 -704 1901 -675 1914 -635 1914 c 0
 -566 1914 -525 1860 -525 1803 c 0
 -525 1712 -586 1668 -676 1668 c 0
 -802 1668 -872 1754 -872 1886 c 0
 -872 1984 -822 2044 -747 2101 c 0
 -722 2120 -680 2142 -647 2154 c 1
 -507 2036 l 1
 -365 2154 l 1
 -308 2135 -255 2099 -215 2042 c 0
 -166 1972 -142 1920 -155 1839 c 1
EndSplineSet
Substitution: 0 65534 'loww' uni0E4A.low
MultipleSubs: 0 65534 'amtn' uni0E4D uni0E4A
EndChar
StartChar: uni0E4B
Encoding: 192 3659 194
Width: 0
Flags: HW
HStem: 1812 142<-590 -448 -306 -164>
VStem: -448 142<1670 1812 1954 2096>
AnchorPoint: "AboveMark" -377 1640 mark 0
Fore
-164 1812 m 1
 -306 1812 l 1
 -306 1670 l 1
 -448 1670 l 1
 -448 1812 l 1
 -590 1812 l 1
 -590 1954 l 1
 -448 1954 l 1
 -448 2096 l 1
 -306 2096 l 1
 -306 1954 l 1
 -164 1954 l 1
 -164 1812 l 1
EndSplineSet
Substitution: 0 65534 'loww' uni0E4B.low
MultipleSubs: 0 65534 'amtn' uni0E4D uni0E4B
EndChar
StartChar: uni0E4C
Encoding: 193 3660 195
Width: 0
Flags: HW
HStem: 1621 84<-411 -389>
VStem: -617 113<1787 1807> -314 105<1787 1807>
AnchorPoint: "AboveMark" -389 1740 mark 0
Fore
28 2169 m 1
 16 2112 -68 2051 -133 2010 c 0
 -165 1985 -252 1955 -321 1942 c 1
 -248 1928 -209 1864 -209 1789 c 0
 -209 1716 -272 1621 -389 1621 c 0
 -524 1621 -617 1700 -617 1805 c 0
 -617 1883 -592 1929 -553 1969 c 0
 -504 2020 -336 2047 -279 2063 c 0
 -220 2080 -156 2120 -127 2169 c 1
 28 2169 l 1
-409 1885 m 0
 -463 1885 -504 1852 -504 1792 c 0
 -504 1743 -452 1705 -404 1705 c 0
 -360 1705 -314 1740 -314 1795 c 0
 -314 1856 -356 1885 -409 1885 c 0
EndSplineSet
Substitution: 0 65534 'loww' uni0E4C.low
MultipleSubs: 0 65534 'amtn' uni0E4D uni0E4C
EndChar
StartChar: uni0E4D
Encoding: 194 3661 196
Width: 0
Flags: HW
HStem: 1213 72<-269 -251> 1441 73<-269 -251>
VStem: -412 69<1362 1374> -183 70<1362 1374>
AnchorPoint: "AboveMark" -262 1740 basemark 0
AnchorPoint: "AboveBase" -140 1227 mark 0
Fore
-262 1514 m 0
 -180 1514 -113 1448 -113 1362 c 0
 -113 1282 -180 1213 -262 1213 c 0
 -341 1213 -412 1276 -412 1362 c 0
 -412 1444 -343 1514 -262 1514 c 0
-263 1285 m 0
 -224 1285 -183 1321 -183 1362 c 0
 -183 1408 -220 1441 -263 1441 c 0
 -312 1441 -343 1404 -343 1362 c 0
 -343 1321 -305 1285 -263 1285 c 0
EndSplineSet
Substitution: 0 65534 'high' uni0E4D.high
EndChar
StartChar: uni0E4E
Encoding: 195 3662 197
Width: 0
Flags: HW
HStem: 1444 110<-240 -135> 1686 112<-272 -168> 1925 111<-288 -254>
VStem: -543 123<1616 1628> -520 123<1859 1874>
AnchorPoint: "AboveBase" -140 1227 mark 0
Fore
-102 1901 m 1xe8
 -165 1917 -221 1925 -270 1925 c 0
 -355 1925 -397 1905 -397 1866 c 0xe8
 -397 1821 -344 1798 -238 1798 c 2
 -168 1798 l 1
 -168 1686 l 1
 -233 1686 l 2
 -358 1686 -420 1666 -420 1626 c 0
 -420 1606 -401 1589 -364 1575 c 0
 -327 1561 -276 1554 -213 1554 c 2
 -135 1554 l 1
 -135 1444 l 1
 -219 1444 l 2
 -319 1444 -398 1461 -456 1495 c 128
 -514 1529 -543 1569 -543 1616 c 0xf0
 -542 1679 -490 1729 -434 1743 c 1
 -491 1772 -520 1815 -520 1872 c 0
 -520 1921 -499 1961 -456 1991 c 0
 -413 2021 -354 2036 -279 2036 c 0
 -223 2036 -164 2028 -102 2013 c 1
 -102 1901 l 1xe8
EndSplineSet
EndChar
StartChar: uni0E4F
Encoding: 196 3663 198
Width: 1250
Flags: W
HStem: -21 121<592 642> 258 103<608 626> 658 105<608 626> 917 123<592 642>
VStem: 97 109<490 524> 363 101<490 524> 770 100<490 524> 1029 108<490 524>
Fore
617 917 m 0
 504 917 407 877 327 797 c 0
 246 717 206 621 206 508 c 0
 206 395 246 299 327 219 c 0
 407 140 504 100 617 100 c 0
 730 100 827 140 908 219 c 0
 989 299 1029 395 1029 508 c 0
 1029 621 989 717 908 797 c 0
 827 877 730 917 617 917 c 0
617 361 m 0
 662 361 698 375 727 403 c 0
 756 431 770 466 770 509 c 0
 770 552 756 588 727 616 c 0
 698 644 662 658 617 658 c 0
 572 658 536 644 507 616 c 0
 478 588 464 552 464 509 c 0
 464 466 478 431 507 403 c 0
 536 375 572 361 617 361 c 0
616 1040 m 0
 760 1040 883 988 985 884 c 0
 1086 781 1137 656 1137 509 c 0
 1137 363 1086 238 985 134 c 0
 883 31 760 -21 616 -21 c 0
 473 -21 351 31 250 134 c 0
 148 238 97 363 97 509 c 0
 97 656 148 781 250 884 c 0
 351 988 473 1040 616 1040 c 0
616 258 m 0
 542 258 481 282 434 330 c 0
 387 377 363 438 363 511 c 0
 363 584 387 644 434 692 c 0
 481 739 542 763 616 763 c 0
 690 763 751 739 798 692 c 0
 846 644 870 584 870 511 c 0
 870 438 846 377 798 330 c 1
 751 282 690 258 616 258 c 0
EndSplineSet
EndChar
StartChar: uni0E50
Encoding: 197 3664 199
Width: 1250
Flags: W
HStem: -10 173<597 647> 751 173<613 647>
VStem: 150 172<437 471> 939 173<437 471>
Fore
625 163 m 0
 711 163 786 192 847 250 c 128
 908 308 939 377 939 457 c 0
 939 540 907 611 844 668 c 0
 783 723 717 751 625 751 c 0
 540 751 468 721 409 663 c 0
 351 606 322 534 322 457 c 0
 322 370 354 297 418 240 c 0
 475 189 544 163 625 163 c 0
622 -10 m 0
 503 -10 399 28 310 105 c 0
 210 200 150 290 150 458 c 0
 150 570 187 682 269 767 c 0
 357 858 460 924 622 924 c 0
 789 924 885 870 978 779 c 0
 1064 695 1112 594 1112 458 c 0
 1112 347 1076 244 996 159 c 0
 891 48 792 -10 622 -10 c 0
EndSplineSet
EndChar
StartChar: uni0E51
Encoding: 198 3665 200
Width: 1300
Flags: W
HStem: -10 155<552 583> 203 159<552 587> 409 76<620 647> 603 84<643 655> 765 159<600 647>
VStem: 212 178<540 554> 489 96<533 554> 709 144<462 548> 934 173<450 487>
Fore
623 765 m 0
 496 765 392 678 390 541 c 0
 393 425 468 362 573 362 c 0
 620 362 663 378 667 421 c 1
 656 413 640 409 620 409 c 0
 534 409 489 462 489 550 c 0
 489 630 558 687 653 687 c 0
 786 687 853 588 853 462 c 0
 853 312 732 203 572 203 c 4
 384 203 212 330 212 552 c 0
 212 774 394 924 612 924 c 0
 822 924 966 846 1042 715 c 0
 1081 647 1107 552 1107 453 c 0
 1107 336 1069 244 1007 159 c 0
 930 54 773 -10 583 -10 c 0
 420 -10 277 34 185 115 c 1
 271 254 l 1
 351 186 444 146 581 145 c 0
 764 151 924 258 934 450 c 0
 935 659 827 761 623 765 c 0
585 545 m 0
 585 511 611 485 647 485 c 0
 678 485 709 509 709 548 c 0
 709 582 684 603 645 603 c 0
 611 603 585 576 585 545 c 0
EndSplineSet
EndChar
StartChar: uni0E52
Encoding: 199 3666 201
Width: 1350
Flags: W
HStem: 0 174<570 1214> 343 110<649 661> 571 108<651 661>
VStem: 456 135<513 570> 715 111<504 518> 1041 173<174 529>
Fore
591 513 m 0
 591 480 617 453 653 453 c 0
 690 453 715 477 715 516 c 0
 715 543 690 571 651 571 c 0
 617 571 591 555 591 513 c 0
534 0 m 18
 444 0 392 36 327 92 c 0
 270 141 246 201 232 307 c 0
 217 417 221 493 208 611 c 16
 186 819 143 975 75 1134 c 1
 269 1134 l 1
 329 979 370 788 393 560 c 0
 417 362 408 309 445 252 c 0
 475 206 528 174 582 174 c 2
 582 174 893 174 1041 174 c 1
 1041 506 l 2
 1041 570 1029 624 1004 667 c 0
 985 698 964 724 936 744 c 1
 936 743 901 720 832 674 c 1
 718 744 l 1
 693 733 672 711 653 679 c 1
 653 679 669 679 680 679 c 16
 738 679 826 615 826 511 c 0
 826 426 762 343 659 343 c 0
 528 343 456 447 456 570 c 0
 456 664 480 724 526 790 c 0
 555 832 655 906 718 924 c 1
 718 923 756 892 832 831 c 1
 936 924 l 1
 992 913 1059 859 1102 813 c 0
 1152 759 1172 720 1187 679 c 0
 1205 631 1214 573 1214 506 c 2
 1214 0 l 1
 988 0 534 0 534 0 c 18
EndSplineSet
EndChar
StartChar: uni0E53
Encoding: 200 3667 202
Width: 1400
Flags: W
HStem: -11 103<368 394> 210 122<368 383> 753 171<394 426 965 985>
VStem: 89 175<532 597> 436 115<148 163> 644 130<216 262.086> 1129 170<468 534>
Fore
378 92 m 0
 424 92 436 118 436 152 c 0
 436 184 408 210 370 210 c 0
 340 210 314 184 314 160 c 0
 314 114 335 92 378 92 c 0
89 561 m 0
 89 768 192 924 403 924 c 0
 552 924 652 862 705 768 c 1
 756 856 839 924 967 924 c 0
 1184 924 1299 779 1299 489 c 0
 1299 312 1275 195 1229 0 c 1
 1053 0 l 1
 1104 252 1129 360 1129 511 c 0
 1129 656 1078 753 983 753 c 0
 888 753 824 664 807 570 c 0
 788 465 775 338 774 216 c 1
 644 216 l 1
 645 335 616 472 597 573 c 0
 581 657 512 753 412 753 c 0
 323 753 264 680 264 597 c 0
 264 491 270 397 301 314 c 1
 326 326 354 332 383 332 c 0
 480 332 551 256 551 163 c 0
 551 69 497 -11 394 -11 c 0
 288 -11 238 15 198 94 c 0
 144 200 89 424 89 561 c 0
EndSplineSet
EndChar
StartChar: uni0E54
Encoding: 201 3668 203
Width: 1550
Flags: W
HStem: -6 164<574 590> 76 82<580 593> 580 112<1036 1040> 762 162<638 944>
VStem: 127 176<441 491> 813 148<459 502> 1112 115<489 504>
Fore
1462 1262 m 1xbe
 1447 1097 1393 972 1299 888 c 0
 1205 804 1076 762 913 762 c 2
 653 762 l 2
 420 762 303 652 303 461 c 0
 303 293 427 155 590 158 c 0xbe
 651 158 769 182 942 231 c 1
 883 272 813 369 813 459 c 0
 813 604 904 692 1036 692 c 0
 1140 692 1230 605 1227 504 c 0
 1227 400 1144 316 1038 313 c 1
 1069 282 1104 262 1141 254 c 0
 1246 229 1327 193 1382 145 c 1
 1253 -2 l 1
 1195 49 1145 77 1030 76 c 0x7e
 929 78 676 -6 580 -6 c 0
 330 -6 127 215 127 469 c 0
 127 772 361 926 672 924 c 2
 918 924 l 2
 1130 924 1250 1037 1278 1262 c 1
 1462 1262 l 1xbe
1036 428 m 0
 1076 427 1113 461 1112 502 c 0
 1113 544 1078 581 1036 580 c 0
 995 581 961 548 961 502 c 0
 961 462 996 427 1036 428 c 0
EndSplineSet
EndChar
StartChar: uni0E55
Encoding: 202 3669 204
Width: 1550
Flags: W
HStem: 76 82<579 1030> 76 352<1028 1038> 580 112<1036 1040> 762 160<782 913> 1073 113<793 800>
VStem: 127 176<441 491> 602 115<985 1003> 813 148<459 502> 868 115<985 1003> 1112 115<490.23 507>
Fore
1462 1262 m 1xbec0
 1447 1097 1393 972 1299 888 c 0
 1205 804 1076 762 913 762 c 2
 653 762 l 2
 420 762 303 652 303 461 c 0
 303 293 436 158 590 158 c 0
 651 158 769 182 942 231 c 1
 883 272 813 369 813 459 c 0xbf40
 813 588 904 692 1036 692 c 0
 1140 692 1227 604 1227 504 c 0
 1227 400 1144 316 1038 313 c 1
 1069 282 1103 262 1139 254 c 0
 1244 229 1325 193 1380 145 c 1
 1253 -2 l 1
 1195 49 1140 76 1030 76 c 0
 929 76 679 -8 580 -6 c 0
 332 0 127 215 127 469 c 0
 127 748 331 907 618 922 c 1
 607 948 602 973 602 997 c 0
 602 1100 692 1186 793 1186 c 0
 900 1186 983 1092 983 997 c 0
 983 970 978 947 969 926 c 1
 1150 945 1253 1057 1278 1262 c 1
 1462 1262 l 1xbec0
793 922 m 0
 820 922 868 956 868 995 c 0x3ec0
 868 1036 820 1073 793 1073 c 0
 751 1073 717 1028 717 995 c 0
 717 956 754 922 793 922 c 0
1036 428 m 0x7f40
 1076 428 1112 461 1112 502 c 0
 1112 540 1076 580 1036 580 c 0
 995 580 961 548 961 502 c 1
 960 462 996 428 1036 428 c 0x7f40
EndSplineSet
EndChar
StartChar: uni0E56
Encoding: 203 3670 205
Width: 1300
Flags: W
HStem: -16 155<719 743> 481 113<539 557> 760 168<653 687>
VStem: 328 149<338 403> 629 112<403 417> 1020 176<436 465>
Fore
422 885 m 1
 498 914 575 928 653 928 c 0
 813 928 943 883 1044 792 c 0
 1145 702 1196 583 1196 436 c 0
 1196 301 1150 191 1059 108 c 0
 968 25 854 -16 719 -16 c 0
 608 -16 515 20 440 91 c 0
 365 162 328 245 328 338 c 0
 328 412 349 474 392 522 c 0
 435 570 488 594 551 594 c 0
 604 594 648 575 685 538 c 0
 722 501 741 460 741 406 c 0
 741 356 724 313 690 276 c 0
 657 239 612 219 555 215 c 1
 575 176 658 138 719 139 c 0
 806 139 878 166 935 222 c 128
 992 276 1020 348 1020 436 c 0
 1020 535 986 613 919 672 c 0
 852 731 763 760 653 760 c 0
 540 760 439 741 348 702 c 1
 247 945 135 1131 12 1262 c 1
 260 1262 l 1
 337 1141 391 1015 422 885 c 1
553 330 m 0
 592 329 630 364 629 403 c 0
 630 445 594 482 553 481 c 0
 512 482 476 445 477 403 c 0
 476 364 514 329 553 330 c 0
EndSplineSet
EndChar
StartChar: uni0E57
Encoding: 204 3671 206
Width: 1540
Flags: W
HStem: -16 112<393 406> 248 114<382 406> 760 164<406 416 799 801>
VStem: 127 176<436 481> 469 115<170 180> 514 174<467 519.849> 899 178<436 481> 1229 188<319 1130>
Fore
1417 334 m 2xfb
 1417 111 1297 0 1057 0 c 2
 791 0 l 1
 791 10 l 1
 818 53 842 117 865 203 c 0
 888 289 899 367 899 436 c 0
 899 550 891 632 875 684 c 128
 859 734 834 760 799 760 c 0
 725 760 688 662 688 467 c 1
 514 467 l 1xf7
 514 662 478 760 406 760 c 0
 337 760 303 652 303 436 c 0
 303 389 305 359 309 348 c 1
 329 357 358 362 395 362 c 0
 449 362 494 343 530 306 c 0
 566 268 584 223 584 172 c 0
 584 120 565 76 528 39 c 0
 490 2 445 -16 393 -16 c 0
 310 -16 245 23 198 101 c 0
 151 179 127 291 127 436 c 0
 127 761 220 924 406 924 c 0
 498 924 563 875 602 776 c 1
 643 875 708 924 799 924 c 0
 984 924 1077 761 1077 436 c 0
 1077 349 1065 263 1042 178 c 1
 1057 178 l 2
 1172 178 1229 231 1229 338 c 2
 1229 1130 l 1
 1417 1130 l 1
 1417 334 l 2xfb
393 96 m 0
 435 96 469 129 469 174 c 0xfb
 469 214 436 248 393 248 c 0
 352 248 317 217 317 174 c 0
 317 132 348 96 393 96 c 0
EndSplineSet
EndChar
StartChar: uni0E58
Encoding: 205 3672 207
Width: 1580
Flags: W
HStem: 0 21G<575 700> 283 166<713 743> 309 115<1198 1216> 575 113<1204 1216>
VStem: 127 176<435 485> 532 168<141 181> 1014 114<485.833 503> 1288 170<324 381>
Fore
1462 1262 m 1xdf
 1447 1099 1393 975 1299 888 c 0
 1230 825 1124 787 979 776 c 0
 954 774 873 772 736 769 c 0
 606 766 512 753 453 728 c 0
 353 684 303 602 303 461 c 0
 303 382 325 315 370 260 c 0
 415 205 469 175 532 170 c 1
 532 251 548 318 580 370 c 128
 612 423 656 449 713 449 c 0xdf
 748 449 783 439 820 420 c 0
 856 401 904 357 963 287 c 1
 1041 203 1048 168 1155 154 c 0
 1193 149 1225 169 1250 200 c 0
 1274 230 1287 271 1288 324 c 1
 1269 314 1240 309 1202 309 c 0xbf
 1149 309 1104 328 1068 366 c 0
 1032 403 1014 448 1014 500 c 0
 1014 551 1033 595 1070 632 c 0
 1107 669 1152 688 1204 688 c 0
 1279 688 1340 660 1387 603 c 0
 1434 546 1458 472 1458 381 c 0
 1458 258 1430 161 1374 92 c 0
 1318 23 1245 -12 1155 -12 c 0
 1110 -12 1064 1 1017 28 c 0
 970 54 911 110 840 196 c 0
 792 254 760 283 743 283 c 0
 714 283 700 236 700 141 c 2
 700 0 l 1
 575 0 l 2
 446 0 339 45 254 134 c 0
 169 223 127 335 127 469 c 0
 127 615 177 728 277 808 c 0
 354 869 466 906 613 917 c 0
 629 918 705 921 842 925 c 0
 969 929 1061 944 1119 971 c 0
 1222 1019 1277 1114 1278 1262 c 1
 1462 1262 l 1xdf
1204 424 m 0xbf
 1245 424 1280 455 1280 498 c 0
 1280 541 1253 575 1204 575 c 0
 1162 575 1128 547 1128 498 c 0
 1128 458 1160 424 1204 424 c 0xbf
EndSplineSet
EndChar
StartChar: uni0E59
Encoding: 206 3673 208
Width: 1500
Flags: W
HStem: -16 112<393 400> 248 114<382 400> 555 166<1102 1120> 760 164<467 480 874 880>
VStem: 127 176<436 481> 127 190<174 436> 469 115<170 176>
Fore
1399 1130 m 1xfa
 1388 912 1359 762 1310 679 c 0
 1261 596 1197 555 1120 555 c 0
 1088 555 1057 564 1028 582 c 0
 999 599 968 637 933 696 c 0
 908 739 889 760 874 760 c 0
 840 760 805 708 768 604 c 1
 999 0 l 1
 825 0 l 1
 621 546 l 1
 594 616 569 669 546 706 c 0
 523 742 497 760 467 760 c 0
 414 760 374 732 346 676 c 128
 317 620 303 540 303 436 c 0
 303 395 305 366 309 348 c 1
 329 357 358 362 395 362 c 0
 449 362 494 343 530 306 c 0
 566 268 584 223 584 172 c 0
 584 120 565 76 528 39 c 0
 490 2 445 -16 393 -16 c 0
 310 -16 245 23 198 101 c 0
 151 179 127 291 127 436 c 0
 127 593 156 714 214 798 c 0
 273 882 357 924 467 924 c 0
 570 924 649 875 702 776 c 1
 745 875 802 924 874 924 c 0
 899 924 923 916 946 900 c 128
 970 884 999 849 1033 794 c 0
 1064 745 1087 721 1104 721 c 0
 1163 721 1200 857 1214 1130 c 1
 1399 1130 l 1xfa
393 96 m 0
 435 96 469 132 469 174 c 0
 469 213 433 248 393 248 c 128
 353 248 317 213 317 174 c 0xf6
 317 132 352 96 393 96 c 0
EndSplineSet
EndChar
StartChar: uni0E5A
Encoding: 207 3674 209
Width: 1400
Flags: W
HStem: 0 21G<845 1025 1065 1253> 995 111<329 349>
VStem: 125 130<885 929> 403 122<927 941> 845 180<0 1120> 1065 188<0 1120>
Fore
1025 1120 m 1
 1025 0 l 1
 845 0 l 1
 845 777 l 1
 789 728 738 693 689 678 c 0
 630 660 559 646 487 646 c 0
 396 646 316 667 254 698 c 0
 192 729 125 807 125 885 c 0
 125 950 144 1005 191 1049 c 0
 223 1079 291 1106 349 1106 c 0
 387 1106 423 1089 463 1058 c 0
 497 1032 525 982 525 939 c 0
 525 891 511 845 462 803 c 1
 483 794 520 796 573 809 c 0
 690 837 775 906 818 1008 c 0
 832 1042 841 1079 845 1120 c 1
 1025 1120 l 1
255 929 m 0
 255 882 281 858 325 858 c 0
 369 858 403 884 403 929 c 0
 403 969 373 995 331 995 c 0
 285 995 255 970 255 929 c 0
1253 0 m 1
 1065 0 l 1
 1065 1120 l 1
 1253 1120 l 1
 1253 0 l 1
EndSplineSet
EndChar
StartChar: uni0E5B
Encoding: 208 3675 210
Width: 2370
Flags: W
HStem: -10 158<583 634> 94 254<1600 1616> 218 108<1971 2358> 272 158<612 640> 340 167<1760 1776> 375 240<1140 1151> 462 88<572 586> 658 75<561 582> 812 174<559 586>
VStem: 133 154<483 511> 632 84<597 617> 796 165<606 631>
Fore
1776 340 m 0x29f0
 1765 340 1751 318 1734 275 c 0
 1708 209 1689 166 1677 147 c 0
 1654 112 1628 94 1600 94 c 0
 1569 94 1544 129 1530 165 c 16
 1512 213 1506 243 1488 297 c 8
 1480 321 1461 351 1450 351 c 0
 1439 351 1427 326 1417 295 c 0
 1393 229 1382 192 1374 171 c 0
 1358 126 1332 88 1292 88 c 0
 1241 88 1218 117 1196 170 c 0
 1192 180 1176 243 1158 315 c 0
 1154 330 1151 375 1145 375 c 0x45f0
 1131 375 1125 357 1111 322 c 0
 1074 231 1049 193 1004 138 c 0
 918 33 792 -10 604 -10 c 0
 483 -10 381 30 280 130 c 0
 191 218 133 312 133 483 c 0
 133 603 160 704 214 787 c 0
 292 899 428 986 578 986 c 0
 722 986 829 937 892 848 c 0
 939 781 961 702 961 611 c 0
 961 522 915 426 875 388 c 0
 829 344 747 272 612 272 c 0x91f0
 539 272 480 296 434 348 c 0x41f0
 403 383 380 418 380 500 c 0
 380 556 395 609 438 666 c 0
 465 702 513 733 561 733 c 0
 657 733 716 672 716 600 c 0
 716 504 636 462 584 462 c 8
 566 462 540 471 540 471 c 1
 552 438 604 430 640 430 c 0
 716 430 744 474 764 502 c 0
 785 532 796 593 796 626 c 0
 796 690 770 726 740 757 c 0
 708 790 624 812 572 812 c 0
 492 812 418 775 376 730 c 0
 316 666 287 585 287 483 c 0
 287 386 318 307 370 254 c 0
 428 194 514 148 608 148 c 0x93f0
 736 148 867 203 925 282 c 0
 988 368 992 387 1039 489 c 0
 1068 552 1088 615 1151 615 c 0
 1202 615 1232 579 1251 508 c 0
 1266 452 1262 357 1292 357 c 0
 1311 357 1326 389 1334 416 c 16
 1346 456 1347 484 1355 518 c 0
 1366 568 1395 615 1457 615 c 0
 1496 615 1530 580 1544 524 c 8
 1557 472 1562 436 1578 390 c 8
 1585 369 1601 348 1616 348 c 0x45f0
 1631 348 1645 362 1657 392 c 0
 1674 436 1684 457 1689 463 c 0
 1714 496 1731 507 1760 507 c 0
 1783 507 1810 485 1826 457 c 16
 1839 435 1847 413 1867 389 c 16
 1899 351 1934 326 1979 326 c 2
 2358 326 l 1
 2358 218 l 1
 1973 218 l 2
 1908 218 1860 243 1804 310 c 0
 1788 329 1779 340 1776 340 c 0x29f0
632 605 m 0
 632 635 612 658 578 658 c 0
 548 658 524 636 524 602 c 0
 524 572 547 550 580 550 c 0x03f0
 611 550 632 572 632 605 c 0
EndSplineSet
EndChar
StartChar: afii301
Encoding: 211 8205 212
Width: 0
Flags: W
VStem: -36 72<-275 1114>
Fore
36 -275 m 1
 -36 -275 l 1
 -36 1114 l 1
 -170 978 l 1
 -219 1027 l 1
 -48 1196 l 1
 -219 1364 l 1
 -170 1413 l 1
 0 1242 l 1
 170 1413 l 1
 219 1364 l 1
 48 1196 l 1
 219 1027 l 1
 170 978 l 1
 36 1114 l 1
 36 -275 l 1
EndSplineSet
EndChar
StartChar: afii299
Encoding: 212 8206 213
Width: 0
Flags: W
HStem: 1163 71<-36 301>
VStem: -36 71<-275 1163>
Fore
430 1198 m 1
 213 984 l 1
 164 1033 l 1
 301 1163 l 1
 35 1163 l 1
 35 -275 l 1
 -36 -275 l 1
 -36 1234 l 1
 301 1234 l 1
 164 1364 l 1
 213 1413 l 1
 430 1198 l 1
EndSplineSet
EndChar
StartChar: afii300
Encoding: 213 8207 214
Width: 0
Flags: W
HStem: 1163 71<-302 -36>
VStem: -36 71<-275 1234>
Fore
35 -275 m 1
 -36 -275 l 1
 -36 1163 l 1
 -302 1163 l 1
 -165 1033 l 1
 -214 984 l 1
 -431 1198 l 1
 -214 1413 l 1
 -165 1364 l 1
 -302 1234 l 1
 35 1234 l 1
 35 -275 l 1
EndSplineSet
EndChar
StartChar: uni2010
Encoding: 214 8208 215
Width: 973
Flags: W
HStem: 580 165<190 815>
Fore
190 745 m 1
 815 745 l 1
 815 580 l 1
 190 580 l 1
 190 745 l 1
EndSplineSet
EndChar
StartChar: endash
Encoding: 215 8211 216
Width: 1125
Flags: W
HStem: 572 160<-4 1122>
Fore
1122 572 m 1
 -4 572 l 1
 -4 732 l 1
 1122 732 l 1
 1122 572 l 1
EndSplineSet
EndChar
StartChar: emdash
Encoding: 216 8212 217
Width: 1886
Flags: W
HStem: 572 160<-4 1866>
Fore
1866 572 m 1
 -4 572 l 1
 -4 732 l 1
 1866 732 l 1
 1866 572 l 1
EndSplineSet
EndChar
StartChar: afii00208
Encoding: 217 8213 218
Width: 1862
Flags: W
HStem: 572 160<110 1752>
Fore
1752 572 m 1
 110 572 l 1
 110 732 l 1
 1752 732 l 1
 1752 572 l 1
EndSplineSet
EndChar
StartChar: underscoredbl
Encoding: 218 8215 219
Width: 1118
Flags: W
HStem: -423 130<-16 1134> -212 130<-16 1134>
Fore
1134 -212 m 1
 -16 -212 l 1
 -16 -82 l 1
 1134 -82 l 1
 1134 -212 l 1
1134 -423 m 1
 -16 -423 l 1
 -16 -293 l 1
 1134 -293 l 1
 1134 -423 l 1
EndSplineSet
EndChar
StartChar: quoteleft
Encoding: 219 8216 220
Width: 450
Flags: W
Fore
335 997 m 1
 197 997 l 1
 -64 1556 l 1
 178 1556 l 1
 335 997 l 1
EndSplineSet
EndChar
StartChar: quoteright
Encoding: 220 8217 221
Width: 580
Flags: W
Fore
496 1556 m 1
 235 997 l 1
 97 997 l 1
 254 1556 l 1
 496 1556 l 1
EndSplineSet
EndChar
StartChar: quotesinglbase
Encoding: 221 8218 222
Width: 432
Flags: W
Fore
386 283 m 1
 125 -276 l 1
 -13 -276 l 1
 144 283 l 1
 386 283 l 1
EndSplineSet
EndChar
StartChar: quotereversed
Encoding: 222 8219 223
Width: 432
Flags: W
Fore
335 1556 m 1
 178 997 l 1
 -64 997 l 1
 197 1556 l 1
 335 1556 l 1
EndSplineSet
EndChar
StartChar: quotedblleft
Encoding: 223 8220 224
Width: 850
Flags: W
Fore
725 997 m 1
 591 997 l 1
 330 1556 l 1
 568 1556 l 1
 725 997 l 1
331 997 m 1
 197 997 l 1
 -64 1556 l 1
 174 1556 l 1
 331 997 l 1
EndSplineSet
EndChar
StartChar: quotedblright
Encoding: 224 8221 225
Width: 1000
Flags: W
Fore
896 1556 m 1
 635 997 l 1
 501 997 l 1
 658 1556 l 1
 896 1556 l 1
502 1556 m 1
 241 997 l 1
 107 997 l 1
 264 1556 l 1
 502 1556 l 1
EndSplineSet
EndChar
StartChar: quotedblbase
Encoding: 225 8222 226
Width: 814
Flags: W
Fore
781 283 m 1
 520 -276 l 1
 386 -276 l 1
 543 283 l 1
 781 283 l 1
387 283 m 1
 126 -276 l 1
 -8 -276 l 1
 149 283 l 1
 387 283 l 1
EndSplineSet
EndChar
StartChar: dagger
Encoding: 226 8224 227
Width: 1118
Flags: W
HStem: 1034 124<135 498 620 983>
VStem: 493 127<135 1039 1158 1556>
Fore
983 1034 m 1
 620 1039 l 1
 625 135 l 1
 493 135 l 1
 498 1039 l 1
 135 1034 l 1
 135 1163 l 1
 498 1158 l 1
 493 1556 l 1
 625 1556 l 1
 620 1158 l 1
 983 1163 l 1
 983 1034 l 1
EndSplineSet
EndChar
StartChar: daggerdbl
Encoding: 227 8225 228
Width: 1118
Flags: W
HStem: 507 124<135 498 620 983> 1044 124<135 498 620 983>
VStem: 493 127<124 512 1168 1556>
Fore
983 507 m 1
 620 512 l 1
 625 124 l 1
 493 124 l 1
 498 512 l 1
 135 507 l 1
 135 636 l 1
 498 631 l 1
 498 1049 l 1
 135 1044 l 1
 135 1173 l 1
 498 1168 l 1
 493 1556 l 1
 625 1556 l 1
 620 1168 l 1
 983 1173 l 1
 983 1044 l 1
 620 1049 l 1
 620 631 l 1
 983 636 l 1
 983 507 l 1
EndSplineSet
EndChar
StartChar: bullet
Encoding: 228 8226 229
Width: 950
Flags: W
Fore
817 662 m 0
 817 565 782 483 714 414 c 128
 644 345 562 311 465 311 c 0
 368 311 286 345 217 414 c 128
 148 483 114 565 114 662 c 128
 114 759 148 841 217 910 c 128
 286 979 368 1013 465 1013 c 0
 562 1013 645 979 714 910 c 0
 783 841 817 759 817 662 c 0
EndSplineSet
EndChar
StartChar: ellipsis
Encoding: 229 8230 230
Width: 1650
Flags: W
HStem: 0 223<177 381 735 939 1293 1497>
VStem: 177 204<0 223> 735 204<0 223> 1293 204<0 223>
CounterMasks: 1 00
Fore
1497 0 m 1
 1293 0 l 1
 1293 223 l 1
 1497 223 l 1
 1497 0 l 1
939 0 m 1
 735 0 l 1
 735 223 l 1
 939 223 l 1
 939 0 l 1
381 0 m 1
 177 0 l 1
 177 223 l 1
 381 223 l 1
 381 0 l 1
EndSplineSet
EndChar
StartChar: perthousand
Encoding: 230 8240 231
Width: 2848
Flags: W
HStem: -29 133<1545 1559 2389 2407> 634 133<455 471> 721 133<1545 1559 2389 2407> 1384 133<455 471>
VStem: 102 178<1075 1108> 629 178<1076 1108> 1192 178<412 452> 1719 178<413 452> 2036 178<412 452> 2563 178<413 452>
Fore
807 1076 m 0xdfc0
 807 926 777 815 716 742 c 128
 656 670 569 634 455 634 c 0
 339 634 251 671 192 744 c 128
 132 817 102 928 102 1075 c 0
 102 1224 132 1335 193 1408 c 128
 254 1481 341 1517 455 1517 c 0
 571 1517 659 1480 718 1407 c 128
 777 1334 807 1223 807 1076 c 0xdfc0
1473 1489 m 1
 693 0 l 1
 528 0 l 1
 1308 1489 l 1
 1473 1489 l 1
1897 413 m 0
 1897 263 1867 152 1806 80 c 128
 1746 7 1659 -29 1545 -29 c 0
 1429 -29 1341 8 1282 81 c 128
 1222 154 1192 265 1192 412 c 0
 1192 561 1222 672 1283 745 c 128
 1344 818 1431 854 1545 854 c 0xbfc0
 1661 854 1749 817 1808 744 c 128
 1867 671 1897 560 1897 413 c 0
629 1076 m 0
 629 1177 617 1254 594 1306 c 128
 570 1358 524 1384 455 1384 c 128
 386 1384 340 1358 316 1305 c 128
 292 1252 280 1176 280 1075 c 0
 280 975 291 899 314 846 c 128
 337 793 384 767 455 767 c 0xdfc0
 524 767 570 793 594 846 c 128
 617 899 629 975 629 1076 c 0
1719 413 m 0
 1719 514 1707 591 1684 643 c 128
 1660 695 1614 721 1545 721 c 128xbfc0
 1476 721 1430 695 1406 642 c 128
 1382 589 1370 513 1370 412 c 0
 1370 312 1381 236 1404 183 c 128
 1427 130 1474 104 1545 104 c 0
 1614 104 1660 130 1684 183 c 128
 1707 236 1719 312 1719 413 c 0
2741 413 m 0
 2741 263 2711 152 2650 80 c 128
 2590 7 2503 -29 2389 -29 c 0
 2273 -29 2185 8 2126 81 c 128
 2066 154 2036 265 2036 412 c 0
 2036 561 2066 672 2127 745 c 128
 2188 818 2275 854 2389 854 c 0
 2505 854 2593 817 2652 744 c 128
 2711 671 2741 560 2741 413 c 0
2563 413 m 0
 2563 514 2551 591 2528 643 c 128
 2504 695 2458 721 2389 721 c 128
 2320 721 2274 695 2250 642 c 128
 2226 589 2214 513 2214 412 c 0
 2214 312 2225 236 2248 183 c 128
 2271 130 2318 104 2389 104 c 0
 2458 104 2504 130 2528 183 c 128
 2551 236 2563 312 2563 413 c 0
EndSplineSet
EndChar
StartChar: minute
Encoding: 231 8242 232
Width: 602
Flags: W
Fore
571 1489 m 1
 273 870 l 1
 137 870 l 1
 331 1489 l 1
 571 1489 l 1
EndSplineSet
EndChar
StartChar: second
Encoding: 232 8243 233
Width: 972
Flags: W
Fore
567 1489 m 1
 269 870 l 1
 137 870 l 1
 331 1489 l 1
 567 1489 l 1
961 1489 m 1
 663 870 l 1
 531 870 l 1
 725 1489 l 1
 961 1489 l 1
EndSplineSet
EndChar
StartChar: guilsinglleft
Encoding: 233 8249 234
Width: 784
Flags: W
Fore
633 172 m 1
 123 608 l 1
 123 697 l 1
 633 1132 l 1
 633 933 l 1
 302 652 l 1
 633 371 l 1
 633 172 l 1
EndSplineSet
EndChar
StartChar: guilsinglright
Encoding: 234 8250 235
Width: 784
Flags: W
Fore
661 608 m 1
 151 172 l 1
 151 371 l 1
 482 652 l 1
 151 933 l 1
 151 1132 l 1
 661 697 l 1
 661 608 l 1
EndSplineSet
EndChar
StartChar: uni203E
Encoding: 236 8254 237
Width: 1118
Flags: W
HStem: 1658 131<-48 1118>
Fore
1118 1658 m 1
 -48 1658 l 1
 -48 1789 l 1
 1118 1789 l 1
 1118 1658 l 1
EndSplineSet
EndChar
StartChar: fraction
Encoding: 237 8260 238
Width: 886
Flags: W
HStem: 0 21G<-29 136>
Fore
916 1489 m 1
 136 0 l 1
 -29 0 l 1
 751 1489 l 1
 916 1489 l 1
EndSplineSet
EndChar
StartChar: uni207F
Encoding: 238 8319 239
Width: 1010
Flags: W
HStem: 1368 151<541 586>
VStem: 125 171<566 1254 566 1488> 718 172<566 1163>
Fore
890 566 m 1
 718 566 l 1
 718 1088 l 2
 718 1135 717 1176 714 1210 c 128
 711 1244 704 1273 691 1298 c 0
 679 1322 661 1340 637 1351 c 128
 613 1362 581 1368 541 1368 c 0
 499 1368 458 1357 418 1336 c 128
 377 1314 337 1287 296 1254 c 1
 296 566 l 1
 125 566 l 1
 125 1488 l 1
 296 1488 l 1
 296 1388 l 1
 345 1430 392 1462 437 1485 c 128
 482 1508 532 1519 586 1519 c 0
 683 1519 758 1489 810 1428 c 128
 864 1368 890 1280 890 1163 c 2
 890 566 l 1
EndSplineSet
EndChar
StartChar: dottedcircle
Encoding: 239 9676 240
Width: 1255
Flags: W
HStem: 7 121<599.301 620> 68 121<905 907> 98 121<346 352> 234 121<1071 1079> 249 121<203 215> 445 121<70.3007 87> 679 121<97 103 1132 1143> 868 121<203 215> 891 121<1025 1031> 1011 121<392 394> 1034 121<825.232 847> 1079 121<618 620>
VStem: 22 121<505 507> 37 121<727.301 744> 143 121<297.301 312 928 936> 286 121<158 168> 332 121<1071 1081> 551 121<55.3007 72> 558 121<1139 1144> 777 121<1082.3 1099> 845 121<128 136> 965 121<939.301 954> 1011 121<282.301 297> 1072 121<727.232 744> 1086 121<498 508>
Fore
143 928 m 0x0702
 143 945 149 960 160 972 c 128
 171 983 186 989 203 989 c 0
 220 989 235 983 246 972 c 128
 258 960 264 945 264 928 c 0
 264 911 258 896 246 885 c 128
 235 874 220 868 203 868 c 0
 186 868 171 874 160 885 c 128
 149 896 143 911 143 928 c 0x0702
332 1071 m 0x064080
 332 1088 338 1103 349 1114 c 128
 360 1126 375 1132 392 1132 c 0
 409 1132 424 1126 436 1114 c 128
 447 1103 453 1088 453 1071 c 0
 453 1054 447 1039 436 1028 c 128
 424 1017 409 1011 392 1011 c 0
 375 1011 360 1017 349 1028 c 128
 338 1039 332 1054 332 1071 c 0x064080
558 1139 m 0x061020
 558 1156 564 1171 575 1182 c 128
 586 1194 601 1200 618 1200 c 0
 635 1200 650 1194 662 1182 c 128
 673 1171 679 1156 679 1139 c 0
 679 1122 673 1107 662 1096 c 128
 650 1085 635 1079 618 1079 c 0
 601 1079 586 1085 575 1096 c 128
 564 1107 558 1122 558 1139 c 0x061020
22 505 m 0x0608
 22 522 28 537 39 548 c 128
 50 560 65 566 82 566 c 0
 99 566 114 560 126 548 c 128
 137 537 143 522 143 505 c 0
 143 488 137 473 126 462 c 128
 114 451 99 445 82 445 c 0
 65 445 50 451 39 462 c 128
 28 473 22 488 22 505 c 0x0608
143 309 m 0x0e02
 143 326 149 341 160 352 c 128
 171 364 186 370 203 370 c 0
 220 370 235 364 246 352 c 128
 258 341 264 326 264 309 c 0
 264 292 258 277 246 266 c 128
 235 255 220 249 203 249 c 0
 186 249 171 255 160 266 c 128
 149 277 143 292 143 309 c 0x0e02
286 158 m 0x2601
 286 175 292 190 303 202 c 128
 314 213 329 219 346 219 c 0
 363 219 378 213 390 202 c 128
 401 190 407 175 407 158 c 0
 407 141 401 126 390 115 c 128
 378 104 363 98 346 98 c 0
 329 98 314 104 303 115 c 128
 292 126 286 141 286 158 c 0x2601
551 67 m 0x860040
 551 84 557 99 568 110 c 128
 579 122 594 128 611 128 c 0
 628 128 643 122 654 110 c 128
 666 99 672 84 672 67 c 0
 672 50 666 35 654 24 c 128
 643 13 628 7 611 7 c 0
 594 7 579 13 568 24 c 128
 557 35 551 50 551 67 c 0x860040
845 128 m 0x860008
 845 145 851 160 862 172 c 128
 873 183 888 189 905 189 c 0x460008
 922 189 937 183 948 172 c 128
 960 160 966 145 966 128 c 0x860008
 966 111 960 96 948 85 c 128
 937 74 922 68 905 68 c 0x460008
 888 68 873 74 862 85 c 128
 851 96 845 111 845 128 c 0x860008
1011 294 m 0x160002
 1011 311 1017 326 1028 338 c 128
 1039 349 1054 355 1071 355 c 0
 1088 355 1103 349 1114 338 c 128
 1126 326 1132 311 1132 294 c 0
 1132 277 1126 262 1114 251 c 128
 1103 240 1088 234 1071 234 c 0
 1054 234 1039 240 1028 251 c 128
 1017 262 1011 277 1011 294 c 0x160002
1086 498 m 0x06000080
 1086 515 1092 530 1103 542 c 128
 1114 553 1129 559 1146 559 c 0
 1163 559 1178 553 1190 542 c 128
 1201 530 1207 515 1207 498 c 0
 1207 481 1201 466 1190 455 c 128
 1178 444 1163 438 1146 438 c 0
 1129 438 1114 444 1103 455 c 128
 1092 466 1086 481 1086 498 c 0x06000080
1072 739 m 0x060001
 1072 756 1078 771 1089 782 c 128
 1100 794 1115 800 1132 800 c 0x060002
 1149 800 1164 794 1176 782 c 128
 1187 771 1193 756 1193 739 c 0x060001
 1193 722 1187 707 1176 696 c 128
 1164 685 1149 679 1132 679 c 0x060002
 1115 679 1100 685 1089 696 c 128
 1078 707 1072 722 1072 739 c 0x060001
965 951 m 0x068004
 965 968 971 983 982 994 c 128
 993 1006 1008 1012 1025 1012 c 0
 1042 1012 1057 1006 1068 994 c 128
 1080 983 1086 968 1086 951 c 0
 1086 934 1080 919 1068 908 c 128
 1057 897 1042 891 1025 891 c 0
 1008 891 993 897 982 908 c 128
 971 919 965 934 965 951 c 0x068004
777 1094 m 0x062010
 777 1111 783 1126 794 1138 c 128
 805 1149 820 1155 837 1155 c 0
 854 1155 869 1149 880 1138 c 128
 892 1126 898 1111 898 1094 c 0
 898 1077 892 1062 880 1051 c 128
 869 1040 854 1034 837 1034 c 0
 820 1034 805 1040 794 1051 c 128
 783 1062 777 1077 777 1094 c 0x062010
37 739 m 0x0604
 37 756 43 771 54 782 c 128
 65 794 80 800 97 800 c 0
 114 800 129 794 140 782 c 128
 152 771 158 756 158 739 c 0
 158 722 152 707 140 696 c 128
 129 685 114 679 97 679 c 0
 80 679 65 685 54 696 c 128
 43 707 37 722 37 739 c 0x0604
EndSplineSet
EndChar
StartChar: uni0E10.descless
Encoding: 240 63232 241
Width: 1130
Flags: W
HStem: -10 160<637 641> 290 113<271 293> 571 126<285 305> 998 151<536 577>
VStem: 102 101<479 503> 367 150<428 494> 757 160<279 535>
Fore
757 529 m 6
 757 583 706 625 605 656 c 4
 476 695 301 730 80 762 c 5
 163 1020 320 1149 549 1149 c 4
 636 1148 722 1132 807 1098 c 132
 892 1066 962 1057 1017 1072 c 5
 978 917 l 5
 917 907 850 918 776 952 c 132
 704 984 623 1000 536 998 c 4
 434 995 363 953 324 872 c 5
 565 823 720 780 787 744 c 4
 874 698 917 641 917 574 c 6
 917 279 l 6
 916 86 823 -10 637 -10 c 4
 450 -10 357 88 357 283 c 6
 357 317 l 5
 346 303 325 290 293 290 c 4
 174 290 102 353 102 481 c 4
 102 620 172 697 305 697 c 4
 442 697 517 601 517 428 c 6
 517 283 l 6
 517 194 557 150 637 150 c 4
 717 151 757 194 757 279 c 6
 757 529 l 6
275 403 m 4
 335 403 367 434 367 494 c 4
 367 544 338 571 287 571 c 4
 237 571 203 544 203 490 c 4
 203 445 226 403 275 403 c 4
EndSplineSet
EndChar
StartChar: uni0E34.left
Encoding: 241 63233 242
Width: 0
Flags: W
HStem: 1479 111<-970 -920>
Fore
-456 1176 m 1
 -599 1207 -804 1232 -1086 1255 c 0
 -1217 1266 -1322 1271 -1401 1271 c 1
 -1380 1340 -1329 1404 -1257 1472 c 0
 -1172 1552 -1072 1590 -934 1590 c 0
 -788 1590 -690 1541 -603 1464 c 0
 -540 1408 -481 1303 -456 1176 c 1
-641 1308 m 1
 -700 1424 -788 1479 -949 1479 c 0
 -1049 1479 -1129 1430 -1174 1362 c 1
 -1174 1362 -1120 1362 -1086 1360 c 16
 -908 1352 -770 1336 -641 1308 c 1
EndSplineSet
EndChar
StartChar: uni0E35.left
Encoding: 242 63234 243
Width: 0
Flags: W
HStem: 1259 101<-1437 -1185> 1448 130<-990 -956>
VStem: -649 150<1461 1671>
Fore
-499 1196 m 1
 -496 1185 -494 1174 -492 1164 c 1
 -636 1195 -846 1221 -1123 1244 c 0
 -1263 1255 -1339 1259 -1437 1259 c 1
 -1416 1328 -1365 1392 -1293 1460 c 0
 -1212 1536 -1109 1578 -971 1578 c 0
 -820 1578 -750 1532 -649 1461 c 1
 -649 1671 l 1
 -499 1671 l 1
 -499 1196 l 1
-691 1306 m 1
 -732 1379 -836 1448 -977 1448 c 0
 -1056 1448 -1143 1409 -1185 1360 c 1
 -1087 1360 -963 1349 -813 1328 c 0
 -760 1321 -720 1313 -691 1306 c 1
EndSplineSet
EndChar
StartChar: uni0E36.left
Encoding: 243 63235 244
Width: 0
Flags: W
HStem: 1269 89<-1523 -1276> 1460 128<-1076 -1042> 1514 113<-610.601 -597.063 -597 -582.889>
VStem: -523 110<1444 1448>
Fore
-766 1494 m 1xd0
 -756 1531 -739 1560 -715 1581 c 0
 -681 1612 -642 1627 -597 1627 c 0xb0
 -542 1627 -496 1607 -459 1566 c 0
 -428 1533 -413 1494 -413 1448 c 0
 -413 1391 -436 1344 -481 1308 c 0
 -515 1281 -555 1267 -601 1267 c 1
 -595 1250 -588 1219 -579 1174 c 1
 -722 1205 -932 1231 -1209 1254 c 0
 -1340 1264 -1445 1269 -1523 1269 c 1
 -1502 1338 -1455 1405 -1380 1470 c 0
 -1300 1541 -1192 1588 -1057 1588 c 0
 -920 1588 -861 1555 -766 1494 c 1xd0
-597 1514 m 0
 -635 1515 -667 1485 -669 1446 c 0
 -671 1409 -639 1375 -597 1375 c 0
 -555 1373 -524 1403 -523 1446 c 0
 -524 1483 -550 1514 -597 1514 c 0
-773 1304 m 1
 -814 1377 -912 1460 -1059 1460 c 0xd0
 -1128 1460 -1229 1415 -1276 1358 c 1
 -1177 1358 -1052 1347 -900 1326 c 0
 -844 1319 -802 1311 -773 1304 c 1
EndSplineSet
EndChar
StartChar: uni0E37.left
Encoding: 244 63236 245
Width: 0
Flags: W
HStem: 1454 125<-1052 -1018>
VStem: -730 150<1465 1667>
Fore
-809 1516 m 1
 -786 1514 -756 1487 -730 1465 c 1
 -730 1667 l 1
 -580 1667 l 1
 -580 1230 l 1
 -578 1173 l 1
 -721 1204 -936 1230 -1223 1253 c 0
 -1342 1263 -1434 1268 -1499 1268 c 1
 -1468 1361 -1403 1440 -1302 1506 c 0
 -1235 1551 -1143 1579 -1034 1579 c 0
 -1007 1579 -982 1575 -959 1570 c 1
 -959 1668 l 1
 -809 1668 l 1
 -809 1516 l 1
-792 1315 m 1
 -833 1396 -933 1454 -1041 1454 c 0
 -1124 1454 -1213 1414 -1253 1359 c 1
 -1253 1359 -1179 1357 -1131 1354 c 16
 -999 1347 -848 1330 -792 1315 c 1
EndSplineSet
EndChar
StartChar: uni0E48.low_left
Encoding: 245 63237 246
Width: 0
Flags: W
VStem: -618 142<1300 1580>
Fore
-618 1580 m 1
 -476 1580 l 1
 -476 1300 l 1
 -618 1300 l 1
 -618 1580 l 1
EndSplineSet
EndChar
StartChar: uni0E49.low_left
Encoding: 246 63238 247
Width: 0
Flags: W
HStem: 1283 71<-903 -879> 1483 82<-896 -868>
VStem: -1036 90<1408.22 1427> -817 111<1404 1421>
Fore
-879 1354 m 4
 -846 1354 -817 1385 -817 1419 c 4
 -817 1452 -846 1483 -879 1483 c 4
 -911 1483 -946 1456 -946 1419 c 4
 -946 1385 -916 1354 -879 1354 c 4
-290 1551 m 5
 -323 1416 -408 1305 -544 1220 c 4
 -651 1153 -746 1120 -888 1101 c 12
 -911 1098 -948 1098 -948 1098 c 5
 -948 1178 l 5
 -916 1186 -889 1205 -868 1235 c 4
 -858 1249 -850 1270 -844 1297 c 5
 -861 1288 -881 1283 -903 1283 c 4
 -942 1283 -969 1294 -995 1315 c 4
 -1024 1341 -1036 1375 -1036 1425 c 4
 -1036 1464 -1019 1495 -994 1522 c 4
 -974 1544 -935 1565 -896 1565 c 4
 -822 1565 -782 1548 -745 1508 c 4
 -719 1479 -706 1444 -706 1404 c 4
 -706 1340 -725 1283 -754 1243 c 5
 -639 1286 -551 1352 -488 1441 c 4
 -463 1476 -445 1512 -432 1551 c 5
 -290 1551 l 5
EndSplineSet
EndChar
StartChar: uni0E4A.low_left
Encoding: 247 63239 248
Width: 0
Flags: W
HStem: 1187 88<-1128 -1092> 1356 78<-1101 -1083>
VStem: -1324 127<1388 1406> -1049 72<1311 1327> -725 122<1359 1396>
Fore
-1049 1318 m 0
 -1049 1340 -1069 1356 -1093 1356 c 0
 -1116 1356 -1130 1340 -1130 1313 c 0
 -1130 1291 -1113 1275 -1092 1275 c 0
 -1064 1275 -1049 1292 -1049 1318 c 0
-606 1358 m 1
 -461 1688 l 1
 -327 1688 l 1
 -456 1351 l 2
 -489 1266 -572 1214 -706 1196 c 0
 -729 1193 -753 1192 -777 1191 c 1
 -742 1244 -725 1300 -725 1359 c 0
 -725 1443 -762 1507 -817 1539 c 1
 -959 1422 l 1
 -1000 1457 -1057 1512 -1098 1539 c 1
 -1155 1516 -1195 1467 -1197 1390 c 0
 -1197 1369 -1193 1351 -1185 1336 c 1
 -1185 1336 -1187 1351 -1186 1361 c 16
 -1180 1406 -1139 1434 -1087 1434 c 0
 -1020 1434 -977 1377 -977 1327 c 0
 -977 1265 -1000 1222 -1043 1205 c 0
 -1069 1195 -1097 1187 -1128 1187 c 0
 -1173 1187 -1228 1202 -1263 1237 c 0
 -1287 1261 -1324 1316 -1324 1406 c 0
 -1324 1499 -1273 1567 -1198 1620 c 0
 -1163 1645 -1132 1662 -1098 1673 c 1
 -959 1556 l 1
 -817 1673 l 1
 -760 1654 -709 1617 -666 1562 c 0
 -624 1508 -603 1453 -603 1396 c 0
 -603 1383 -604 1371 -606 1358 c 1
EndSplineSet
EndChar
StartChar: uni0E4B.low_left
Encoding: 248 63240 249
Width: 0
Flags: W
HStem: 1170 142<-896 -754 -612 -470> 1434 20G<-754 -612>
VStem: -754 142<1028 1170 1312 1454>
Fore
-470 1170 m 1
 -612 1170 l 1
 -612 1028 l 1
 -754 1028 l 1
 -754 1170 l 1
 -896 1170 l 1
 -896 1312 l 1
 -754 1312 l 1
 -754 1454 l 1
 -612 1454 l 1
 -612 1312 l 1
 -470 1312 l 1
 -470 1170 l 1
EndSplineSet
EndChar
StartChar: uni0E4C.low_left
Encoding: 249 63241 250
Width: 0
Flags: W
HStem: 1192 84<-848 -826> 1436 20G<-872.5 -815>
VStem: -1054 113<1363 1394> -751 105<1358 1368>
Fore
-409 1740 m 1
 -426 1693 -489 1630 -540 1600 c 0
 -632 1546 -660 1532 -758 1513 c 1
 -711 1503 -676 1474 -662 1435 c 0
 -654 1412 -646 1390 -646 1360 c 0
 -646 1334 -668 1274 -692 1246 c 0
 -712 1222 -760 1192 -826 1192 c 0
 -892 1192 -972 1218 -1002 1254 c 0
 -1036 1295 -1054 1326 -1054 1394 c 0
 -1054 1446 -1027 1508 -990 1540 c 0
 -956 1569 -892 1594 -794 1615 c 0
 -752 1624 -726 1630 -716 1634 c 0
 -660 1654 -593 1691 -564 1740 c 1
 -409 1740 l 1
-846 1456 m 0
 -899 1456 -941 1418 -941 1363 c 0
 -941 1315 -900 1276 -841 1276 c 0
 -800 1276 -751 1311 -751 1366 c 0
 -751 1418 -784 1456 -846 1456 c 0
EndSplineSet
EndChar
StartChar: uni0E48.low
Encoding: 250 63242 251
Width: 0
Flags: W
VStem: -310 142<1306 1586>
AnchorPoint: "AboveBase" -180 1227 mark 0
Fore
-310 1586 m 1
 -168 1586 l 1
 -168 1306 l 1
 -310 1306 l 1
 -310 1586 l 1
EndSplineSet
EndChar
StartChar: uni0E49.low
Encoding: 251 63243 252
Width: 0
Flags: HW
HStem: 1428 71<-688 -664> 1628 82<-681 -653>
VStem: -821 90<1553.22 1572> -602 111<1549 1566>
AnchorPoint: "AboveBase" -240 1227 mark 0
Fore
-664 1499 m 0
 -631 1499 -602 1530 -602 1564 c 0
 -602 1597 -631 1628 -664 1628 c 0
 -696 1628 -731 1601 -731 1564 c 0
 -731 1530 -701 1499 -664 1499 c 0
-75 1696 m 1
 -108 1561 -193 1450 -329 1365 c 0
 -436 1298 -531 1265 -673 1246 c 8
 -696 1243 -733 1243 -733 1243 c 1
 -733 1323 l 1
 -701 1331 -674 1350 -653 1380 c 0
 -643 1394 -635 1415 -629 1442 c 1
 -646 1433 -666 1428 -688 1428 c 0
 -727 1428 -754 1439 -780 1460 c 0
 -809 1486 -821 1520 -821 1570 c 0
 -821 1609 -804 1640 -779 1667 c 0
 -759 1689 -720 1710 -681 1710 c 0
 -607 1710 -567 1693 -530 1653 c 0
 -504 1624 -491 1589 -491 1549 c 0
 -491 1485 -510 1428 -539 1388 c 1
 -424 1431 -336 1497 -273 1586 c 0
 -248 1621 -230 1657 -217 1696 c 1
 -75 1696 l 1
EndSplineSet
EndChar
StartChar: uni0E4A.low
Encoding: 252 63244 253
Width: 0
Flags: HW
HStem: 1242 88<-624 -588> 1411 78<-597 -579>
VStem: -820 127<1443 1461> -545 72<1366 1382> -221 122<1414 1451>
AnchorPoint: "AboveBase" 0 1227 mark 0
Fore
-545 1373 m 0
 -545 1395 -565 1411 -589 1411 c 0
 -612 1411 -626 1395 -626 1368 c 0
 -626 1346 -609 1330 -588 1330 c 0
 -560 1330 -545 1347 -545 1373 c 0
-102 1413 m 1
 43 1743 l 1
 177 1743 l 1
 48 1406 l 2
 15 1321 -68 1269 -202 1251 c 0
 -225 1248 -249 1247 -273 1246 c 1
 -238 1299 -221 1355 -221 1414 c 0
 -221 1498 -258 1562 -313 1594 c 1
 -455 1477 l 1
 -496 1512 -553 1567 -594 1594 c 1
 -651 1571 -691 1522 -693 1445 c 0
 -693 1424 -689 1406 -681 1391 c 1
 -681 1391 -683 1406 -682 1416 c 16
 -676 1461 -635 1489 -583 1489 c 0
 -516 1489 -473 1432 -473 1382 c 0
 -473 1320 -496 1277 -539 1260 c 0
 -565 1250 -593 1242 -624 1242 c 0
 -669 1242 -724 1257 -759 1292 c 0
 -783 1316 -820 1371 -820 1461 c 0
 -820 1554 -769 1622 -694 1675 c 0
 -659 1700 -628 1717 -594 1728 c 1
 -455 1611 l 1
 -313 1728 l 1
 -256 1709 -205 1672 -162 1617 c 0
 -120 1563 -99 1508 -99 1451 c 0
 -99 1438 -100 1426 -102 1413 c 1
EndSplineSet
EndChar
StartChar: uni0E4B.low
Encoding: 253 63245 254
Width: 0
Flags: W
HStem: 1370 142<-468 -326 -184 -42>
VStem: -326 142<1228 1370 1512 1654>
AnchorPoint: "AboveBase" -60 1227 mark 0
Fore
-42 1370 m 1
 -184 1370 l 1
 -184 1228 l 1
 -326 1228 l 1
 -326 1370 l 1
 -468 1370 l 1
 -468 1512 l 1
 -326 1512 l 1
 -326 1654 l 1
 -184 1654 l 1
 -184 1512 l 1
 -42 1512 l 1
 -42 1370 l 1
EndSplineSet
EndChar
StartChar: uni0E4C.low
Encoding: 254 63246 255
Width: 0
Flags: HW
HStem: 1248 84<-508 -486>
VStem: -714 113<1419 1450> -411 105<1414 1424>
AnchorPoint: "AboveBase" -300 1227 mark 0
Fore
-69 1796 m 1
 -86 1749 -149 1686 -200 1656 c 0
 -292 1602 -320 1588 -418 1569 c 1
 -371 1559 -336 1530 -322 1491 c 0
 -314 1468 -306 1446 -306 1416 c 0
 -306 1390 -328 1330 -352 1302 c 0
 -372 1278 -420 1248 -486 1248 c 0
 -552 1248 -632 1274 -662 1310 c 0
 -696 1351 -714 1382 -714 1450 c 0
 -714 1502 -687 1564 -650 1596 c 0
 -616 1625 -552 1650 -454 1671 c 0
 -412 1680 -386 1686 -376 1690 c 0
 -320 1710 -253 1747 -224 1796 c 1
 -69 1796 l 1
-506 1512 m 0
 -559 1512 -601 1474 -601 1419 c 0
 -601 1371 -560 1332 -501 1332 c 0
 -460 1332 -411 1367 -411 1422 c 0
 -411 1474 -444 1512 -506 1512 c 0
EndSplineSet
EndChar
StartChar: uni0E0D.descless
Encoding: 255 63247 256
Width: 1745
Flags: W
HStem: -11 116<361 385> 0 176<1052 1623> 273 124<385 397> 989 160<596 619>
VStem: 159 142<192 258> 159 160<258 422> 465 107<196 198> 893 160<0 678> 1463 160<176 1139>
Fore
893 657 m 6x7780
 893 872 784 989 596 989 c 4
 450 989 341 934 268 825 c 5
 347 808 410 754 457 663 c 5
 365 592 319 505 319 403 c 6
 319 369 l 5x7780
 335 387 360 396 395 397 c 4
 521 396 572 320 572 196 c 4
 572 60 489 -10 362 -11 c 4
 227 -4 159 86 159 258 c 6xbb80
 159 403 l 6
 159 508 202 598 288 671 c 5
 261 730 195 770 90 792 c 5
 195 1030 364 1149 596 1149 c 4
 896 1149 1052 986 1053 673 c 6
 1053 176 l 5
 1463 176 l 5
 1463 1139 l 5
 1623 1139 l 5
 1623 0 l 5
 893 0 l 5
 893 657 l 6x7780
373 105 m 4xbb80
 433 105 465 142 465 196 c 4
 465 243 432 273 385 273 c 4
 335 273 301 242 301 192 c 4
 301 147 328 105 373 105 c 4xbb80
EndSplineSet
EndChar
StartChar: uni0E31.left
Encoding: 256 63248 257
Width: 0
Flags: W
HStem: 1549 92<-971 -964>
VStem: -1141 97<1472 1491> -902 93<1472 1491>
Fore
-1141 1486 m 0
 -1141 1580 -1078 1641 -971 1641 c 0
 -865 1641 -809 1580 -809 1474 c 0
 -809 1425 -835 1386 -876 1355 c 1
 -799 1330 -720 1338 -638 1382 c 128
 -557 1424 -516 1509 -516 1635 c 1
 -400 1635 l 1
 -400 1497 -440 1393 -520 1322 c 128
 -599 1251 -697 1218 -830 1218 c 0
 -923 1218 -998 1243 -1056 1288 c 128
 -1114 1334 -1141 1400 -1141 1486 c 0
-982 1404 m 0
 -929 1404 -902 1431 -902 1483 c 0
 -902 1524 -929 1549 -971 1549 c 0
 -1014 1549 -1044 1532 -1044 1479 c 0
 -1044 1440 -1025 1404 -982 1404 c 0
EndSplineSet
EndChar
StartChar: uni0E4D.left
Encoding: 257 63249 258
Width: 0
Flags: W
HStem: 1212 86<-651 -640> 1425 88<-651 -640>
VStem: -801 86<1362 1373> -588 86<1362 1373>
Fore
-651 1513 m 0
 -610 1513 -575 1498 -546 1469 c 0
 -517 1440 -502 1404 -502 1362 c 0
 -502 1321 -517 1285 -546 1256 c 0
 -575 1227 -610 1212 -651 1212 c 0
 -692 1212 -727 1227 -756 1256 c 0
 -786 1286 -801 1321 -801 1362 c 0
 -801 1404 -786 1440 -757 1469 c 0
 -728 1498 -692 1513 -651 1513 c 0
-651 1298 m 0
 -634 1298 -619 1304 -606 1317 c 0
 -594 1330 -588 1345 -588 1362 c 0
 -588 1379 -594 1394 -606 1406 c 0
 -619 1419 -634 1425 -651 1425 c 0
 -668 1425 -683 1419 -696 1406 c 0
 -709 1394 -715 1379 -715 1362 c 0
 -715 1345 -709 1330 -696 1317 c 0
 -683 1304 -668 1298 -651 1298 c 0
EndSplineSet
EndChar
StartChar: uni0E47.left
Encoding: 258 63250 259
Width: 0
Flags: W
HStem: 1283 176<-513 -490> 1371 152<-799 -791> 1416 43<-505 -490> 1582 53<-506 -488> 1659 118<-707 -663>
VStem: -1080 148<1504 1522> -620 62<1505 1525> -430 93<1475 1518>
Fore
-498 1582 m 0x9f
 -531 1582 -558 1557 -558 1516 c 0
 -558 1481 -529 1459 -490 1459 c 0
 -453 1459 -430 1482 -430 1518 c 0
 -430 1557 -457 1582 -498 1582 c 0x9f
-571 1433 m 0
 -603 1453 -620 1482 -620 1521 c 0
 -620 1589 -561 1635 -497 1635 c 0
 -429 1635 -373 1609 -357 1565 c 0
 -347 1537 -337 1508 -337 1475 c 0
 -337 1369 -405 1283 -513 1283 c 0x9f
 -588 1283 -652 1299 -705 1332 c 0
 -732 1347 -759 1371 -799 1371 c 0x5f
 -841 1371 -830 1297 -840 1283 c 1x9f
 -939 1283 -1009 1321 -1050 1392 c 0
 -1070 1427 -1080 1466 -1080 1509 c 0
 -1080 1629 -1009 1709 -894 1750 c 0
 -844 1768 -775 1776 -686 1777 c 0
 -626 1778 -585 1781 -562 1788 c 0
 -504 1806 -461 1839 -442 1893 c 1
 -300 1893 l 1
 -305 1840 -333 1789 -386 1741 c 0
 -423 1707 -463 1685 -504 1674 c 0
 -536 1665 -592 1660 -673 1659 c 0
 -753 1658 -813 1649 -852 1630 c 0
 -905 1601 -931 1572 -932 1504 c 0
 -928 1470 -915 1425 -884 1429 c 1
 -884 1429 -882 1448 -879 1460 c 16
 -869 1501 -840 1523 -799 1523 c 0x5f
 -777 1523 -750 1510 -718 1485 c 0
 -679 1454 -648 1434 -625 1425 c 0
 -592 1413 -532 1397 -500 1416 c 1x3f
 -531 1416 -550 1419 -571 1433 c 0
EndSplineSet
EndChar
StartChar: uni0E48.left
Encoding: 259 63251 260
Width: 0
Flags: W
VStem: -528 142<1816 2096>
Fore
-528 2096 m 1
 -386 2096 l 1
 -386 1816 l 1
 -528 1816 l 1
 -528 2096 l 1
EndSplineSet
EndChar
StartChar: uni0E49.left
Encoding: 260 63252 261
Width: 0
Flags: W
HStem: 1878 63<-633 -615> 2098 68<-629 -608>
VStem: -769 73<2014 2022> -538 99<2005 2022>
Fore
-23 2152 m 1
 -56 2017 -141 1906 -277 1821 c 0
 -407 1744 -512 1704 -681 1699 c 1
 -681 1779 l 1
 -631 1794 -594 1827 -579 1889 c 1
 -596 1882 -614 1878 -633 1878 c 0
 -708 1878 -769 1935 -769 2016 c 0
 -769 2106 -704 2166 -629 2166 c 0
 -508 2166 -439 2098 -439 2005 c 0
 -439 1946 -457 1884 -487 1844 c 1
 -372 1887 -284 1953 -221 2042 c 0
 -196 2077 -178 2113 -165 2152 c 1
 -23 2152 l 1
-615 1941 m 0
 -578 1941 -538 1978 -538 2020 c 0
 -538 2066 -580 2098 -615 2098 c 0
 -654 2098 -696 2062 -696 2020 c 0
 -696 1978 -660 1941 -615 1941 c 0
EndSplineSet
EndChar
StartChar: uni0E4A.left
Encoding: 261 63253 262
Width: 0
Flags: W
HStem: 1668 68<-792 -756> 1856 58<-765 -747>
VStem: -988 176<1792 1886> -695 54<1790 1805>
Fore
-695 1799 m 0
 -695 1828 -722 1856 -754 1856 c 0
 -793 1856 -812 1832 -812 1792 c 0
 -812 1760 -790 1736 -756 1736 c 0
 -722 1736 -695 1761 -695 1799 c 0
-271 1839 m 1
 -126 2169 l 1
 9 2169 l 1
 8 2169 -120 1832 -120 1832 c 2
 -151 1748 -236 1695 -370 1677 c 0
 -393 1674 -417 1672 -441 1672 c 1
 -406 1725 -389 1781 -389 1840 c 0
 -389 1920 -427 1987 -481 2020 c 1
 -623 1902 l 1
 -664 1937 -722 1993 -763 2020 c 1
 -810 2001 -838 1968 -855 1915 c 0
 -863 1890 -863 1862 -857 1837 c 1
 -856 1846 -849 1859 -838 1875 c 0
 -820 1901 -791 1914 -751 1914 c 0
 -682 1914 -641 1860 -641 1803 c 0
 -641 1712 -702 1668 -792 1668 c 0
 -918 1668 -988 1754 -988 1886 c 0
 -988 1984 -938 2044 -863 2101 c 0
 -838 2120 -796 2142 -763 2154 c 1
 -623 2036 l 1
 -481 2154 l 1
 -424 2135 -371 2099 -331 2042 c 0
 -282 1972 -258 1920 -271 1839 c 1
EndSplineSet
EndChar
StartChar: uni0E4B.left
Encoding: 262 63254 263
Width: 0
Flags: W
HStem: 1821 142<-715 -573 -431 -289>
VStem: -573 142<1679 1821 1963 2105>
Fore
-289 1821 m 1
 -431 1821 l 1
 -431 1679 l 1
 -573 1679 l 1
 -573 1821 l 1
 -715 1821 l 1
 -715 1963 l 1
 -573 1963 l 1
 -573 2105 l 1
 -431 2105 l 1
 -431 1963 l 1
 -289 1963 l 1
 -289 1821 l 1
EndSplineSet
EndChar
StartChar: uni0E4C.left
Encoding: 263 63255 264
Width: 0
Flags: W
HStem: 1630 84<-519 -497>
VStem: -725 113<1796 1816> -422 105<1796 1816>
Fore
-80 2178 m 1
 -92 2121 -176 2060 -241 2019 c 0
 -273 1994 -360 1964 -429 1951 c 1
 -356 1937 -317 1873 -317 1798 c 0
 -317 1725 -380 1630 -497 1630 c 0
 -632 1630 -725 1709 -725 1814 c 0
 -725 1892 -700 1938 -661 1978 c 0
 -612 2029 -444 2056 -387 2072 c 0
 -328 2089 -264 2129 -235 2178 c 1
 -80 2178 l 1
-517 1894 m 0
 -571 1894 -612 1861 -612 1801 c 0
 -612 1752 -560 1714 -512 1714 c 0
 -468 1714 -422 1749 -422 1804 c 0
 -422 1865 -464 1894 -517 1894 c 0
EndSplineSet
EndChar
StartChar: uni0E38.low
Encoding: 264 63256 265
Width: 0
Flags: W
HStem: -375 67<-346 -320> -163 78<-333 -320>
VStem: -473 77<-247 -229> -281 123<-299 -237>
Fore
-289 -534 m 1
 -289 -360 l 1
 -299 -369 -310 -375 -322 -375 c 0
 -428 -375 -473 -331 -473 -244 c 0
 -473 -142 -422 -85 -320 -85 c 0
 -216 -85 -158 -158 -158 -299 c 2
 -158 -534 l 1
 -289 -534 l 1
-331 -163 m 0
 -374 -163 -396 -186 -396 -236 c 0
 -396 -285 -374 -308 -331 -308 c 0
 -296 -308 -281 -284 -281 -237 c 0
 -281 -190 -300 -163 -331 -163 c 0
EndSplineSet
EndChar
StartChar: uni0E39.low
Encoding: 265 63257 266
Width: 0
Flags: W
HStem: -534 99<-438 -158> -376 69<-635 -608> -163 78<-618 -599>
VStem: -752 77<-247 -230> -568 131<-534 -299> -560 123<-299 -232> -292 134<-435 -96>
Fore
-292 -96 m 1xfa
 -158 -96 l 1
 -158 -534 l 1
 -568 -534 l 1
 -568 -360 l 1
 -584 -376 -606 -376 -635 -376 c 0
 -699 -376 -752 -317 -752 -244 c 0
 -752 -152 -689 -85 -599 -85 c 0
 -538 -85 -494 -106 -470 -145 c 0
 -449 -178 -437 -236 -437 -299 c 2
 -437 -435 l 1
 -292 -435 l 1
 -292 -96 l 1xfa
-610 -163 m 0
 -648 -163 -675 -196 -675 -236 c 0
 -675 -279 -657 -307 -619 -307 c 0
 -575 -307 -560 -271 -560 -232 c 0xf6
 -560 -188 -579 -163 -610 -163 c 0
EndSplineSet
EndChar
StartChar: uni0E3A.low
Encoding: 266 63258 267
Width: 0
Flags: W
Fore
-251 -60 m 0
 -214 -60 -183 -73 -157 -99 c 0
 -130 -128 -116 -160 -116 -195 c 0
 -116 -232 -131 -265 -157 -289 c 0
 -185 -314 -214 -330 -251 -330 c 0
 -286 -330 -318 -316 -345 -289 c 0
 -372 -262 -385 -231 -385 -195 c 0
 -385 -160 -371 -125 -345 -99 c 0
 -319 -73 -287 -60 -251 -60 c 0
EndSplineSet
EndChar
StartChar: uniF71B
Encoding: 267 63259 268
Width: 1000
Flags: W
HStem: 1065 20G<215 830>
VStem: 215 615<61 1085>
Fore
830 1085 m 1
 830 61 l 1
 215 61 l 1
 215 1085 l 1
 830 1085 l 1
EndSplineSet
EndChar
StartChar: uniF71C
Encoding: 268 63260 269
Width: 700
Flags: W
Fore
107 -423 m 1
 244 -154 l 1
 486 -154 l 1
 245 -423 l 1
 107 -423 l 1
EndSplineSet
EndChar
StartChar: uniF71D
Encoding: 269 63261 270
Width: 800
Flags: W
HStem: -127 102<182 532>
VStem: 182 84<-236 -127> 532 84<-236 -25>
Fore
616 -236 m 1
 532 -236 l 1
 532 -127 l 1
 266 -127 l 1
 266 -236 l 1
 182 -236 l 1
 182 -25 l 1
 616 -25 l 1
 616 -236 l 1
EndSplineSet
EndChar
StartChar: afii61664
Encoding: 210 8204 271
Width: 0
Flags: W
VStem: -36 72<-275 1289>
Fore
36 1289 m 1
 36 -275 l 1
 -36 -275 l 1
 -36 1289 l 1
 36 1289 l 1
EndSplineSet
EndChar
